.SFNSText-SemiBold.ufo
<glyph name="exclam" format="2">
  <advance width="241"/>
  <unicode hex="0021"/>
  <outline>
    <contour>
      <point x="170" y="689" type="line"/>
      <point x="68" y="689" type="line"/>
      <point x="79" y="230" type="line"/>
      <point x="160" y="230" type="line"/>
    </contour>
    <contour>
      <point x="120" y="127" type="curve" smooth="yes"/>
      <point x="81" y="127"/>
      <point x="51" y="96"/>
      <point x="51" y="58" type="curve" smooth="yes"/>
      <point x="51" y="19"/>
      <point x="81" y="-12"/>
      <point x="120" y="-12" type="curve" smooth="yes"/>
      <point x="160" y="-12"/>
      <point x="190" y="19"/>
      <point x="190" y="58" type="curve" smooth="yes"/>
      <point x="190" y="96"/>
      <point x="160" y="127"/>
    </contour>
  </outline>
</glyph>
<glyph name="ampersand" format="2">
  <advance width="763"/>
  <unicode hex="0026"/>
  <outline>
    <contour>
      <point x="302" y="701" type="curve" smooth="yes"/>
      <point x="186" y="701"/>
      <point x="123" y="633"/>
      <point x="123" y="546" type="curve" smooth="yes"/>
      <point x="123" y="476.506"/>
      <point x="160.778" y="431.051"/>
      <point x="220.421" y="373.837" type="curve"/>
      <point x="135.139" y="319.782"/>
      <point x="81" y="262"/>
      <point x="81" y="175" type="curve" smooth="yes"/>
      <point x="81" y="61"/>
      <point x="173" y="-12"/>
      <point x="305" y="-12" type="curve" smooth="yes"/>
      <point x="399.72" y="-12"/>
      <point x="470.216" y="21.197"/>
      <point x="525.836" y="82.49" type="curve"/>
      <point x="623" y="-12" type="line"/>
      <point x="689" y="42" type="line"/>
      <point x="577.211" y="146.518" type="line"/>
      <point x="609.576" y="197.287"/>
      <point x="640.656" y="261.631"/>
      <point x="666" y="344" type="curve"/>
      <point x="580" y="369" type="line"/>
      <point x="564.849" y="303.939"/>
      <point x="543.343" y="246.822"/>
      <point x="520.439" y="199.772" type="curve"/>
      <point x="344.224" y="365.721" type="line"/>
      <point x="418.969" y="410.095"/>
      <point x="485" y="463.04"/>
      <point x="485" y="549" type="curve" smooth="yes"/>
      <point x="485" y="636"/>
      <point x="411" y="701"/>
    </contour>
    <contour>
      <point x="273.071" y="324.019" type="curve"/>
      <point x="472.519" y="132.917" type="line"/>
      <point x="427.837" y="86.635"/>
      <point x="378.932" y="61"/>
      <point x="315" y="61" type="curve" smooth="yes"/>
      <point x="233" y="61"/>
      <point x="175" y="104"/>
      <point x="175" y="178" type="curve" smooth="yes"/>
      <point x="175" y="237"/>
      <point x="207.168" y="280.53"/>
    </contour>
    <contour>
      <point x="303" y="633" type="curve" smooth="yes"/>
      <point x="359" y="633"/>
      <point x="395" y="600"/>
      <point x="395" y="544" type="curve" smooth="yes"/>
      <point x="395" y="491.149"/>
      <point x="354.313" y="453.243"/>
      <point x="291.855" y="415.151" type="curve"/>
      <point x="244.259" y="460.057"/>
      <point x="213" y="495.303"/>
      <point x="213" y="547" type="curve" smooth="yes"/>
      <point x="213" y="596"/>
      <point x="245" y="633"/>
    </contour>
  </outline>
</glyph>
<glyph name="asterisk" format="2">
  <advance width="439"/>
  <unicode hex="002A"/>
  <outline>
    <contour>
      <point x="219" y="543" type="line"/>
      <point x="212" y="505" type="line"/>
      <point x="298" y="359" type="line"/>
      <point x="370" y="412" type="line"/>
      <point x="258" y="537" type="line"/>
    </contour>
    <contour>
      <point x="264" y="739" type="line"/>
      <point x="174" y="739" type="line"/>
      <point x="190" y="569" type="line"/>
      <point x="219" y="543" type="line"/>
      <point x="248" y="569" type="line"/>
    </contour>
    <contour>
      <point x="391" y="644" type="line"/>
      <point x="238" y="576" type="line"/>
      <point x="219" y="543" type="line"/>
      <point x="254" y="525" type="line"/>
      <point x="419" y="561" type="line"/>
    </contour>
    <contour>
      <point x="47" y="643" type="line"/>
      <point x="20" y="561" type="line"/>
      <point x="184" y="525" type="line"/>
      <point x="219" y="543" type="line"/>
      <point x="202" y="576" type="line"/>
    </contour>
    <contour>
      <point x="219" y="543" type="line"/>
      <point x="181" y="538" type="line"/>
      <point x="69" y="411" type="line"/>
      <point x="141" y="359" type="line"/>
      <point x="226" y="504" type="line"/>
    </contour>
  </outline>
</glyph>
<glyph name="seven" format="2">
  <advance width="444"/>
  <unicode hex="0037"/>
  <outline>
    <contour>
      <point x="414" y="669" type="line"/>
      <point x="25" y="669" type="line"/>
      <point x="25" y="594" type="line"/>
      <point x="321" y="594" type="line"/>
      <point x="80" y="18" type="line"/>
      <point x="164" y="-10" type="line"/>
      <point x="414" y="600" type="line"/>
    </contour>
  </outline>
</glyph>
<glyph name="A" format="2">
  <advance width="573"/>
  <unicode hex="0041"/>
  <anchor x="287" y="0" name="bottom"/>
  <anchor x="537" y="0" name="ogonek"/>
  <anchor x="287" y="689" name="top"/>
  <anchor x="170" y="689" name="topleft"/>
  <outline>
    <contour>
      <point x="347" y="689" type="line"/>
      <point x="227" y="689" type="line"/>
      <point x="6" y="0" type="line"/>
      <point x="102" y="0" type="line"/>
      <point x="285" y="610" type="line"/>
      <point x="467" y="0" type="line"/>
      <point x="567" y="0" type="line"/>
    </contour>
    <contour>
      <point x="407" y="250" type="line"/>
      <point x="162" y="250" type="line"/>
      <point x="139" y="173" type="line"/>
      <point x="430" y="173" type="line"/>
    </contour>
  </outline>
</glyph>
<glyph name="E" format="2">
  <advance width="535"/>
  <unicode hex="0045"/>
  <anchor x="291" y="0" name="bottom"/>
  <anchor x="451" y="0" name="ogonek"/>
  <anchor x="290" y="689" name="top"/>
  <anchor x="90" y="689" name="topleft"/>
  <outline>
    <contour>
      <point x="473" y="689" type="line"/>
      <point x="100" y="689" type="line"/>
      <point x="100" y="0" type="line"/>
      <point x="481" y="0" type="line"/>
      <point x="481" y="76" type="line"/>
      <point x="195" y="76" type="line"/>
      <point x="195" y="312" type="line"/>
      <point x="427" y="312" type="line"/>
      <point x="427" y="388" type="line"/>
      <point x="195" y="388" type="line"/>
      <point x="195" y="613" type="line"/>
      <point x="462" y="613" type="line"/>
    </contour>
  </outline>
</glyph>
<glyph name="F" format="2">
  <advance width="491"/>
  <unicode hex="0046"/>
  <anchor x="245.5" y="0" name="bottom"/>
  <anchor x="293" y="689" name="top"/>
  <outline>
    <contour>
      <point x="466" y="689" type="line"/>
      <point x="100" y="689" type="line"/>
      <point x="100" y="0" type="line"/>
      <point x="195" y="0" type="line"/>
      <point x="195" y="303" type="line"/>
      <point x="420" y="303" type="line"/>
      <point x="420" y="378" type="line"/>
      <point x="195" y="378" type="line"/>
      <point x="195" y="613" type="line"/>
      <point x="455" y="613" type="line"/>
    </contour>
  </outline>
</glyph>
<glyph name="H" format="2">
  <advance width="680"/>
  <unicode hex="0048"/>
  <anchor x="340" y="0" name="bottom"/>
  <anchor x="590" y="0" name="bottomright"/>
  <anchor x="340" y="345" name="center"/>
  <anchor x="340" y="689" name="top"/>
  <anchor x="90" y="689" name="topleft"/>
  <outline>
    <contour>
      <point x="485" y="0" type="line"/>
      <point x="580" y="0" type="line"/>
      <point x="580" y="689" type="line"/>
      <point x="485" y="689" type="line"/>
      <point x="485" y="401" type="line"/>
      <point x="195" y="401" type="line"/>
      <point x="195" y="689" type="line"/>
      <point x="100" y="689" type="line"/>
      <point x="100" y="0" type="line"/>
      <point x="195" y="0" type="line"/>
      <point x="195" y="323" type="line"/>
      <point x="485" y="323" type="line"/>
    </contour>
  </outline>
</glyph>
<glyph name="I" format="2">
  <advance width="295"/>
  <unicode hex="0049"/>
  <anchor x="147" y="0" name="bottom"/>
  <anchor x="205" y="0" name="ogonek"/>
  <anchor x="147" y="689" name="top"/>
  <anchor x="90" y="689" name="topleft"/>
  <outline>
    <contour>
      <point x="195" y="689" type="line"/>
      <point x="100" y="689" type="line"/>
      <point x="100" y="0" type="line"/>
      <point x="195" y="0" type="line"/>
    </contour>
  </outline>
</glyph>
<glyph name="J" format="2">
  <advance width="305"/>
  <unicode hex="004A"/>
  <anchor x="152.5" y="-202" name="bottom"/>
  <anchor x="163" y="689" name="top"/>
  <outline>
    <contour>
      <point x="210" y="689" type="line"/>
      <point x="115" y="689" type="line"/>
      <point x="115" y="100" type="line" smooth="yes"/>
      <point x="115" y="8"/>
      <point x="96" y="-32"/>
      <point x="5" y="-68" type="curve"/>
      <point x="30" y="-137" type="line"/>
      <point x="141" y="-102"/>
      <point x="210" y="-48"/>
      <point x="210" y="96" type="curve" smooth="yes"/>
    </contour>
  </outline>
</glyph>
<glyph name="M" format="2">
  <advance width="796"/>
  <unicode hex="004D"/>
  <anchor x="398" y="0" name="bottom"/>
  <anchor x="726" y="0" name="bottomright"/>
  <anchor x="389" y="689" name="top"/>
  <outline>
    <contour>
      <point x="659" y="689" type="line"/>
      <point x="530" y="689" type="line"/>
      <point x="392" y="188" type="line"/>
      <point x="247" y="689" type="line"/>
      <point x="119" y="689" type="line"/>
      <point x="62" y="0" type="line"/>
      <point x="152" y="0" type="line"/>
      <point x="175" y="304" type="line" smooth="yes"/>
      <point x="183" y="405"/>
      <point x="188" y="512"/>
      <point x="188" y="593" type="curve"/>
      <point x="345" y="78" type="line"/>
      <point x="434" y="78" type="line"/>
      <point x="583" y="592" type="line"/>
      <point x="584" y="535"/>
      <point x="591" y="419"/>
      <point x="600" y="311" type="curve" smooth="yes"/>
      <point x="624" y="0" type="line"/>
      <point x="716" y="0" type="line"/>
    </contour>
  </outline>
</glyph>
<glyph name="P" format="2">
  <advance width="581"/>
  <unicode hex="0050"/>
  <anchor x="291" y="0" name="bottom"/>
  <anchor x="291" y="689" name="top"/>
  <anchor x="90" y="689" name="topleft"/>
  <outline>
    <contour>
      <point x="195" y="0" type="line"/>
      <point x="195" y="615" type="line"/>
      <point x="280" y="615" type="line" smooth="yes"/>
      <point x="382" y="615"/>
      <point x="448" y="578"/>
      <point x="448" y="475" type="curve" smooth="yes"/>
      <point x="448" y="358"/>
      <point x="380" y="328"/>
      <point x="278" y="328" type="curve" smooth="yes"/>
      <point x="179" y="328" type="line"/>
      <point x="179" y="253" type="line"/>
      <point x="282" y="253" type="line" smooth="yes"/>
      <point x="434" y="253"/>
      <point x="549" y="318"/>
      <point x="549" y="476" type="curve" smooth="yes"/>
      <point x="549" y="621"/>
      <point x="447" y="689"/>
      <point x="281" y="689" type="curve" smooth="yes"/>
      <point x="100" y="689" type="line"/>
      <point x="100" y="0" type="line"/>
    </contour>
  </outline>
</glyph>
<glyph name="T" format="2">
  <advance width="517"/>
  <unicode hex="0054"/>
  <anchor x="259" y="0" name="bottom"/>
  <anchor x="316" y="0" name="bottomright"/>
  <anchor x="259" y="345" name="center"/>
  <anchor x="259" y="689" name="top"/>
  <outline>
    <contour>
      <point x="507" y="689" type="line"/>
      <point x="15" y="689" type="line"/>
      <point x="15" y="608" type="line"/>
      <point x="211" y="608" type="line"/>
      <point x="211" y="0" type="line"/>
      <point x="306" y="0" type="line"/>
      <point x="306" y="608" type="line"/>
      <point x="497" y="608" type="line"/>
    </contour>
  </outline>
</glyph>
<glyph name="U" format="2">
  <advance width="662"/>
  <unicode hex="0055"/>
  <anchor x="331" y="0" name="bottom"/>
  <anchor x="428" y="0" name="ogonek"/>
  <anchor x="331" y="689" name="top"/>
  <anchor x="582" y="689" name="topright"/>
  <outline>
    <contour>
      <point x="572" y="689" type="line"/>
      <point x="476" y="689" type="line"/>
      <point x="476" y="228" type="line" smooth="yes"/>
      <point x="476" y="121"/>
      <point x="429" y="68"/>
      <point x="330" y="68" type="curve" smooth="yes"/>
      <point x="232" y="68"/>
      <point x="185" y="121"/>
      <point x="185" y="228" type="curve" smooth="yes"/>
      <point x="185" y="689" type="line"/>
      <point x="90" y="689" type="line"/>
      <point x="90" y="221" type="line" smooth="yes"/>
      <point x="90" y="84"/>
      <point x="173" y="-12"/>
      <point x="330" y="-12" type="curve" smooth="yes"/>
      <point x="485" y="-12"/>
      <point x="572" y="84"/>
      <point x="572" y="221" type="curve" smooth="yes"/>
    </contour>
  </outline>
</glyph>
<glyph name="V" format="2">
  <advance width="556"/>
  <unicode hex="0056"/>
  <anchor x="278" y="0" name="bottom"/>
  <anchor x="278" y="689" name="top"/>
  <outline>
    <contour>
      <point x="550" y="689" type="line"/>
      <point x="454" y="689" type="line"/>
      <point x="281" y="103" type="line"/>
      <point x="108" y="689" type="line"/>
      <point x="6" y="689" type="line"/>
      <point x="228" y="0" type="line"/>
      <point x="330" y="0" type="line"/>
    </contour>
  </outline>
</glyph>
<glyph name="W" format="2">
  <advance width="826"/>
  <unicode hex="0057"/>
  <anchor x="413" y="0" name="bottom"/>
  <anchor x="413" y="689" name="top"/>
  <outline>
    <contour>
      <point x="801" y="689" type="line"/>
      <point x="714" y="689" type="line"/>
      <point x="599" y="83" type="line"/>
      <point x="463" y="689" type="line"/>
      <point x="362" y="689" type="line"/>
      <point x="229" y="83" type="line"/>
      <point x="118" y="689" type="line"/>
      <point x="25" y="689" type="line"/>
      <point x="165" y="0" type="line"/>
      <point x="284" y="0" type="line"/>
      <point x="412" y="577" type="line"/>
      <point x="539" y="0" type="line"/>
      <point x="661" y="0" type="line"/>
    </contour>
  </outline>
</glyph>
<glyph name="Z" format="2">
  <advance width="522"/>
  <unicode hex="005A"/>
  <anchor x="258" y="0" name="bottom"/>
  <anchor x="272" y="689" name="top"/>
  <outline>
    <contour>
      <point x="477" y="689" type="line"/>
      <point x="66" y="689" type="line"/>
      <point x="66" y="609" type="line"/>
      <point x="374" y="609" type="line"/>
      <point x="30" y="76" type="line"/>
      <point x="30" y="0" type="line"/>
      <point x="466" y="0" type="line"/>
      <point x="477" y="81" type="line"/>
      <point x="136" y="81" type="line"/>
      <point x="477" y="612" type="line"/>
    </contour>
  </outline>
</glyph>
<glyph name="bracketleft" format="2">
  <advance width="322"/>
  <unicode hex="005B"/>
  <outline>
    <contour>
      <point x="272" y="816" type="line"/>
      <point x="65" y="816" type="line"/>
      <point x="65" y="-116" type="line"/>
      <point x="272" y="-116" type="line"/>
      <point x="272" y="-40" type="line"/>
      <point x="152" y="-40" type="line"/>
      <point x="152" y="739" type="line"/>
      <point x="272" y="739" type="line"/>
    </contour>
  </outline>
</glyph>
<glyph name="asciicircum" format="2">
  <advance width="540"/>
  <unicode hex="005E"/>
  <outline>
    <contour>
      <point x="311" y="840" type="line"/>
      <point x="229" y="840" type="line"/>
      <point x="40" y="527" type="line"/>
      <point x="137" y="527" type="line"/>
      <point x="269" y="760" type="line"/>
      <point x="402" y="527" type="line"/>
      <point x="500" y="527" type="line"/>
    </contour>
  </outline>
</glyph>
<glyph name="grave" format="2">
  <advance width="300"/>
  <unicode hex="0060"/>
  <outline>
    <contour>
      <point x="71" y="801" type="line"/>
      <point x="30" y="724" type="line"/>
      <point x="242" y="638" type="line"/>
      <point x="270" y="687" type="line"/>
    </contour>
  </outline>
</glyph>
<glyph name="c" format="2">
  <advance width="478"/>
  <unicode hex="0063"/>
  <anchor x="284" y="0" name="bottom"/>
  <anchor x="289" y="527" name="top"/>
  <outline>
    <contour>
      <point x="287" y="539" type="curve" smooth="yes"/>
      <point x="144" y="539"/>
      <point x="57" y="427"/>
      <point x="57" y="259" type="curve" smooth="yes"/>
      <point x="57" y="89"/>
      <point x="145" y="-12"/>
      <point x="287" y="-12" type="curve" smooth="yes"/>
      <point x="348" y="-12"/>
      <point x="401" y="8"/>
      <point x="448" y="46" type="curve"/>
      <point x="406" y="106" type="line"/>
      <point x="366" y="80"/>
      <point x="335" y="66"/>
      <point x="291" y="66" type="curve" smooth="yes"/>
      <point x="208" y="66"/>
      <point x="156" y="123"/>
      <point x="156" y="261" type="curve" smooth="yes"/>
      <point x="156" y="398"/>
      <point x="208" y="463"/>
      <point x="291" y="463" type="curve" smooth="yes"/>
      <point x="335" y="463"/>
      <point x="368" y="450"/>
      <point x="404" y="424" type="curve"/>
      <point x="448" y="482" type="line"/>
      <point x="399" y="523"/>
      <point x="349" y="539"/>
    </contour>
  </outline>
</glyph>
<glyph name="h" format="2">
  <advance width="586"/>
  <unicode hex="0068"/>
  <anchor x="296" y="0" name="bottom"/>
  <anchor x="292" y="264" name="center"/>
  <anchor x="292" y="739" name="top"/>
  <outline>
    <contour>
      <point x="343" y="539" type="curve" smooth="yes"/>
      <point x="267" y="539"/>
      <point x="209" y="495"/>
      <point x="171" y="430" type="curve"/>
      <point x="187" y="375" type="line"/>
      <point x="222" y="430"/>
      <point x="263" y="467"/>
      <point x="320" y="467" type="curve" smooth="yes"/>
      <point x="370" y="467"/>
      <point x="404" y="444"/>
      <point x="404" y="365" type="curve" smooth="yes"/>
      <point x="404" y="0" type="line"/>
      <point x="496" y="0" type="line"/>
      <point x="496" y="378" type="line" smooth="yes"/>
      <point x="496" y="477"/>
      <point x="439" y="539"/>
    </contour>
    <contour>
      <point x="187" y="748" type="line"/>
      <point x="95" y="738" type="line"/>
      <point x="95" y="0" type="line"/>
      <point x="187" y="0" type="line"/>
    </contour>
  </outline>
</glyph>
<glyph name="l" format="2">
  <advance width="293"/>
  <unicode hex="006C"/>
  <anchor x="178" y="0" name="bottom"/>
  <anchor x="297" y="380" name="center"/>
  <anchor x="136" y="739" name="top"/>
  <anchor x="193" y="739" name="topright"/>
  <outline>
    <contour>
      <point x="200" y="-12" type="curve"/>
      <point x="227" y="-12"/>
      <point x="253" y="-5"/>
      <point x="273" y="6" type="curve"/>
      <point x="249" y="70" type="line"/>
      <point x="239" y="66"/>
      <point x="228" y="64"/>
      <point x="215" y="64" type="curve" smooth="yes"/>
      <point x="191" y="64"/>
      <point x="182" y="78"/>
      <point x="182" y="106" type="curve" smooth="yes"/>
      <point x="182" y="750" type="line"/>
      <point x="90" y="739" type="line"/>
      <point x="90" y="104" type="line" smooth="yes"/>
      <point x="90" y="29"/>
      <point x="133" y="-12"/>
    </contour>
  </outline>
</glyph>
<glyph name="n" format="2">
  <advance width="586"/>
  <unicode hex="006E"/>
  <anchor x="293" y="0" name="bottom"/>
  <anchor x="298" y="527" name="top"/>
  <anchor x="85" y="527" name="topleft"/>
  <outline>
    <contour>
      <point x="343" y="539" type="curve" smooth="yes"/>
      <point x="267" y="539"/>
      <point x="207" y="495"/>
      <point x="171" y="432" type="curve"/>
      <point x="187" y="374" type="line"/>
      <point x="222" y="430"/>
      <point x="262" y="467"/>
      <point x="321" y="467" type="curve" smooth="yes"/>
      <point x="372" y="467"/>
      <point x="404" y="444"/>
      <point x="404" y="365" type="curve" smooth="yes"/>
      <point x="404" y="0" type="line"/>
      <point x="496" y="0" type="line"/>
      <point x="496" y="378" type="line" smooth="yes"/>
      <point x="496" y="478"/>
      <point x="440" y="539"/>
    </contour>
    <contour>
      <point x="174" y="527" type="line"/>
      <point x="95" y="527" type="line"/>
      <point x="95" y="0" type="line"/>
      <point x="187" y="0" type="line"/>
      <point x="187" y="398" type="line"/>
    </contour>
  </outline>
</glyph>
<glyph name="o" format="2">
  <advance width="584"/>
  <unicode hex="006F"/>
  <anchor x="292" y="0" name="bottom"/>
  <anchor x="380" y="0" name="ogonek"/>
  <anchor x="292" y="527" name="top"/>
  <anchor x="476" y="527" name="topright"/>
  <outline>
    <contour>
      <point x="293" y="539" type="curve" smooth="yes"/>
      <point x="143" y="539"/>
      <point x="57" y="426"/>
      <point x="57" y="263" type="curve" smooth="yes"/>
      <point x="57" y="96"/>
      <point x="142" y="-12"/>
      <point x="292" y="-12" type="curve" smooth="yes"/>
      <point x="441" y="-12"/>
      <point x="527" y="101"/>
      <point x="527" y="264" type="curve" smooth="yes"/>
      <point x="527" y="431"/>
      <point x="443" y="539"/>
    </contour>
    <contour>
      <point x="293" y="465" type="curve" smooth="yes"/>
      <point x="380" y="465"/>
      <point x="428" y="401"/>
      <point x="428" y="264" type="curve" smooth="yes"/>
      <point x="428" y="126"/>
      <point x="380" y="62"/>
      <point x="292" y="62" type="curve" smooth="yes"/>
      <point x="204" y="62"/>
      <point x="156" y="126"/>
      <point x="156" y="263" type="curve" smooth="yes"/>
      <point x="156" y="401"/>
      <point x="205" y="465"/>
    </contour>
  </outline>
</glyph>
<glyph name="r" format="2">
  <advance width="386"/>
  <unicode hex="0072"/>
  <anchor x="141" y="0" name="bottom"/>
  <anchor x="238" y="527" name="top"/>
  <outline>
    <contour>
      <point x="324" y="539" type="curve" smooth="yes"/>
      <point x="257" y="539"/>
      <point x="206" y="495"/>
      <point x="179" y="407" type="curve"/>
      <point x="182" y="275" type="line"/>
      <point x="203" y="394"/>
      <point x="242" y="449"/>
      <point x="313" y="449" type="curve" smooth="yes"/>
      <point x="332" y="449"/>
      <point x="343" y="447"/>
      <point x="359" y="443" type="curve"/>
      <point x="376" y="533" type="line"/>
      <point x="360" y="537"/>
      <point x="341" y="539"/>
    </contour>
    <contour>
      <point x="174" y="527" type="line"/>
      <point x="95" y="527" type="line"/>
      <point x="95" y="0" type="line"/>
      <point x="187" y="0" type="line"/>
      <point x="187" y="315" type="line"/>
      <point x="184" y="410" type="line"/>
    </contour>
  </outline>
</glyph>
<glyph name="v" format="2">
  <advance width="492"/>
  <unicode hex="0076"/>
  <anchor x="248" y="0" name="bottom"/>
  <anchor x="248" y="527" name="top"/>
  <outline>
    <contour>
      <point x="482" y="527" type="line"/>
      <point x="385" y="527" type="line"/>
      <point x="248" y="82" type="line"/>
      <point x="110" y="527" type="line"/>
      <point x="10" y="527" type="line"/>
      <point x="192" y="0" type="line"/>
      <point x="303" y="0" type="line"/>
    </contour>
  </outline>
</glyph>
<glyph name="w" format="2">
  <advance width="717"/>
  <unicode hex="0077"/>
  <anchor x="359" y="0" name="bottom"/>
  <anchor x="359" y="527" name="top"/>
  <outline>
    <contour>
      <point x="697" y="527" type="line"/>
      <point x="609" y="527" type="line"/>
      <point x="513" y="64" type="line"/>
      <point x="414" y="527" type="line"/>
      <point x="311" y="527" type="line"/>
      <point x="207" y="64" type="line"/>
      <point x="112" y="527" type="line"/>
      <point x="20" y="527" type="line"/>
      <point x="143" y="0" type="line"/>
      <point x="265" y="0" type="line"/>
      <point x="360" y="444" type="line"/>
      <point x="452" y="0" type="line"/>
      <point x="577" y="0" type="line"/>
    </contour>
  </outline>
</glyph>
<glyph name="x" format="2">
  <advance width="485"/>
  <unicode hex="0078"/>
  <anchor x="239" y="0" name="bottom"/>
  <anchor x="436" y="0" name="bottomright"/>
  <anchor x="245" y="527" name="top"/>
  <outline>
    <contour>
      <point x="134" y="527" type="line"/>
      <point x="26" y="527" type="line"/>
      <point x="189" y="278" type="line"/>
      <point x="240" y="223" type="line"/>
      <point x="369" y="0" type="line"/>
      <point x="480" y="0" type="line"/>
      <point x="297" y="282" type="line"/>
      <point x="244" y="334" type="line"/>
    </contour>
    <contour>
      <point x="459" y="527" type="line"/>
      <point x="355" y="527" type="line"/>
      <point x="244" y="334" type="line"/>
      <point x="189" y="278" type="line"/>
      <point x="5" y="0" type="line"/>
      <point x="109" y="0" type="line"/>
      <point x="240" y="223" type="line"/>
      <point x="297" y="282" type="line"/>
    </contour>
  </outline>
</glyph>
<glyph name="y" format="2">
  <advance width="492"/>
  <unicode hex="0079"/>
  <anchor x="249" y="-202" name="bottom"/>
  <anchor x="246" y="527" name="top"/>
  <outline>
    <contour>
      <point x="482" y="527" type="line"/>
      <point x="387" y="527" type="line"/>
      <point x="249" y="67" type="line"/>
      <point x="108" y="527" type="line"/>
      <point x="10" y="527" type="line"/>
      <point x="187" y="0" type="line"/>
      <point x="218" y="0" type="line"/>
      <point x="188" y="-82"/>
      <point x="158" y="-123"/>
      <point x="51" y="-141" type="curve"/>
      <point x="61" y="-213" type="line"/>
      <point x="207" y="-197"/>
      <point x="269" y="-115"/>
      <point x="306" y="-3" type="curve" smooth="yes"/>
    </contour>
  </outline>
</glyph>
<glyph name="z" format="2">
  <advance width="437"/>
  <unicode hex="007A"/>
  <anchor x="215" y="0" name="bottom"/>
  <anchor x="219" y="527" name="top"/>
  <outline>
    <contour>
      <point x="404" y="527" type="line"/>
      <point x="48" y="527" type="line"/>
      <point x="48" y="449" type="line"/>
      <point x="299" y="449" type="line"/>
      <point x="25" y="69" type="line"/>
      <point x="25" y="0" type="line"/>
      <point x="396" y="0" type="line"/>
      <point x="407" y="77" type="line"/>
      <point x="129" y="77" type="line"/>
      <point x="404" y="457" type="line"/>
    </contour>
  </outline>
</glyph>
<glyph name="cent" format="2">
  <advance width="478"/>
  <unicode hex="00A2"/>
  <anchor x="289" y="527" name="top"/>
  <anchor x="284" y="0" name="bottom"/>
  <outline>
    <contour>
      <point x="329" y="684" type="line"/>
      <point x="250" y="684" type="line"/>
      <point x="250" y="533" type="line"/>
      <point x="329" y="534" type="line"/>
    </contour>
    <contour>
      <point x="249" y="-6" type="line"/>
      <point x="249" y="-154" type="line"/>
      <point x="329" y="-154" type="line"/>
      <point x="329" y="-7" type="line"/>
    </contour>
    <component base="c"/>
  </outline>
</glyph>
<glyph name="brokenbar" format="2">
  <advance width="403"/>
  <unicode hex="00A6"/>
  <outline>
    <contour>
      <point x="243" y="807" type="line"/>
      <point x="160" y="807" type="line"/>
      <point x="160" y="443" type="line"/>
      <point x="243" y="443" type="line"/>
    </contour>
    <contour>
      <point x="243" y="262" type="line"/>
      <point x="160" y="262" type="line"/>
      <point x="160" y="-102" type="line"/>
      <point x="243" y="-102" type="line"/>
    </contour>
  </outline>
</glyph>
<glyph name="acute" format="2">
  <advance width="300"/>
  <unicode hex="00B4"/>
  <outline>
    <contour>
      <point x="229" y="801" type="line"/>
      <point x="30" y="687" type="line"/>
      <point x="58" y="638" type="line"/>
      <point x="270" y="724" type="line"/>
    </contour>
  </outline>
</glyph>
<glyph name="AE" format="2">
  <advance width="816"/>
  <unicode hex="00C6"/>
  <anchor x="408" y="0" name="bottom"/>
  <anchor x="474" y="689" name="top"/>
  <outline>
    <contour>
      <point x="721" y="689" type="line"/>
      <point x="262" y="689" type="line"/>
      <point x="-12" y="0" type="line"/>
      <point x="85" y="0" type="line"/>
      <point x="316" y="613" type="line"/>
      <point x="458" y="0" type="line"/>
      <point x="762" y="0" type="line"/>
      <point x="762" y="76" type="line"/>
      <point x="535" y="76" type="line"/>
      <point x="401" y="613" type="line"/>
      <point x="710" y="613" type="line"/>
    </contour>
    <contour>
      <point x="416" y="250" type="line"/>
      <point x="162" y="250" type="line"/>
      <point x="134" y="173" type="line"/>
      <point x="433" y="173" type="line"/>
    </contour>
    <contour>
      <point x="712" y="387" type="line"/>
      <point x="441" y="387" type="line"/>
      <point x="461" y="311" type="line"/>
      <point x="712" y="311" type="line"/>
    </contour>
  </outline>
</glyph>
<glyph name="Eth" format="2">
  <advance width="656"/>
  <unicode hex="00D0"/>
  <anchor x="315" y="689" name="top"/>
  <anchor x="335" y="345" name="center"/>
  <anchor x="312" y="0" name="bottom"/>
  <outline>
    <contour>
      <point x="364" y="388" type="line"/>
      <point x="112" y="388" type="line"/>
      <point x="20" y="388" type="line"/>
      <point x="20" y="318" type="line"/>
      <point x="364" y="318" type="line"/>
    </contour>
    <component base="D" xOffset="12"/>
  </outline>
</glyph>
<glyph name="dcroat" format="2">
  <advance width="607"/>
  <unicode hex="0111"/>
  <anchor x="301" y="739" name="top"/>
  <anchor x="303" y="264" name="center"/>
  <anchor x="513" y="739" name="topright"/>
  <anchor x="308" y="0" name="bottom"/>
  <outline>
    <contour>
      <point x="582" y="676" type="line"/>
      <point x="253" y="676" type="line"/>
      <point x="253" y="606" type="line"/>
      <point x="503" y="606" type="line"/>
      <point x="582" y="606" type="line"/>
    </contour>
    <component base="d"/>
  </outline>
</glyph>
<glyph name="Hbar" format="2">
  <advance width="688"/>
  <unicode hex="0126"/>
  <anchor x="94" y="689" name="topleft"/>
  <anchor x="344" y="689" name="top"/>
  <anchor x="344" y="345" name="center"/>
  <anchor x="594" y="0" name="bottomright"/>
  <anchor x="344" y="0" name="bottom"/>
  <outline>
    <contour>
      <point x="653" y="577" type="line"/>
      <point x="584" y="577" type="line"/>
      <point x="35" y="577" type="line"/>
      <point x="35" y="508" type="line"/>
      <point x="104" y="508" type="line"/>
      <point x="653" y="508" type="line"/>
    </contour>
    <component base="H" xOffset="4"/>
  </outline>
</glyph>
<glyph name="hbar" format="2">
  <advance width="592"/>
  <unicode hex="0127"/>
  <anchor x="298" y="739" name="top"/>
  <anchor x="298" y="264" name="center"/>
  <anchor x="302" y="0" name="bottom"/>
  <outline>
    <contour>
      <point x="344" y="676" type="line"/>
      <point x="25" y="676" type="line"/>
      <point x="25" y="606" type="line"/>
      <point x="104" y="606" type="line"/>
      <point x="344" y="606" type="line"/>
    </contour>
    <component base="h" xOffset="6"/>
  </outline>
</glyph>
<glyph name="kgreenlandic" format="2">
  <advance width="509"/>
  <unicode hex="0138"/>
  <anchor x="254.5" y="0" name="bottom"/>
  <anchor x="254.5" y="527" name="top"/>
  <outline>
    <contour>
      <point x="487" y="527" type="line"/>
      <point x="384" y="527" type="line"/>
      <point x="190" y="278" type="line"/>
      <point x="399" y="0" type="line"/>
      <point x="509" y="0" type="line"/>
      <point x="293" y="284" type="line"/>
    </contour>
    <contour>
      <point x="187" y="527" type="line"/>
      <point x="95" y="527" type="line"/>
      <point x="95" y="0" type="line"/>
      <point x="187" y="0" type="line"/>
    </contour>
  </outline>
</glyph>
<glyph name="Lslash" format="2">
  <advance width="514"/>
  <unicode hex="0141"/>
  <anchor x="164" y="689" name="top"/>
  <anchor x="406" y="390" name="center"/>
  <anchor x="231" y="689" name="topright"/>
  <anchor x="300" y="0" name="bottom"/>
  <outline>
    <contour>
      <point x="371" y="498" type="line"/>
      <point x="116" y="340" type="line"/>
      <point x="22" y="282" type="line"/>
      <point x="60" y="222" type="line"/>
      <point x="409" y="438" type="line"/>
    </contour>
    <component base="L" xOffset="16"/>
  </outline>
</glyph>
<glyph name="lslash" format="2">
  <advance width="312"/>
  <unicode hex="0142"/>
  <anchor x="142" y="739" name="top"/>
  <anchor x="303" y="380" name="center"/>
  <anchor x="199" y="739" name="topright"/>
  <anchor x="184" y="0" name="bottom"/>
  <outline>
    <contour>
      <point x="45" y="269" type="line"/>
      <point x="312" y="432" type="line"/>
      <point x="279" y="492" type="line"/>
      <point x="96" y="382" type="line"/>
      <point x="10" y="328" type="line"/>
    </contour>
    <component base="l" xOffset="6"/>
  </outline>
</glyph>
<glyph name="napostrophe" format="2">
  <advance width="695"/>
  <unicode hex="0149"/>
  <anchor x="194" y="527" name="topleft"/>
  <anchor x="407" y="527" name="top"/>
  <anchor x="402" y="0" name="bottom"/>
  <outline>
    <contour>
      <point x="103" y="753" type="curve" smooth="yes"/>
      <point x="71" y="753"/>
      <point x="45" y="729"/>
      <point x="45" y="697" type="curve" smooth="yes"/>
      <point x="45" y="678"/>
      <point x="55" y="662"/>
      <point x="69" y="650" type="curve"/>
      <point x="40" y="534" type="line"/>
      <point x="93" y="534" type="line"/>
      <point x="134" y="620" type="line" smooth="yes"/>
      <point x="155" y="664"/>
      <point x="160" y="680"/>
      <point x="160" y="697" type="curve" smooth="yes"/>
      <point x="160" y="729"/>
      <point x="135" y="753"/>
    </contour>
    <component base="n" xOffset="109"/>
  </outline>
</glyph>
<glyph name="Tbar" format="2">
  <advance width="519"/>
  <unicode hex="0166"/>
  <anchor x="259" y="687" name="top"/>
  <anchor x="259" y="343" name="center"/>
  <anchor x="316" y="-2" name="bottomright"/>
  <anchor x="259" y="-2" name="bottom"/>
  <outline>
    <contour>
      <point x="431" y="387" type="line"/>
      <point x="88" y="387" type="line"/>
      <point x="88" y="317" type="line"/>
      <point x="211" y="317" type="line"/>
      <point x="431" y="317" type="line"/>
    </contour>
    <component base="T" yOffset="-2"/>
  </outline>
</glyph>
<glyph name="tbar" format="2">
  <advance width="361"/>
  <unicode hex="0167"/>
  <anchor x="147" y="646" name="top"/>
  <anchor x="180" y="264" name="center"/>
  <anchor x="189" y="748" name="topright"/>
  <anchor x="234" y="0" name="bottom"/>
  <outline>
    <contour>
      <point x="303" y="357" type="line"/>
      <point x="101" y="357" type="line"/>
      <point x="20" y="357" type="line"/>
      <point x="20" y="286" type="line"/>
      <point x="303" y="286" type="line"/>
    </contour>
    <component base="t"/>
  </outline>
</glyph>
<glyph name="bstroke" format="2">
  <advance width="603"/>
  <unicode hex="0180"/>
  <anchor x="322" y="739" name="top"/>
  <anchor x="317" y="0" name="bottom"/>
  <outline>
    <contour>
      <point x="344" y="676" type="line"/>
      <point x="25" y="676" type="line"/>
      <point x="25" y="606" type="line"/>
      <point x="104" y="606" type="line"/>
      <point x="344" y="606" type="line"/>
    </contour>
    <component base="b" xOffset="9"/>
  </outline>
</glyph>
<glyph name="Iotaafrican" format="2">
  <advance width="366"/>
  <unicode hex="0196"/>
  <anchor x="203" y="0" name="bottom"/>
  <anchor x="138" y="689" name="top"/>
  <outline>
    <contour>
      <point x="185" y="689" type="line"/>
      <point x="90" y="689" type="line"/>
      <point x="90" y="201" type="line"/>
      <point x="185" y="201" type="line"/>
    </contour>
    <component base="hookHELPER.case" xScale="-1" xOffset="386" yOffset="201"/>
  </outline>
</glyph>
<glyph name="Vhook" format="2">
  <advance width="647"/>
  <unicode hex="01B2"/>
  <anchor x="324" y="0" name="bottom"/>
  <anchor x="324" y="689" name="top"/>
  <outline>
    <contour>
      <point x="572" y="574" type="line"/>
      <point x="476" y="573" type="line"/>
      <point x="476" y="308" type="line" smooth="yes"/>
      <point x="476" y="150"/>
      <point x="418" y="68"/>
      <point x="312" y="68" type="curve" smooth="yes"/>
      <point x="230" y="68"/>
      <point x="185" y="121"/>
      <point x="185" y="216" type="curve" smooth="yes"/>
      <point x="185" y="689" type="line"/>
      <point x="90" y="689" type="line"/>
      <point x="90" y="211" type="line" smooth="yes"/>
      <point x="90" y="84"/>
      <point x="173" y="-12"/>
      <point x="312" y="-12" type="curve" smooth="yes"/>
      <point x="470" y="-12"/>
      <point x="572" y="110"/>
      <point x="572" y="301" type="curve" smooth="yes"/>
    </contour>
    <contour>
      <point x="476" y="573" type="curve"/>
      <point x="572" y="574" type="line"/>
      <point x="572" y="660"/>
      <point x="529" y="701"/>
      <point x="453" y="701" type="curve" smooth="yes"/>
      <point x="423" y="701"/>
      <point x="397" y="694"/>
      <point x="377" y="683" type="curve"/>
      <point x="401" y="618" type="line"/>
      <point x="411" y="622"/>
      <point x="422" y="624"/>
      <point x="438" y="624" type="curve" smooth="yes"/>
      <point x="467" y="624"/>
      <point x="476" y="610"/>
    </contour>
  </outline>
</glyph>
<glyph name="Ezh" format="2">
  <advance width="516"/>
  <unicode hex="01B7"/>
  <anchor x="258" y="0" name="bottom"/>
  <anchor x="244" y="689" name="top"/>
  <outline>
    <contour>
      <point x="226" y="-12" type="curve" smooth="yes"/>
      <point x="378" y="-12"/>
      <point x="471" y="75"/>
      <point x="471" y="198" type="curve" smooth="yes"/>
      <point x="471" y="322"/>
      <point x="394" y="397"/>
      <point x="235" y="397" type="curve"/>
      <point x="207" y="397" type="line"/>
      <point x="127" y="328" type="line"/>
      <point x="215" y="328" type="line" smooth="yes"/>
      <point x="322" y="328"/>
      <point x="372" y="292"/>
      <point x="372" y="200" type="curve" smooth="yes"/>
      <point x="372" y="117"/>
      <point x="321" y="66"/>
      <point x="223" y="66" type="curve" smooth="yes"/>
      <point x="154" y="66"/>
      <point x="108" y="86"/>
      <point x="65" y="132" type="curve"/>
      <point x="10" y="78" type="line"/>
      <point x="62" y="17"/>
      <point x="129" y="-12"/>
    </contour>
    <contour>
      <point x="127" y="395" type="line"/>
      <point x="127" y="328" type="line"/>
      <point x="197" y="360" type="line"/>
      <point x="447" y="612" type="line"/>
      <point x="447" y="689" type="line"/>
      <point x="41" y="689" type="line"/>
      <point x="41" y="611" type="line"/>
      <point x="335" y="611" type="line"/>
    </contour>
  </outline>
</glyph>
<glyph name="ezhreversed" format="2">
  <advance width="481"/>
  <unicode hex="01B9"/>
  <anchor x="240.5" y="-202" name="bottom"/>
  <anchor x="240.5" y="527" name="top"/>
  <outline>
    <contour>
      <point x="267" y="-213" type="curve" smooth="yes"/>
      <point x="362" y="-213"/>
      <point x="427" y="-182"/>
      <point x="481" y="-123" type="curve"/>
      <point x="429" y="-74" type="line"/>
      <point x="381" y="-118"/>
      <point x="336" y="-138"/>
      <point x="269" y="-138" type="curve" smooth="yes"/>
      <point x="179" y="-138"/>
      <point x="129" y="-87"/>
      <point x="129" y="-4" type="curve" smooth="yes"/>
      <point x="129" y="92"/>
      <point x="174" y="138"/>
      <point x="285" y="138" type="curve" smooth="yes"/>
      <point x="364" y="138" type="line"/>
      <point x="289" y="206" type="line"/>
      <point x="265" y="206" type="line"/>
      <point x="117" y="206"/>
      <point x="30" y="127"/>
      <point x="30" y="-6" type="curve" smooth="yes"/>
      <point x="30" y="-126"/>
      <point x="126" y="-213"/>
    </contour>
    <contour>
      <point x="364" y="205" type="line"/>
      <point x="161" y="451" type="line"/>
      <point x="450" y="451" type="line"/>
      <point x="450" y="527" type="line"/>
      <point x="54" y="527" type="line"/>
      <point x="54" y="457" type="line"/>
      <point x="299" y="169" type="line"/>
      <point x="364" y="138" type="line"/>
    </contour>
  </outline>
</glyph>
<glyph name="tonefive" format="2">
  <advance width="452"/>
  <unicode hex="01BD"/>
  <anchor x="226" y="0" name="bottom"/>
  <anchor x="226" y="527" name="top"/>
  <outline>
    <contour>
      <point x="381" y="527" type="line"/>
      <point x="66" y="527" type="line"/>
      <point x="66" y="250" type="line"/>
      <point x="131" y="250" type="line"/>
      <point x="164" y="265"/>
      <point x="183" y="271"/>
      <point x="222" y="271" type="curve" smooth="yes"/>
      <point x="272" y="271"/>
      <point x="313" y="244"/>
      <point x="313" y="174" type="curve" smooth="yes"/>
      <point x="313" y="103"/>
      <point x="267" y="67"/>
      <point x="205" y="67" type="curve" smooth="yes"/>
      <point x="148" y="67"/>
      <point x="120" y="83"/>
      <point x="80" y="114" type="curve"/>
      <point x="30" y="59" type="line"/>
      <point x="75" y="16"/>
      <point x="126" y="-12"/>
      <point x="206" y="-12" type="curve" smooth="yes"/>
      <point x="332" y="-12"/>
      <point x="412" y="63"/>
      <point x="412" y="172" type="curve" smooth="yes"/>
      <point x="412" y="278"/>
      <point x="341" y="346"/>
      <point x="248" y="346" type="curve" smooth="yes"/>
      <point x="202" y="346"/>
      <point x="178" y="336"/>
      <point x="157" y="326" type="curve"/>
      <point x="157" y="451" type="line"/>
      <point x="365" y="451" type="line"/>
    </contour>
  </outline>
</glyph>
<glyph name="glottalinvertedstroke" format="2">
  <advance width="513"/>
  <unicode hex="01BE"/>
  <anchor x="211" y="739" name="top"/>
  <anchor x="231" y="0" name="bottom"/>
  <outline>
    <contour>
      <point x="84" y="615" type="line"/>
      <point x="84" y="545" type="line"/>
      <point x="162" y="545" type="line"/>
      <point x="362" y="545" type="line"/>
      <point x="362" y="615" type="line"/>
    </contour>
    <component base="glottalstopinverted"/>
  </outline>
</glyph>
<glyph name="clickdental" format="2">
  <advance width="286"/>
  <unicode hex="01C0"/>
  <outline>
    <contour>
      <point x="186" y="749" type="line"/>
      <point x="100" y="739" type="line"/>
      <point x="100" y="0" type="line"/>
      <point x="186" y="0" type="line"/>
    </contour>
  </outline>
</glyph>
<glyph name="dotlessj" format="2">
  <advance width="280"/>
  <unicode hex="0237"/>
  <anchor x="139" y="-202" name="bottom"/>
  <anchor x="140" y="527" name="top"/>
  <outline>
    <contour>
      <point x="185" y="527" type="line"/>
      <point x="93" y="527" type="line"/>
      <point x="93" y="26" type="line" smooth="yes"/>
      <point x="93" y="-87"/>
      <point x="60" y="-113"/>
      <point x="-9" y="-145" type="curve"/>
      <point x="18" y="-212" type="line"/>
      <point x="130" y="-162"/>
      <point x="185" y="-117"/>
      <point x="185" y="32" type="curve" smooth="yes"/>
    </contour>
  </outline>
</glyph>
<glyph name="Astroke" format="2">
  <advance width="573"/>
  <unicode hex="023A"/>
  <anchor x="286.5" y="0" name="bottom"/>
  <anchor x="286.5" y="689" name="top"/>
  <outline>
    <contour>
      <point x="384" y="750" type="line"/>
      <point x="169" y="-59" type="line"/>
      <point x="214" y="-70" type="line"/>
      <point x="429" y="739" type="line"/>
    </contour>
    <contour>
      <point x="347" y="689" type="line"/>
      <point x="227" y="689" type="line"/>
      <point x="6" y="0" type="line"/>
      <point x="99" y="0" type="line"/>
      <point x="285" y="620" type="line"/>
      <point x="470" y="0" type="line"/>
      <point x="567" y="0" type="line"/>
    </contour>
    <contour>
      <point x="407" y="247" type="line"/>
      <point x="162" y="247" type="line"/>
      <point x="139" y="173" type="line"/>
      <point x="430" y="173" type="line"/>
    </contour>
  </outline>
</glyph>
<glyph name="Cstroke" format="2">
  <advance width="560"/>
  <unicode hex="023B"/>
  <anchor x="280" y="0" name="bottom"/>
  <anchor x="280" y="689" name="top"/>
  <anchor x="341" y="346" name="center"/>
  <outline>
    <contour>
      <point x="419" y="750" type="line"/>
      <point x="204" y="-59" type="line"/>
      <point x="249" y="-70" type="line"/>
      <point x="464" y="739" type="line"/>
    </contour>
    <component base="C"/>
  </outline>
</glyph>
<glyph name="cstroke" format="2">
  <advance width="478"/>
  <unicode hex="023C"/>
  <anchor x="289" y="527" name="top"/>
  <anchor x="284" y="0" name="bottom"/>
  <outline>
    <contour>
      <point x="343" y="595" type="line"/>
      <point x="164" y="-59" type="line"/>
      <point x="207" y="-70" type="line"/>
      <point x="386" y="584" type="line"/>
    </contour>
    <component base="c"/>
  </outline>
</glyph>
<glyph name="Ubar" format="2">
  <advance width="690"/>
  <unicode hex="0244"/>
  <anchor x="345" y="689" name="top"/>
  <anchor x="442" y="0" name="ogonek"/>
  <anchor x="596" y="689" name="topright"/>
  <anchor x="345" y="0" name="bottom"/>
  <outline>
    <contour>
      <point x="655" y="577" type="line"/>
      <point x="586" y="577" type="line"/>
      <point x="35" y="577" type="line"/>
      <point x="35" y="508" type="line"/>
      <point x="104" y="508" type="line"/>
      <point x="655" y="508" type="line"/>
    </contour>
    <component base="U" xOffset="14"/>
  </outline>
</glyph>
<glyph name="Ystroke" format="2">
  <advance width="550"/>
  <unicode hex="024E"/>
  <anchor x="275" y="0" name="bottom"/>
  <anchor x="275" y="689" name="top"/>
  <outline>
    <contour>
      <point x="545" y="604" type="line"/>
      <point x="501" y="604" type="line"/>
      <point x="50" y="604" type="line"/>
      <point x="10" y="604" type="line"/>
      <point x="10" y="535" type="line"/>
      <point x="545" y="535" type="line"/>
    </contour>
    <contour>
      <point x="545" y="689" type="line"/>
      <point x="446" y="689" type="line"/>
      <point x="278" y="348" type="line"/>
      <point x="110" y="689" type="line"/>
      <point x="5" y="689" type="line"/>
      <point x="227" y="264" type="line"/>
      <point x="227" y="0" type="line"/>
      <point x="323" y="0" type="line"/>
      <point x="323" y="265" type="line"/>
    </contour>
  </outline>
</glyph>
<glyph name="ystroke" format="2">
  <advance width="502"/>
  <unicode hex="024F"/>
  <anchor x="251" y="527" name="top"/>
  <anchor x="254" y="-202" name="bottom"/>
  <outline>
    <contour>
      <point x="17" y="321" type="line"/>
      <point x="484" y="321" type="line"/>
      <point x="484" y="387" type="line"/>
      <point x="439" y="387" type="line"/>
      <point x="62" y="387" type="line"/>
      <point x="17" y="387" type="line"/>
    </contour>
    <component base="y" xOffset="5"/>
  </outline>
</glyph>
<glyph name="Ismall" format="2">
  <advance width="333"/>
  <unicode hex="026A"/>
  <anchor x="167" y="0" name="bottom"/>
  <anchor x="167" y="527" name="top"/>
  <outline>
    <contour>
      <point x="120" y="0" type="line"/>
      <point x="212" y="0" type="line"/>
      <point x="212" y="527" type="line"/>
      <point x="120" y="527" type="line"/>
    </contour>
    <contour>
      <point x="25" y="0" type="line"/>
      <point x="308" y="0" type="line"/>
      <point x="308" y="72" type="line"/>
      <point x="25" y="72" type="line"/>
    </contour>
    <contour>
      <point x="25" y="455" type="line"/>
      <point x="308" y="455" type="line"/>
      <point x="308" y="527" type="line"/>
      <point x="25" y="527" type="line"/>
    </contour>
  </outline>
</glyph>
<glyph name="lhookretroflex" format="2">
  <advance width="282"/>
  <unicode hex="026D"/>
  <anchor x="243" y="-202" name="bottom"/>
  <anchor x="141" y="739" name="top"/>
  <outline>
    <contour>
      <point x="95" y="0" type="line"/>
      <point x="187" y="0" type="line"/>
      <point x="187" y="750" type="line"/>
      <point x="95" y="739" type="line"/>
    </contour>
    <component base="hookHELPER" xScale="-1" xOffset="391"/>
  </outline>
</glyph>
<glyph name="lezh" format="2">
  <advance width="661"/>
  <unicode hex="026E"/>
  <anchor x="384" y="-202" name="bottom"/>
  <anchor x="376" y="739" name="top"/>
  <anchor x="193" y="739" name="topright"/>
  <anchor x="297" y="380" name="center"/>
  <outline>
    <contour>
      <point x="391" y="-213" type="curve" smooth="yes"/>
      <point x="536" y="-213"/>
      <point x="631" y="-125"/>
      <point x="631" y="4" type="curve" smooth="yes"/>
      <point x="631" y="138"/>
      <point x="547" y="206"/>
      <point x="396" y="206" type="curve"/>
      <point x="372" y="206" type="line"/>
      <point x="297" y="138" type="line"/>
      <point x="376" y="138" type="line" smooth="yes"/>
      <point x="487" y="138"/>
      <point x="532" y="102"/>
      <point x="532" y="6" type="curve" smooth="yes"/>
      <point x="532" y="-87"/>
      <point x="481" y="-138"/>
      <point x="388" y="-138" type="curve" smooth="yes"/>
      <point x="326" y="-138"/>
      <point x="283" y="-119"/>
      <point x="237" y="-79" type="curve"/>
      <point x="186" y="-130" type="line"/>
      <point x="237" y="-184"/>
      <point x="302" y="-213"/>
    </contour>
    <contour>
      <point x="297" y="138" type="line"/>
      <point x="362" y="169" type="line"/>
      <point x="607" y="457" type="line"/>
      <point x="607" y="527" type="line"/>
      <point x="181" y="527" type="line"/>
      <point x="181" y="451" type="line"/>
      <point x="502" y="451" type="line"/>
      <point x="297" y="205" type="line"/>
    </contour>
    <component base="l"/>
  </outline>
</glyph>
<glyph name="mlonglegturned" format="2">
  <advance width="857"/>
  <unicode hex="0270"/>
  <anchor x="429" y="-202" name="bottom"/>
  <anchor x="429" y="527" name="top"/>
  <outline>
    <contour>
      <point x="670" y="109" type="line"/>
      <point x="670" y="-202" type="line"/>
      <point x="762" y="-213" type="line"/>
      <point x="762" y="109" type="line"/>
    </contour>
    <component base="mturned"/>
  </outline>
</glyph>
<glyph name="rlonglegturned" format="2">
  <advance width="386"/>
  <unicode hex="027A"/>
  <anchor x="157" y="0" name="bottom"/>
  <anchor x="245" y="739" name="top"/>
  <outline>
    <contour>
      <point x="199" y="526" type="line"/>
      <point x="291" y="526" type="line"/>
      <point x="291" y="739" type="line"/>
      <point x="199" y="750" type="line"/>
    </contour>
    <component base="rturned"/>
  </outline>
</glyph>
<glyph name="Rsmall" format="2">
  <advance width="522"/>
  <unicode hex="0280"/>
  <anchor x="261" y="0" name="bottom"/>
  <anchor x="261" y="527" name="top"/>
  <outline>
    <contour>
      <point x="238" y="527" type="curve" smooth="yes"/>
      <point x="95" y="527" type="line"/>
      <point x="95" y="0" type="line"/>
      <point x="187" y="0" type="line"/>
      <point x="187" y="457" type="line"/>
      <point x="237" y="457" type="line" smooth="yes"/>
      <point x="320" y="457"/>
      <point x="362" y="430"/>
      <point x="362" y="366" type="curve" smooth="yes"/>
      <point x="362" y="298"/>
      <point x="320" y="272"/>
      <point x="250" y="272" type="curve" smooth="yes"/>
      <point x="174" y="272" type="line"/>
      <point x="174" y="202" type="line"/>
      <point x="269" y="202" type="line"/>
      <point x="391" y="221"/>
      <point x="458" y="270"/>
      <point x="458" y="366" type="curve" smooth="yes"/>
      <point x="458" y="471"/>
      <point x="380" y="527"/>
    </contour>
    <contour>
      <point x="333" y="238" type="line"/>
      <point x="246" y="225" type="line"/>
      <point x="388" y="0" type="line"/>
      <point x="492" y="0" type="line"/>
    </contour>
  </outline>
</glyph>
<glyph name="jdotlessstrokehook" format="2">
  <advance width="313"/>
  <unicode hex="0284"/>
  <anchor x="156" y="-202" name="bottom"/>
  <anchor x="258" y="739" name="top"/>
  <outline>
    <contour>
      <point x="35" y="-212" type="line"/>
      <point x="147" y="-162"/>
      <point x="202" y="-117"/>
      <point x="202" y="32" type="curve" smooth="yes"/>
      <point x="202" y="527" type="line"/>
      <point x="110" y="527" type="line"/>
      <point x="110" y="16" type="line" smooth="yes"/>
      <point x="110" y="-87"/>
      <point x="77" y="-113"/>
      <point x="8" y="-145" type="curve"/>
    </contour>
    <contour>
      <point x="15" y="0" type="line"/>
      <point x="298" y="0" type="line"/>
      <point x="298" y="70" type="line"/>
      <point x="15" y="70" type="line"/>
    </contour>
    <component base="hookaboveHELPER2" xOffset="80"/>
  </outline>
</glyph>
<glyph name="tretroflexhook" format="2">
  <advance width="361"/>
  <unicode hex="0288"/>
  <anchor x="252" y="-202" name="bottom"/>
  <anchor x="147" y="641" name="top"/>
  <outline>
    <contour>
      <point x="101" y="0" type="line"/>
      <point x="193" y="0" type="line"/>
      <point x="193" y="657" type="line"/>
      <point x="101" y="646" type="line"/>
    </contour>
    <contour>
      <point x="9" y="456" type="line"/>
      <point x="308" y="456" type="line"/>
      <point x="318" y="527" type="line"/>
      <point x="9" y="527" type="line"/>
    </contour>
    <component base="hookHELPER" xScale="-1" xOffset="397"/>
  </outline>
</glyph>
<glyph name="ubar" format="2">
  <advance width="607"/>
  <unicode hex="0289"/>
  <anchor x="304" y="0" name="bottom"/>
  <anchor x="304" y="527" name="top"/>
  <anchor x="507" y="0" name="ogonek"/>
  <anchor x="507" y="527" name="topright"/>
  <outline>
    <contour>
      <point x="15" y="317" type="line"/>
      <point x="100" y="317" type="line"/>
      <point x="582" y="317" type="line"/>
      <point x="582" y="387" type="line"/>
      <point x="497" y="387" type="line"/>
      <point x="15" y="387" type="line"/>
    </contour>
    <component base="u" xOffset="10"/>
  </outline>
</glyph>
<glyph name="yturned" format="2">
  <advance width="492"/>
  <unicode hex="028E"/>
  <anchor x="245" y="0" name="bottom"/>
  <anchor x="248" y="739" name="top"/>
  <outline>
    <contour>
      <point x="10" y="0" type="line"/>
      <point x="105" y="0" type="line"/>
      <point x="243" y="460" type="line"/>
      <point x="384" y="0" type="line"/>
      <point x="482" y="0" type="line"/>
      <point x="305" y="527" type="line"/>
      <point x="273" y="527" type="line"/>
      <point x="303" y="624"/>
      <point x="334" y="664"/>
      <point x="441" y="682" type="curve"/>
      <point x="431" y="752" type="line"/>
      <point x="285" y="736"/>
      <point x="228" y="657"/>
      <point x="186" y="530" type="curve" smooth="yes"/>
    </contour>
  </outline>
</glyph>
<glyph name="Ysmall" format="2">
  <advance width="458"/>
  <unicode hex="028F"/>
  <anchor x="229" y="0" name="bottom"/>
  <anchor x="229" y="527" name="top"/>
  <outline>
    <contour>
      <point x="458" y="527" type="line"/>
      <point x="361" y="527" type="line"/>
      <point x="232" y="266" type="line"/>
      <point x="100" y="527" type="line"/>
      <point x="0" y="527" type="line"/>
      <point x="183" y="197" type="line"/>
      <point x="183" y="0" type="line"/>
      <point x="275" y="0" type="line"/>
      <point x="275" y="198" type="line"/>
    </contour>
  </outline>
</glyph>
<glyph name="kturned" format="2">
  <advance width="512"/>
  <unicode hex="029E"/>
  <anchor x="226" y="-199" name="bottom"/>
  <anchor x="209" y="527" name="top"/>
  <outline>
    <contour>
      <point x="22" y="0" type="line"/>
      <point x="125" y="0" type="line"/>
      <point x="319" y="239" type="line"/>
      <point x="110" y="527" type="line"/>
      <point x="0" y="527" type="line"/>
      <point x="216" y="233" type="line"/>
    </contour>
    <contour>
      <point x="325" y="-202" type="line"/>
      <point x="417" y="-213" type="line"/>
      <point x="417" y="527" type="line"/>
      <point x="325" y="527" type="line"/>
    </contour>
  </outline>
</glyph>
<glyph name="Lsmall" format="2">
  <advance width="436"/>
  <unicode hex="029F"/>
  <anchor x="253" y="0" name="bottom"/>
  <anchor x="141" y="527" name="top"/>
  <outline>
    <contour>
      <point x="187" y="527" type="line"/>
      <point x="95" y="527" type="line"/>
      <point x="95" y="0" type="line"/>
      <point x="410" y="0" type="line"/>
      <point x="421" y="78" type="line"/>
      <point x="187" y="78" type="line"/>
    </contour>
  </outline>
</glyph>
<glyph name="glottalstopstroke" format="2">
  <advance width="441"/>
  <unicode hex="02A1"/>
  <anchor x="191" y="739" name="top"/>
  <anchor x="178" y="0" name="bottom"/>
  <outline>
    <contour>
      <point x="64" y="215" type="line"/>
      <point x="64" y="145" type="line"/>
      <point x="132" y="145" type="line"/>
      <point x="332" y="145" type="line"/>
      <point x="332" y="215" type="line"/>
    </contour>
    <component base="glottalstop"/>
  </outline>
</glyph>
<glyph name="glottalstopstrokereversed" format="2">
  <advance width="442"/>
  <unicode hex="02A2"/>
  <anchor x="257" y="739" name="top"/>
  <anchor x="264" y="0" name="bottom"/>
  <outline>
    <contour>
      <point x="378" y="215" type="line"/>
      <point x="110" y="215" type="line"/>
      <point x="110" y="145" type="line"/>
      <point x="310" y="145" type="line"/>
      <point x="378" y="145" type="line"/>
    </contour>
    <component base="glottalstopreversed"/>
  </outline>
</glyph>
<glyph name="dzaltone" format="2">
  <advance width="915"/>
  <unicode hex="02A3"/>
  <anchor x="457.5" y="0" name="bottom"/>
  <anchor x="457.5" y="739" name="top"/>
  <anchor x="513" y="739" name="topright"/>
  <anchor x="303" y="264" name="center"/>
  <outline>
    <contour>
      <point x="882" y="527" type="line"/>
      <point x="496" y="527" type="line"/>
      <point x="496" y="449" type="line"/>
      <point x="782" y="449" type="line"/>
      <point x="503" y="69" type="line"/>
      <point x="503" y="0" type="line"/>
      <point x="874" y="0" type="line"/>
      <point x="885" y="77" type="line"/>
      <point x="602" y="77" type="line"/>
      <point x="882" y="457" type="line"/>
    </contour>
    <component base="d"/>
  </outline>
</glyph>
<glyph name="ymod" format="2">
  <advance width="344"/>
  <unicode hex="02B8"/>
  <outline>
    <contour>
      <point x="314" y="665" type="line"/>
      <point x="236" y="665" type="line"/>
      <point x="170" y="450" type="line"/>
      <point x="113" y="665" type="line"/>
      <point x="30" y="665" type="line"/>
      <point x="121" y="400" type="line"/>
      <point x="148" y="400" type="line"/>
      <point x="130" y="367"/>
      <point x="112" y="354"/>
      <point x="54" y="343" type="curve"/>
      <point x="63" y="289" type="line"/>
      <point x="147" y="300"/>
      <point x="189" y="329"/>
      <point x="215" y="399" type="curve" smooth="yes"/>
    </contour>
  </outline>
</glyph>
<glyph name="primemod" format="2">
  <advance width="304"/>
  <unicode hex="02B9"/>
  <outline>
    <contour>
      <point x="60" y="427" type="line"/>
      <point x="129" y="427" type="line"/>
      <point x="244" y="689" type="line"/>
      <point x="145" y="689" type="line"/>
    </contour>
  </outline>
</glyph>
<glyph name="circumflex" format="2">
  <advance width="392"/>
  <unicode hex="02C6"/>
  <outline>
    <contour>
      <point x="69" y="634" type="line"/>
      <point x="196" y="718" type="line"/>
      <point x="322" y="634" type="line"/>
      <point x="362" y="679" type="line"/>
      <point x="226" y="792" type="line"/>
      <point x="165" y="792" type="line"/>
      <point x="30" y="679" type="line"/>
    </contour>
  </outline>
</glyph>
<glyph name="uptackmod" format="2">
  <advance width="424"/>
  <unicode hex="02D4"/>
  <outline>
    <contour>
      <point x="362" y="249" type="line"/>
      <point x="243" y="249" type="line"/>
      <point x="243" y="409" type="line"/>
      <point x="180" y="409" type="line"/>
      <point x="180" y="249" type="line"/>
      <point x="62" y="249" type="line"/>
      <point x="62" y="190" type="line"/>
      <point x="362" y="190" type="line"/>
    </contour>
  </outline>
</glyph>
<glyph name="dotaccent" format="2">
  <advance width="189"/>
  <unicode hex="02D9"/>
  <outline>
    <contour>
      <point x="94" y="780" type="curve" smooth="yes"/>
      <point x="56" y="780"/>
      <point x="30" y="753"/>
      <point x="30" y="717" type="curve" smooth="yes"/>
      <point x="30" y="682"/>
      <point x="56" y="655"/>
      <point x="94" y="655" type="curve" smooth="yes"/>
      <point x="133" y="655"/>
      <point x="159" y="682"/>
      <point x="159" y="717" type="curve" smooth="yes"/>
      <point x="159" y="753"/>
      <point x="133" y="780"/>
    </contour>
  </outline>
</glyph>
<glyph name="hungarumlaut" format="2">
  <advance width="366"/>
  <unicode hex="02DD"/>
  <outline>
    <contour>
      <point x="258" y="832" type="line"/>
      <point x="172" y="659" type="line"/>
      <point x="230" y="634" type="line"/>
      <point x="336" y="791" type="line"/>
    </contour>
    <contour>
      <point x="106" y="832" type="line"/>
      <point x="30" y="664" type="line"/>
      <point x="88" y="639" type="line"/>
      <point x="184" y="791" type="line"/>
    </contour>
  </outline>
</glyph>
<glyph name="tonebarhighmod" format="2">
  <advance width="344"/>
  <unicode hex="02E6"/>
  <outline>
    <contour>
      <point x="240" y="689" type="line"/>
      <point x="240" y="528" type="line"/>
      <point x="30" y="528" type="line"/>
      <point x="30" y="461" type="line"/>
      <point x="240" y="461" type="line"/>
      <point x="240" y="0" type="line"/>
      <point x="314" y="0" type="line"/>
      <point x="314" y="689" type="line"/>
    </contour>
  </outline>
</glyph>
<glyph name="gravecomb" format="2">
  <unicode hex="0300"/>
  <anchor x="140" y="527" name="_top"/>
  <anchor x="152" y="801" name="top"/>
  <outline>
    <contour>
      <point x="71" y="801" type="line"/>
      <point x="30" y="724" type="line"/>
      <point x="242" y="638" type="line"/>
      <point x="270" y="687" type="line"/>
    </contour>
  </outline>
</glyph>
<glyph name="acutecomb" format="2">
  <unicode hex="0301"/>
  <anchor x="150" y="527" name="_top"/>
  <anchor x="152" y="801" name="top"/>
  <outline>
    <contour>
      <point x="229" y="801" type="line"/>
      <point x="30" y="687" type="line"/>
      <point x="58" y="638" type="line"/>
      <point x="270" y="724" type="line"/>
    </contour>
  </outline>
</glyph>
<glyph name="circumflexcomb" format="2">
  <unicode hex="0302"/>
  <anchor x="196" y="527" name="_top"/>
  <anchor x="198" y="792" name="top"/>
  <outline>
    <contour>
      <point x="69" y="634" type="line"/>
      <point x="196" y="718" type="line"/>
      <point x="322" y="634" type="line"/>
      <point x="362" y="679" type="line"/>
      <point x="226" y="792" type="line"/>
      <point x="165" y="792" type="line"/>
      <point x="30" y="679" type="line"/>
    </contour>
  </outline>
</glyph>
<glyph name="tildecomb" format="2">
  <unicode hex="0303"/>
  <anchor x="197" y="527" name="_top"/>
  <anchor x="197" y="730" name="top"/>
  <outline>
    <contour>
      <point x="255" y="656" type="curve" smooth="yes"/>
      <point x="300" y="656"/>
      <point x="338" y="685"/>
      <point x="364" y="742" type="curve"/>
      <point x="308" y="770" type="line"/>
      <point x="290" y="740"/>
      <point x="275" y="726"/>
      <point x="255" y="726" type="curve" smooth="yes"/>
      <point x="218" y="726"/>
      <point x="195" y="774"/>
      <point x="139" y="774" type="curve" smooth="yes"/>
      <point x="89" y="774"/>
      <point x="53" y="735"/>
      <point x="30" y="686" type="curve"/>
      <point x="86" y="658" type="line"/>
      <point x="102" y="688"/>
      <point x="116" y="704"/>
      <point x="139" y="704" type="curve" smooth="yes"/>
      <point x="175" y="704"/>
      <point x="202" y="656"/>
    </contour>
  </outline>
</glyph>
<glyph name="macroncomb" format="2">
  <unicode hex="0304"/>
  <anchor x="167" y="527" name="_top"/>
  <anchor x="169" y="736" name="top"/>
  <outline>
    <contour>
      <point x="303" y="667" type="line"/>
      <point x="303" y="736" type="line"/>
      <point x="30" y="736" type="line"/>
      <point x="30" y="667" type="line"/>
    </contour>
  </outline>
</glyph>
<glyph name="brevecomb" format="2">
  <unicode hex="0306"/>
  <anchor x="182" y="527" name="_top"/>
  <anchor x="184" y="789" name="top"/>
  <outline>
    <contour>
      <point x="180" y="643" type="curve" smooth="yes"/>
      <point x="261" y="643"/>
      <point x="325" y="692"/>
      <point x="333" y="776" type="curve"/>
      <point x="272" y="789" type="line"/>
      <point x="258" y="739"/>
      <point x="227" y="713"/>
      <point x="180" y="713" type="curve" smooth="yes"/>
      <point x="133" y="713"/>
      <point x="105" y="739"/>
      <point x="91" y="789" type="curve"/>
      <point x="30" y="776" type="line"/>
      <point x="38" y="692"/>
      <point x="100" y="643"/>
    </contour>
  </outline>
</glyph>
<glyph name="dotaccentcomb" format="2">
  <unicode hex="0307"/>
  <anchor x="94" y="720" name="_center"/>
  <anchor x="95" y="527" name="_top"/>
  <anchor x="97" y="780" name="top"/>
  <outline>
    <contour>
      <point x="94" y="780" type="curve" smooth="yes"/>
      <point x="56" y="780"/>
      <point x="30" y="753"/>
      <point x="30" y="717" type="curve" smooth="yes"/>
      <point x="30" y="682"/>
      <point x="56" y="655"/>
      <point x="94" y="655" type="curve" smooth="yes"/>
      <point x="133" y="655"/>
      <point x="159" y="682"/>
      <point x="159" y="717" type="curve" smooth="yes"/>
      <point x="159" y="753"/>
      <point x="133" y="780"/>
    </contour>
  </outline>
</glyph>
<glyph name="dieresiscomb" format="2">
  <unicode hex="0308"/>
  <anchor x="193" y="527" name="_top"/>
  <anchor x="195" y="768" name="top"/>
  <outline>
    <contour>
      <point x="297" y="768" type="curve" smooth="yes"/>
      <point x="265" y="768"/>
      <point x="240" y="743"/>
      <point x="240" y="711" type="curve" smooth="yes"/>
      <point x="240" y="679"/>
      <point x="265" y="654"/>
      <point x="297" y="654" type="curve" smooth="yes"/>
      <point x="330" y="654"/>
      <point x="355" y="679"/>
      <point x="355" y="711" type="curve" smooth="yes"/>
      <point x="355" y="743"/>
      <point x="330" y="768"/>
    </contour>
    <contour>
      <point x="88" y="768" type="curve" smooth="yes"/>
      <point x="55" y="768"/>
      <point x="30" y="743"/>
      <point x="30" y="711" type="curve" smooth="yes"/>
      <point x="30" y="679"/>
      <point x="55" y="654"/>
      <point x="88" y="654" type="curve" smooth="yes"/>
      <point x="120" y="654"/>
      <point x="145" y="679"/>
      <point x="145" y="711" type="curve" smooth="yes"/>
      <point x="145" y="743"/>
      <point x="120" y="768"/>
    </contour>
  </outline>
</glyph>
<glyph name="hungarumlautcomb" format="2">
  <unicode hex="030B"/>
  <anchor x="135" y="527" name="_top"/>
  <outline>
    <contour>
      <point x="258" y="832" type="line"/>
      <point x="172" y="659" type="line"/>
      <point x="230" y="634" type="line"/>
      <point x="336" y="791" type="line"/>
    </contour>
    <contour>
      <point x="106" y="832" type="line"/>
      <point x="30" y="664" type="line"/>
      <point x="88" y="639" type="line"/>
      <point x="184" y="791" type="line"/>
    </contour>
  </outline>
</glyph>
<glyph name="caroncomb" format="2">
  <unicode hex="030C"/>
  <anchor x="196" y="527" name="_top"/>
  <anchor x="198" y="785" name="top"/>
  <outline>
    <contour>
      <point x="323" y="785" type="line"/>
      <point x="196" y="701" type="line"/>
      <point x="70" y="785" type="line"/>
      <point x="30" y="740" type="line"/>
      <point x="166" y="627" type="line"/>
      <point x="227" y="627" type="line"/>
      <point x="362" y="740" type="line"/>
    </contour>
  </outline>
</glyph>
<glyph name="verticallineabovecomb" format="2">
  <unicode hex="030D"/>
  <anchor x="74" y="527" name="_top"/>
  <anchor x="76" y="858" name="top"/>
  <outline>
    <contour>
      <point x="30" y="626" type="line"/>
      <point x="117" y="626" type="line"/>
      <point x="117" y="858" type="line"/>
      <point x="30" y="858" type="line"/>
    </contour>
  </outline>
</glyph>
<glyph name="lefttackbelowcomb" format="2">
  <unicode hex="0318"/>
  <anchor x="132" y="0" name="_bottom"/>
  <anchor x="134" y="-353" name="bottom"/>
  <outline>
    <contour>
      <point x="170" y="-63" type="line"/>
      <point x="170" y="-180" type="line"/>
      <point x="30" y="-180" type="line"/>
      <point x="30" y="-237" type="line"/>
      <point x="170" y="-237" type="line"/>
      <point x="170" y="-353" type="line"/>
      <point x="234" y="-353" type="line"/>
      <point x="234" y="-63" type="line"/>
    </contour>
  </outline>
</glyph>
<glyph name="leftangleabovecomb" format="2">
  <unicode hex="031A"/>
  <anchor x="122" y="527" name="_top"/>
  <anchor x="124" y="779" name="top"/>
  <outline>
    <contour>
      <point x="30" y="779" type="line"/>
      <point x="30" y="720" type="line"/>
      <point x="150" y="720" type="line"/>
      <point x="150" y="594" type="line"/>
      <point x="213" y="594" type="line"/>
      <point x="213" y="779" type="line"/>
    </contour>
  </outline>
</glyph>
<glyph name="commaaccentcomb" format="2">
  <unicode hex="0326"/>
  <anchor x="90" y="0" name="_bottom"/>
  <outline>
    <contour>
      <point x="93" y="-77" type="curve" smooth="yes"/>
      <point x="61" y="-77"/>
      <point x="35" y="-101"/>
      <point x="35" y="-133" type="curve" smooth="yes"/>
      <point x="35" y="-152"/>
      <point x="45" y="-168"/>
      <point x="59" y="-180" type="curve"/>
      <point x="30" y="-296" type="line"/>
      <point x="83" y="-296" type="line"/>
      <point x="124" y="-210" type="line" smooth="yes"/>
      <point x="145" y="-166"/>
      <point x="150" y="-150"/>
      <point x="150" y="-133" type="curve" smooth="yes"/>
      <point x="150" y="-101"/>
      <point x="125" y="-77"/>
    </contour>
  </outline>
</glyph>
<glyph name="bridgebelowcomb" format="2">
  <unicode hex="032A"/>
  <anchor x="170" y="0" name="_bottom"/>
  <anchor x="172" y="-240" name="bottom"/>
  <outline>
    <contour>
      <point x="30" y="-240" type="line"/>
      <point x="93" y="-240" type="line"/>
      <point x="93" y="-150" type="line"/>
      <point x="247" y="-150" type="line"/>
      <point x="247" y="-240" type="line"/>
      <point x="310" y="-240" type="line"/>
      <point x="310" y="-91" type="line"/>
      <point x="30" y="-91" type="line"/>
    </contour>
  </outline>
</glyph>
<glyph name="circumflexbelowcomb" format="2">
  <unicode hex="032D"/>
  <anchor x="196" y="0" name="_bottom"/>
  <anchor x="198" y="-206" name="bottom"/>
  <outline>
    <contour>
      <point x="69" y="-226" type="line"/>
      <point x="196" y="-142" type="line"/>
      <point x="322" y="-226" type="line"/>
      <point x="362" y="-181" type="line"/>
      <point x="226" y="-68" type="line"/>
      <point x="165" y="-68" type="line"/>
      <point x="30" y="-181" type="line"/>
    </contour>
  </outline>
</glyph>
<glyph name="squarebelowcomb" format="2">
  <unicode hex="033B"/>
  <anchor x="170" y="0" name="_bottom"/>
  <anchor x="172" y="-240" name="bottom"/>
  <outline>
    <contour>
      <point x="30" y="-240" type="line"/>
      <point x="310" y="-240" type="line"/>
      <point x="310" y="-68" type="line"/>
      <point x="30" y="-68" type="line"/>
    </contour>
    <contour>
      <point x="90" y="-186" type="line"/>
      <point x="90" y="-122" type="line"/>
      <point x="250" y="-122" type="line"/>
      <point x="250" y="-186" type="line"/>
    </contour>
  </outline>
</glyph>
<glyph name="ypogegrammenicomb" format="2">
  <unicode hex="0345"/>
  <anchor x="70" y="0" name="_bottom"/>
  <anchor x="145" y="-190" name="bottom"/>
  <outline>
    <contour>
      <point x="142" y="-190" type="curve" smooth="yes"/>
      <point x="189" y="-190"/>
      <point x="220" y="-171"/>
      <point x="241" y="-155" type="curve"/>
      <point x="207" y="-108" type="line"/>
      <point x="189" y="-119"/>
      <point x="175" y="-125"/>
      <point x="151" y="-125" type="curve" smooth="yes"/>
      <point x="123" y="-125"/>
      <point x="109" y="-111"/>
      <point x="109" y="-83" type="curve" smooth="yes"/>
      <point x="109" y="-39" type="line"/>
      <point x="30" y="-39" type="line"/>
      <point x="30" y="-85" type="line" smooth="yes"/>
      <point x="30" y="-148"/>
      <point x="71" y="-190"/>
    </contour>
  </outline>
</glyph>
<glyph name="Archaicsampi" format="2">
  <advance width="583"/>
  <unicode hex="0372"/>
  <anchor x="291.5" y="0" name="bottom"/>
  <anchor x="291.5" y="689" name="top"/>
  <outline>
    <contour>
      <point x="244" y="0" type="line"/>
      <point x="339" y="0" type="line"/>
      <point x="339" y="608" type="line"/>
      <point x="568" y="608" type="line"/>
      <point x="568" y="689" type="line"/>
      <point x="15" y="689" type="line"/>
      <point x="15" y="608" type="line"/>
      <point x="244" y="608" type="line"/>
    </contour>
    <contour>
      <point x="15" y="400" type="line"/>
      <point x="96" y="400" type="line"/>
      <point x="96" y="637" type="line"/>
      <point x="15" y="637" type="line"/>
    </contour>
    <contour>
      <point x="487" y="401" type="line"/>
      <point x="568" y="401" type="line"/>
      <point x="568" y="638" type="line"/>
      <point x="487" y="638" type="line"/>
    </contour>
  </outline>
</glyph>
<glyph name="Delta" format="2">
  <advance width="583"/>
  <unicode hex="0394"/>
  <anchor x="291.5" y="0" name="bottom"/>
  <anchor x="291.5" y="689" name="top"/>
  <outline>
    <contour>
      <point x="290" y="609" type="line"/>
      <point x="454" y="78" type="line"/>
      <point x="125" y="78" type="line"/>
    </contour>
    <contour>
      <point x="352" y="689" type="line"/>
      <point x="232" y="689" type="line"/>
      <point x="6" y="0" type="line"/>
      <point x="577" y="0" type="line"/>
    </contour>
  </outline>
</glyph>
<glyph name="Xi" format="2">
  <advance width="511"/>
  <unicode hex="039E"/>
  <anchor x="255.5" y="0" name="bottom"/>
  <anchor x="255.5" y="689" name="top"/>
  <outline>
    <contour>
      <point x="466" y="88" type="line"/>
      <point x="45" y="88" type="line"/>
      <point x="45" y="0" type="line"/>
      <point x="466" y="0" type="line"/>
    </contour>
    <contour>
      <point x="397" y="392" type="line"/>
      <point x="106" y="392" type="line"/>
      <point x="106" y="307" type="line"/>
      <point x="397" y="307" type="line"/>
    </contour>
    <contour>
      <point x="458" y="689" type="line"/>
      <point x="45" y="689" type="line"/>
      <point x="45" y="603" type="line"/>
      <point x="445" y="603" type="line"/>
    </contour>
  </outline>
</glyph>
<glyph name="Sigma" format="2">
  <advance width="503"/>
  <unicode hex="03A3"/>
  <anchor x="251.5" y="0" name="bottom"/>
  <anchor x="251.5" y="689" name="top"/>
  <outline>
    <contour>
      <point x="463" y="689" type="line"/>
      <point x="40" y="689" type="line"/>
      <point x="40" y="611" type="line"/>
      <point x="262" y="339" type="line"/>
      <point x="40" y="78" type="line"/>
      <point x="40" y="0" type="line"/>
      <point x="463" y="0" type="line"/>
      <point x="463" y="78" type="line"/>
      <point x="147" y="78" type="line"/>
      <point x="347" y="310" type="line"/>
      <point x="347" y="372" type="line"/>
      <point x="147" y="611" type="line"/>
      <point x="463" y="611" type="line"/>
    </contour>
  </outline>
</glyph>
<glyph name="Psi" format="2">
  <advance width="694"/>
  <unicode hex="03A8"/>
  <anchor x="347" y="0" name="bottom"/>
  <anchor x="347" y="689" name="top"/>
  <outline>
    <contour>
      <point x="323" y="191" type="curve"/>
      <point x="327" y="268" type="line"/>
      <point x="187" y="270"/>
      <point x="129" y="320"/>
      <point x="129" y="433" type="curve" smooth="yes"/>
      <point x="129" y="689" type="line"/>
      <point x="35" y="689" type="line"/>
      <point x="35" y="426" type="line" smooth="yes"/>
      <point x="35" y="279"/>
      <point x="130" y="200"/>
    </contour>
    <contour>
      <point x="366" y="268" type="curve"/>
      <point x="370" y="191" type="line"/>
      <point x="552" y="199"/>
      <point x="659" y="273"/>
      <point x="659" y="429" type="curve" smooth="yes"/>
      <point x="659" y="689" type="line"/>
      <point x="565" y="689" type="line"/>
      <point x="565" y="433" type="line" smooth="yes"/>
      <point x="565" y="319"/>
      <point x="501" y="271"/>
    </contour>
    <contour>
      <point x="394" y="208" type="line"/>
      <point x="392" y="253" type="line"/>
      <point x="392" y="689" type="line"/>
      <point x="301" y="689" type="line"/>
      <point x="301" y="253" type="line"/>
      <point x="299" y="208" type="line"/>
      <point x="299" y="0" type="line"/>
      <point x="394" y="0" type="line"/>
    </contour>
  </outline>
</glyph>
<glyph name="Omega" format="2">
  <advance width="692"/>
  <unicode hex="03A9"/>
  <anchor x="346" y="0" name="bottom"/>
  <anchor x="344" y="689" name="top"/>
  <anchor x="111" y="689" name="topleft"/>
  <outline>
    <contour>
      <point x="346" y="701" type="curve" smooth="yes"/>
      <point x="174" y="701"/>
      <point x="55" y="570"/>
      <point x="55" y="353" type="curve" smooth="yes"/>
      <point x="55" y="208"/>
      <point x="90" y="128"/>
      <point x="180" y="80" type="curve"/>
      <point x="76" y="80" type="line"/>
      <point x="76" y="0" type="line"/>
      <point x="291" y="0" type="line"/>
      <point x="291" y="80" type="line"/>
      <point x="205" y="111"/>
      <point x="156" y="182"/>
      <point x="156" y="353" type="curve" smooth="yes"/>
      <point x="156" y="542"/>
      <point x="231" y="623"/>
      <point x="346" y="623" type="curve" smooth="yes"/>
      <point x="464" y="623"/>
      <point x="536" y="542"/>
      <point x="536" y="354" type="curve" smooth="yes"/>
      <point x="536" y="196"/>
      <point x="494" y="112"/>
      <point x="400" y="80" type="curve"/>
      <point x="400" y="0" type="line"/>
      <point x="615" y="0" type="line"/>
      <point x="615" y="80" type="line"/>
      <point x="505" y="80" type="line"/>
      <point x="606" y="136"/>
      <point x="637" y="214"/>
      <point x="637" y="354" type="curve"/>
      <point x="637" y="576"/>
      <point x="523" y="701"/>
    </contour>
  </outline>
</glyph>
<glyph name="iota" format="2">
  <advance width="283"/>
  <unicode hex="03B9"/>
  <anchor x="141.5" y="0" name="bottom"/>
  <anchor x="136" y="527" name="top"/>
  <outline>
    <contour>
      <point x="182" y="527" type="line"/>
      <point x="90" y="527" type="line"/>
      <point x="90" y="130" type="line" smooth="yes"/>
      <point x="90" y="46"/>
      <point x="120" y="9"/>
      <point x="199" y="-12" type="curve"/>
      <point x="228" y="57" type="line"/>
      <point x="195" y="72"/>
      <point x="182" y="89"/>
      <point x="182" y="141" type="curve" smooth="yes"/>
    </contour>
  </outline>
</glyph>
<glyph name="chi" format="2">
  <advance width="466"/>
  <unicode hex="03C7"/>
  <anchor x="233" y="-202" name="bottom"/>
  <anchor x="233" y="527" name="top"/>
  <outline>
    <contour>
      <point x="84" y="538" type="curve"/>
      <point x="-5" y="505" type="line"/>
      <point x="59" y="436"/>
      <point x="102" y="369"/>
      <point x="184" y="187" type="curve"/>
      <point x="232" y="107" type="line"/>
      <point x="366" y="-211" type="line"/>
      <point x="459" y="-199" type="line"/>
      <point x="283" y="186" type="line"/>
      <point x="235" y="257" type="line"/>
      <point x="177" y="411"/>
      <point x="136" y="479"/>
    </contour>
    <contour>
      <point x="348" y="538" type="line"/>
      <point x="235" y="257" type="line"/>
      <point x="184" y="187" type="line"/>
      <point x="-1" y="-199" type="line"/>
      <point x="90" y="-210" type="line"/>
      <point x="232" y="107" type="line"/>
      <point x="283" y="186" type="line"/>
      <point x="443" y="527" type="line"/>
    </contour>
  </outline>
</glyph>
<glyph name="KaiSymbol" format="2">
  <advance width="609"/>
  <unicode hex="03CF"/>
  <anchor x="304.5" y="-202" name="bottom"/>
  <anchor x="328" y="689" name="top"/>
  <outline>
    <contour>
      <point x="483" y="78" type="line"/>
      <point x="483" y="0" type="line"/>
      <point x="599" y="0" type="line"/>
      <point x="599" y="78" type="line"/>
    </contour>
    <component base="Kappa"/>
    <component base="hookHELPER.case" xOffset="303"/>
  </outline>
</glyph>
<glyph name="koppaArchaic" format="2">
  <advance width="584"/>
  <unicode hex="03D9"/>
  <anchor x="292" y="-202" name="bottom"/>
  <anchor x="292" y="527" name="top"/>
  <anchor x="380" y="0" name="ogonek"/>
  <anchor x="476" y="527" name="topright"/>
  <outline>
    <contour>
      <point x="335" y="0" type="line"/>
      <point x="249" y="0" type="line"/>
      <point x="249" y="-213" type="line"/>
      <point x="335" y="-202" type="line"/>
    </contour>
    <component base="o"/>
  </outline>
</glyph>
<glyph name="rhoStrokeSymbol" format="2">
  <advance width="589"/>
  <unicode hex="03FC"/>
  <anchor x="305" y="527" name="top"/>
  <anchor x="294.5" y="-202.0" name="bottom"/>
  <outline>
    <contour>
      <point x="11" y="-64" type="line"/>
      <point x="11" y="-134" type="line"/>
      <point x="90" y="-134" type="line"/>
      <point x="340" y="-134" type="line"/>
      <point x="340" y="-64" type="line"/>
    </contour>
    <component base="rho"/>
  </outline>
</glyph>
<glyph name="Tshe-cy" format="2">
  <advance width="717"/>
  <unicode hex="040B"/>
  <anchor x="414" y="689" name="top"/>
  <anchor x="692" y="0" name="bottomright"/>
  <anchor x="414" y="0" name="bottom"/>
  <outline>
    <contour>
      <point x="507" y="689" type="line"/>
      <point x="15" y="689" type="line"/>
      <point x="15" y="608" type="line"/>
      <point x="497" y="608" type="line"/>
    </contour>
    <component base="Shha-cy" xOffset="111"/>
  </outline>
</glyph>
<glyph name="Ge-cy" format="2">
  <advance width="508"/>
  <unicode hex="0413"/>
  <anchor x="148" y="0" name="bottom"/>
  <anchor x="205" y="0" name="bottomright"/>
  <anchor x="316" y="689" name="top"/>
  <outline>
    <contour>
      <point x="100" y="689" type="line"/>
      <point x="100" y="0" type="line"/>
      <point x="195" y="0" type="line"/>
      <point x="195" y="623" type="line"/>
    </contour>
    <contour>
      <point x="498" y="689" type="line"/>
      <point x="100" y="689" type="line"/>
      <point x="179" y="607" type="line"/>
      <point x="484" y="607" type="line"/>
    </contour>
  </outline>
</glyph>
<glyph name="De-cy" format="2">
  <advance width="611"/>
  <unicode hex="0414"/>
  <anchor x="305.5" y="-202" name="bottom"/>
  <anchor x="305.5" y="689" name="top"/>
  <outline>
    <contour>
      <point x="511" y="689" type="line"/>
      <point x="161" y="689" type="line"/>
      <point x="136" y="489" type="line" smooth="yes"/>
      <point x="99" y="201"/>
      <point x="91" y="131"/>
      <point x="37" y="78" type="curve"/>
      <point x="37" y="0" type="line"/>
      <point x="511" y="0" type="line"/>
    </contour>
    <contour>
      <point x="416" y="611" type="line"/>
      <point x="416" y="78" type="line"/>
      <point x="117" y="78" type="line"/>
      <point x="187" y="133"/>
      <point x="199" y="213"/>
      <point x="230" y="485" type="curve" smooth="yes"/>
      <point x="244" y="611" type="line"/>
    </contour>
    <component base="descStraight-cy.case" xOffset="408"/>
    <component base="descStraight-cy.case" xScale="-1" xOffset="149"/>
  </outline>
</glyph>
<glyph name="Ii-cy" format="2">
  <advance width="683"/>
  <unicode hex="0418"/>
  <anchor x="341.5" y="0" name="bottom"/>
  <anchor x="593" y="0" name="bottomright"/>
  <anchor x="342" y="689" name="top"/>
  <outline>
    <contour>
      <point x="583" y="689" type="line"/>
      <point x="464" y="689" type="line"/>
      <point x="182" y="103" type="line"/>
      <point x="189" y="162"/>
      <point x="195" y="229"/>
      <point x="195" y="353" type="curve" smooth="yes"/>
      <point x="195" y="689" type="line"/>
      <point x="100" y="689" type="line"/>
      <point x="100" y="0" type="line"/>
      <point x="222" y="0" type="line"/>
      <point x="501" y="583" type="line"/>
      <point x="496" y="533"/>
      <point x="488" y="444"/>
      <point x="488" y="336" type="curve" smooth="yes"/>
      <point x="488" y="0" type="line"/>
      <point x="583" y="0" type="line"/>
    </contour>
  </outline>
</glyph>
<glyph name="Ka-cy" format="2">
  <advance width="589"/>
  <unicode hex="041A"/>
  <anchor x="294.5" y="0" name="bottom"/>
  <anchor x="528" y="0" name="bottomright"/>
  <anchor x="292" y="689" name="top"/>
  <outline>
    <contour>
      <point x="560" y="689" type="line"/>
      <point x="460" y="689" type="line"/>
      <point x="290" y="401" type="line"/>
      <point x="195" y="401" type="line"/>
      <point x="195" y="689" type="line"/>
      <point x="100" y="689" type="line"/>
      <point x="100" y="0" type="line"/>
      <point x="195" y="0" type="line"/>
      <point x="195" y="323" type="line"/>
      <point x="289" y="323" type="line"/>
      <point x="469" y="0" type="line"/>
      <point x="579" y="0" type="line"/>
      <point x="369" y="366" type="line"/>
    </contour>
  </outline>
</glyph>
<glyph name="El-cy" format="2">
  <advance width="659"/>
  <unicode hex="041B"/>
  <anchor x="329.5" y="0" name="bottom"/>
  <anchor x="569" y="0" name="bottomright"/>
  <anchor x="329.5" y="689" name="top"/>
  <outline>
    <contour>
      <point x="559" y="689" type="line"/>
      <point x="165" y="689" type="line"/>
      <point x="232" y="609" type="line"/>
      <point x="464" y="609" type="line"/>
      <point x="464" y="0" type="line"/>
      <point x="559" y="0" type="line"/>
    </contour>
    <contour>
      <point x="165" y="689" type="line"/>
      <point x="120" y="305" type="line" smooth="yes"/>
      <point x="99" y="126"/>
      <point x="89" y="90"/>
      <point x="14" y="62" type="curve"/>
      <point x="37" y="-12" type="line"/>
      <point x="152" y="25"/>
      <point x="188" y="66"/>
      <point x="215" y="312" type="curve" smooth="yes"/>
      <point x="248" y="609" type="line"/>
    </contour>
  </outline>
</glyph>
<glyph name="Pe-cy" format="2">
  <advance width="675"/>
  <unicode hex="041F"/>
  <anchor x="337.5" y="0" name="bottom"/>
  <anchor x="585" y="0" name="bottomright"/>
  <anchor x="337.5" y="689" name="top"/>
  <outline>
    <contour>
      <point x="575" y="689" type="line"/>
      <point x="100" y="689" type="line"/>
      <point x="100" y="0" type="line"/>
      <point x="195" y="0" type="line"/>
      <point x="195" y="608" type="line"/>
      <point x="480" y="608" type="line"/>
      <point x="480" y="0" type="line"/>
      <point x="575" y="0" type="line"/>
    </contour>
  </outline>
</glyph>
<glyph name="U-cy" format="2">
  <advance width="540"/>
  <unicode hex="0423"/>
  <anchor x="270" y="0" name="bottom"/>
  <anchor x="270" y="689" name="top"/>
  <outline>
    <contour>
      <point x="545" y="689" type="line"/>
      <point x="449" y="689" type="line"/>
      <point x="284" y="247" type="line"/>
      <point x="99" y="689" type="line"/>
      <point x="0" y="689" type="line"/>
      <point x="221" y="189" type="line"/>
      <point x="256" y="189" type="line"/>
      <point x="226" y="104"/>
      <point x="188" y="75"/>
      <point x="96" y="57" type="curve"/>
      <point x="110" y="-12" type="line"/>
      <point x="236" y="7"/>
      <point x="292" y="53"/>
      <point x="345" y="186" type="curve" smooth="yes"/>
    </contour>
  </outline>
</glyph>
<glyph name="Sha-cy" format="2">
  <advance width="925"/>
  <unicode hex="0428"/>
  <anchor x="462.5" y="0" name="bottom"/>
  <anchor x="835" y="0" name="bottomright"/>
  <anchor x="462.5" y="689" name="top"/>
  <outline>
    <contour>
      <point x="825" y="689" type="line"/>
      <point x="732" y="689" type="line"/>
      <point x="732" y="78" type="line"/>
      <point x="507" y="78" type="line"/>
      <point x="507" y="689" type="line"/>
      <point x="418" y="689" type="line"/>
      <point x="418" y="78" type="line"/>
      <point x="193" y="78" type="line"/>
      <point x="193" y="689" type="line"/>
      <point x="100" y="689" type="line"/>
      <point x="100" y="0" type="line"/>
      <point x="825" y="0" type="line"/>
    </contour>
  </outline>
</glyph>
<glyph name="Iu-cy" format="2">
  <advance width="899"/>
  <unicode hex="042E"/>
  <anchor x="449.5" y="0" name="bottom"/>
  <anchor x="449.5" y="689" name="top"/>
  <outline>
    <contour>
      <point x="563" y="701" type="curve" smooth="yes"/>
      <point x="399" y="701"/>
      <point x="292" y="579"/>
      <point x="282" y="362" type="curve"/>
      <point x="282" y="338" type="line"/>
      <point x="286" y="113"/>
      <point x="395" y="-12"/>
      <point x="563" y="-12" type="curve" smooth="yes"/>
      <point x="733" y="-12"/>
      <point x="844" y="116"/>
      <point x="844" y="344" type="curve" smooth="yes"/>
      <point x="844" y="576"/>
      <point x="733" y="701"/>
    </contour>
    <contour>
      <point x="195" y="689" type="line"/>
      <point x="100" y="689" type="line"/>
      <point x="100" y="0" type="line"/>
      <point x="195" y="0" type="line"/>
      <point x="195" y="318" type="line"/>
      <point x="325" y="318" type="line"/>
      <point x="325" y="396" type="line"/>
      <point x="195" y="396" type="line"/>
    </contour>
    <contour>
      <point x="563" y="623" type="curve" smooth="yes"/>
      <point x="675" y="623"/>
      <point x="743" y="542"/>
      <point x="743" y="344" type="curve" smooth="yes"/>
      <point x="743" y="144"/>
      <point x="673" y="66"/>
      <point x="563" y="66" type="curve" smooth="yes"/>
      <point x="457" y="66"/>
      <point x="383" y="144"/>
      <point x="383" y="338" type="curve" smooth="yes"/>
      <point x="383" y="542"/>
      <point x="454" y="623"/>
    </contour>
  </outline>
</glyph>
<glyph name="ve-cy" format="2">
  <advance width="564"/>
  <unicode hex="0432"/>
  <anchor x="274" y="0" name="bottom"/>
  <anchor x="269" y="527" name="top"/>
  <outline>
    <contour>
      <point x="268" y="539" type="curve" smooth="yes"/>
      <point x="210" y="539"/>
      <point x="149" y="531"/>
      <point x="95" y="520" type="curve"/>
      <point x="95" y="0" type="line"/>
      <point x="285" y="0" type="line" smooth="yes"/>
      <point x="412" y="0"/>
      <point x="507" y="46"/>
      <point x="507" y="156" type="curve" smooth="yes"/>
      <point x="507" y="235"/>
      <point x="463" y="277"/>
      <point x="373" y="286" type="curve"/>
      <point x="453" y="306"/>
      <point x="480" y="346"/>
      <point x="480" y="401" type="curve" smooth="yes"/>
      <point x="480" y="490"/>
      <point x="395" y="539"/>
    </contour>
    <contour>
      <point x="269" y="468" type="curve" smooth="yes"/>
      <point x="346" y="468"/>
      <point x="386" y="447"/>
      <point x="386" y="392" type="curve" smooth="yes"/>
      <point x="386" y="332"/>
      <point x="343" y="313"/>
      <point x="281" y="313" type="curve" smooth="yes"/>
      <point x="171" y="313" type="line"/>
      <point x="171" y="245" type="line"/>
      <point x="287" y="245" type="line" smooth="yes"/>
      <point x="357" y="245"/>
      <point x="410" y="230"/>
      <point x="410" y="157" type="curve" smooth="yes"/>
      <point x="410" y="79"/>
      <point x="334" y="72"/>
      <point x="270" y="72" type="curve" smooth="yes"/>
      <point x="187" y="72" type="line"/>
      <point x="187" y="462" type="line"/>
      <point x="214" y="466"/>
      <point x="238" y="468"/>
    </contour>
  </outline>
</glyph>
<glyph name="ii-cy" format="2">
  <advance width="600"/>
  <unicode hex="0438"/>
  <anchor x="300" y="0" name="bottom"/>
  <anchor x="515" y="0" name="bottomright"/>
  <anchor x="300" y="527" name="top"/>
  <outline>
    <contour>
      <point x="505" y="527" type="line"/>
      <point x="394" y="527" type="line"/>
      <point x="176" y="107" type="line"/>
      <point x="178" y="120"/>
      <point x="186" y="207"/>
      <point x="186" y="289" type="curve" smooth="yes"/>
      <point x="186" y="527" type="line"/>
      <point x="95" y="527" type="line"/>
      <point x="95" y="0" type="line"/>
      <point x="204" y="0" type="line"/>
      <point x="425" y="423" type="line"/>
      <point x="423" y="411"/>
      <point x="414" y="331"/>
      <point x="414" y="238" type="curve" smooth="yes"/>
      <point x="414" y="0" type="line"/>
      <point x="505" y="0" type="line"/>
    </contour>
  </outline>
</glyph>
<glyph name="ka-cy" format="2">
  <advance width="519"/>
  <unicode hex="043A"/>
  <anchor x="259.5" y="0" name="bottom"/>
  <anchor x="456" y="0" name="bottomright"/>
  <anchor x="280" y="527" name="top"/>
  <outline>
    <contour>
      <point x="490" y="527" type="line"/>
      <point x="389" y="527" type="line"/>
      <point x="256" y="315" type="line"/>
      <point x="187" y="315" type="line"/>
      <point x="187" y="527" type="line"/>
      <point x="95" y="527" type="line"/>
      <point x="95" y="0" type="line"/>
      <point x="187" y="0" type="line"/>
      <point x="187" y="243" type="line"/>
      <point x="254" y="243" type="line"/>
      <point x="400" y="0" type="line"/>
      <point x="509" y="0" type="line"/>
      <point x="330" y="283" type="line"/>
    </contour>
  </outline>
</glyph>
<glyph name="em-cy" format="2">
  <advance width="671"/>
  <unicode hex="043C"/>
  <anchor x="335.5" y="0" name="bottom"/>
  <anchor x="621" y="0" name="bottomright"/>
  <anchor x="335.5" y="527" name="top"/>
  <outline>
    <contour>
      <point x="563" y="527" type="line"/>
      <point x="442" y="527" type="line"/>
      <point x="329" y="150" type="line"/>
      <point x="226" y="527" type="line"/>
      <point x="107" y="527" type="line"/>
      <point x="60" y="0" type="line"/>
      <point x="149" y="0" type="line"/>
      <point x="168" y="250" type="line" smooth="yes"/>
      <point x="172" y="305"/>
      <point x="172" y="371"/>
      <point x="172" y="433" type="curve"/>
      <point x="284" y="58" type="line"/>
      <point x="371" y="58" type="line"/>
      <point x="491" y="435" type="line"/>
      <point x="491" y="359"/>
      <point x="491" y="307"/>
      <point x="497" y="249" type="curve" smooth="yes"/>
      <point x="521" y="0" type="line"/>
      <point x="611" y="0" type="line"/>
    </contour>
  </outline>
</glyph>
<glyph name="en-cy" format="2">
  <advance width="593"/>
  <unicode hex="043D"/>
  <anchor x="297" y="0" name="bottom"/>
  <anchor x="508" y="0" name="bottomright"/>
  <anchor x="297" y="527" name="top"/>
  <outline>
    <contour>
      <point x="406" y="0" type="line"/>
      <point x="498" y="0" type="line"/>
      <point x="498" y="527" type="line"/>
      <point x="406" y="527" type="line"/>
      <point x="406" y="306" type="line"/>
      <point x="187" y="306" type="line"/>
      <point x="187" y="527" type="line"/>
      <point x="95" y="527" type="line"/>
      <point x="95" y="0" type="line"/>
      <point x="187" y="0" type="line"/>
      <point x="187" y="232" type="line"/>
      <point x="406" y="232" type="line"/>
    </contour>
  </outline>
</glyph>
<glyph name="pe-cy" format="2">
  <advance width="590"/>
  <unicode hex="043F"/>
  <anchor x="295" y="0" name="bottom"/>
  <anchor x="505" y="0" name="bottomright"/>
  <anchor x="295" y="527" name="top"/>
  <outline>
    <contour>
      <point x="403" y="0" type="line"/>
      <point x="495" y="0" type="line"/>
      <point x="495" y="527" type="line"/>
      <point x="95" y="527" type="line"/>
      <point x="95" y="0" type="line"/>
      <point x="187" y="0" type="line"/>
      <point x="187" y="452" type="line"/>
      <point x="403" y="452" type="line"/>
    </contour>
  </outline>
</glyph>
<glyph name="te-cy" format="2">
  <advance width="451"/>
  <unicode hex="0442"/>
  <anchor x="225.5" y="0" name="bottom"/>
  <anchor x="281" y="0" name="bottomright"/>
  <anchor x="225.5" y="527" name="top"/>
  <outline>
    <contour>
      <point x="451" y="527" type="line"/>
      <point x="5" y="527" type="line"/>
      <point x="5" y="452" type="line"/>
      <point x="179" y="452" type="line"/>
      <point x="179" y="0" type="line"/>
      <point x="271" y="0" type="line"/>
      <point x="271" y="452" type="line"/>
      <point x="440" y="452" type="line"/>
    </contour>
  </outline>
</glyph>
<glyph name="che-cy" format="2">
  <advance width="552"/>
  <unicode hex="0447"/>
  <anchor x="276" y="0" name="bottom"/>
  <anchor x="355" y="0" name="bottomleft"/>
  <anchor x="467" y="0" name="bottomright"/>
  <anchor x="256" y="527" name="top"/>
  <outline>
    <contour>
      <point x="375" y="230" type="curve"/>
      <point x="374" y="303" type="line"/>
      <point x="348" y="261"/>
      <point x="281" y="234"/>
      <point x="231" y="234" type="curve" smooth="yes"/>
      <point x="174" y="234"/>
      <point x="147" y="261"/>
      <point x="147" y="329" type="curve" smooth="yes"/>
      <point x="147" y="527" type="line"/>
      <point x="55" y="527" type="line"/>
      <point x="55" y="318" type="line" smooth="yes"/>
      <point x="55" y="220"/>
      <point x="105" y="162"/>
      <point x="206" y="162" type="curve" smooth="yes"/>
      <point x="273" y="162"/>
      <point x="338" y="189"/>
    </contour>
    <contour>
      <point x="365" y="527" type="line"/>
      <point x="365" y="0" type="line"/>
      <point x="457" y="0" type="line"/>
      <point x="457" y="527" type="line"/>
    </contour>
  </outline>
</glyph>
<glyph name="yeru-cy" format="2">
  <advance width="734"/>
  <unicode hex="044B"/>
  <anchor x="367" y="0" name="bottom"/>
  <anchor x="367" y="527" name="top"/>
  <outline>
    <contour>
      <point x="639" y="527" type="line"/>
      <point x="547" y="527" type="line"/>
      <point x="547" y="0" type="line"/>
      <point x="639" y="0" type="line"/>
    </contour>
    <contour>
      <point x="171" y="357" type="line"/>
      <point x="171" y="287" type="line"/>
      <point x="246" y="287" type="line" smooth="yes"/>
      <point x="343" y="287"/>
      <point x="373" y="250"/>
      <point x="373" y="180" type="curve" smooth="yes"/>
      <point x="373" y="98"/>
      <point x="325" y="72"/>
      <point x="256" y="72" type="curve" smooth="yes"/>
      <point x="187" y="72" type="line"/>
      <point x="187" y="527" type="line"/>
      <point x="95" y="527" type="line"/>
      <point x="95" y="0" type="line"/>
      <point x="264" y="0" type="line"/>
      <point x="371" y="0"/>
      <point x="471" y="54"/>
      <point x="471" y="180" type="curve" smooth="yes"/>
      <point x="471" y="287"/>
      <point x="412" y="357"/>
      <point x="247" y="357" type="curve" smooth="yes"/>
    </contour>
  </outline>
</glyph>
<glyph name="softsign-cy" format="2">
  <advance width="516"/>
  <unicode hex="044C"/>
  <anchor x="258" y="0" name="bottom"/>
  <anchor x="258" y="527" name="top"/>
  <outline>
    <contour>
      <point x="171" y="357" type="line"/>
      <point x="171" y="287" type="line"/>
      <point x="256" y="287" type="line" smooth="yes"/>
      <point x="353" y="287"/>
      <point x="383" y="250"/>
      <point x="383" y="180" type="curve" smooth="yes"/>
      <point x="383" y="98"/>
      <point x="335" y="72"/>
      <point x="266" y="72" type="curve" smooth="yes"/>
      <point x="187" y="72" type="line"/>
      <point x="187" y="527" type="line"/>
      <point x="95" y="527" type="line"/>
      <point x="95" y="0" type="line"/>
      <point x="274" y="0" type="line"/>
      <point x="381" y="0"/>
      <point x="481" y="54"/>
      <point x="481" y="180" type="curve" smooth="yes"/>
      <point x="481" y="287"/>
      <point x="422" y="357"/>
      <point x="257" y="357" type="curve" smooth="yes"/>
    </contour>
  </outline>
</glyph>
<glyph name="iu-cy" format="2">
  <advance width="785"/>
  <unicode hex="044E"/>
  <anchor x="392.5" y="0" name="bottom"/>
  <anchor x="392.5" y="527" name="top"/>
  <outline>
    <contour>
      <point x="502" y="539" type="curve" smooth="yes"/>
      <point x="369" y="539"/>
      <point x="289" y="429"/>
      <point x="281" y="288" type="curve"/>
      <point x="280" y="251" type="line"/>
      <point x="284" y="100"/>
      <point x="364" y="-12"/>
      <point x="501" y="-12" type="curve" smooth="yes"/>
      <point x="648" y="-12"/>
      <point x="728" y="111"/>
      <point x="728" y="264" type="curve" smooth="yes"/>
      <point x="728" y="431"/>
      <point x="642" y="539"/>
    </contour>
    <contour>
      <point x="187" y="527" type="line"/>
      <point x="95" y="527" type="line"/>
      <point x="95" y="0" type="line"/>
      <point x="187" y="0" type="line"/>
      <point x="187" y="232" type="line"/>
      <point x="297" y="232" type="line"/>
      <point x="298" y="306" type="line"/>
      <point x="187" y="306" type="line"/>
    </contour>
    <contour>
      <point x="502" y="464" type="curve" smooth="yes"/>
      <point x="584" y="464"/>
      <point x="629" y="391"/>
      <point x="629" y="264" type="curve" smooth="yes"/>
      <point x="629" y="136"/>
      <point x="594" y="62"/>
      <point x="501" y="62" type="curve" smooth="yes"/>
      <point x="418" y="62"/>
      <point x="375" y="136"/>
      <point x="375" y="263" type="curve" smooth="yes"/>
      <point x="375" y="401"/>
      <point x="419" y="464"/>
    </contour>
  </outline>
</glyph>
<glyph name="dje-cy" format="2">
  <advance width="597"/>
  <unicode hex="0452"/>
  <anchor x="298.5" y="-202" name="bottom"/>
  <anchor x="298.5" y="739" name="top"/>
  <outline>
    <contour>
      <point x="502" y="127" type="line"/>
      <point x="410" y="127" type="line"/>
      <point x="410" y="26" type="line" smooth="yes"/>
      <point x="410" y="-87"/>
      <point x="377" y="-113"/>
      <point x="308" y="-145" type="curve"/>
      <point x="335" y="-212" type="line"/>
      <point x="447" y="-162"/>
      <point x="502" y="-117"/>
      <point x="502" y="32" type="curve" smooth="yes"/>
    </contour>
    <contour>
      <point x="349" y="676" type="line"/>
      <point x="25" y="676" type="line"/>
      <point x="25" y="606" type="line"/>
      <point x="104" y="606" type="line"/>
      <point x="349" y="606" type="line"/>
    </contour>
    <contour>
      <point x="193" y="748" type="line"/>
      <point x="101" y="738" type="line"/>
      <point x="101" y="0" type="line"/>
      <point x="193" y="0" type="line"/>
    </contour>
    <contour>
      <point x="349" y="539" type="curve" smooth="yes"/>
      <point x="273" y="539"/>
      <point x="215" y="495"/>
      <point x="177" y="430" type="curve"/>
      <point x="193" y="375" type="line"/>
      <point x="228" y="430"/>
      <point x="269" y="467"/>
      <point x="326" y="467" type="curve" smooth="yes"/>
      <point x="376" y="467"/>
      <point x="410" y="444"/>
      <point x="410" y="365" type="curve" smooth="yes"/>
      <point x="410" y="100" type="line"/>
      <point x="502" y="100" type="line"/>
      <point x="502" y="378" type="line" smooth="yes"/>
      <point x="502" y="477"/>
      <point x="445" y="539"/>
    </contour>
  </outline>
</glyph>
<glyph name="Yuslittleiotified-cy" format="2">
  <advance width="825"/>
  <unicode hex="0468"/>
  <anchor x="412.5" y="0" name="bottom"/>
  <anchor x="412.5" y="689" name="top"/>
  <outline>
    <contour>
      <point x="413" y="285" type="line"/>
      <point x="413" y="363" type="line"/>
      <point x="195" y="363" type="line"/>
      <point x="195" y="689" type="line"/>
      <point x="100" y="689" type="line"/>
      <point x="100" y="0" type="line"/>
      <point x="195" y="0" type="line"/>
      <point x="195" y="285" type="line"/>
    </contour>
    <component base="Yuslittle-cy" xOffset="242"/>
  </outline>
</glyph>
<glyph name="semisoftsign-cy" format="2">
  <advance width="528"/>
  <unicode hex="048D"/>
  <anchor x="264" y="0" name="bottom"/>
  <anchor x="264" y="527" name="top"/>
  <outline>
    <contour>
      <point x="25" y="397" type="line"/>
      <point x="323" y="397" type="line"/>
      <point x="334" y="467" type="line"/>
      <point x="109" y="467" type="line"/>
      <point x="25" y="467" type="line"/>
    </contour>
    <contour>
      <point x="201" y="72" type="line"/>
      <point x="201" y="527" type="line"/>
      <point x="109" y="527" type="line"/>
      <point x="109" y="0" type="line"/>
      <point x="253" y="0" type="line" smooth="yes"/>
      <point x="403" y="0"/>
      <point x="493" y="57"/>
      <point x="493" y="171" type="curve" smooth="yes"/>
      <point x="493" y="279"/>
      <point x="416" y="337"/>
      <point x="256" y="337" type="curve" smooth="yes"/>
      <point x="185" y="337" type="line"/>
      <point x="185" y="267" type="line"/>
      <point x="265" y="267" type="line" smooth="yes"/>
      <point x="350" y="267"/>
      <point x="395" y="236"/>
      <point x="395" y="171" type="curve" smooth="yes"/>
      <point x="395" y="92"/>
      <point x="337" y="72"/>
      <point x="263" y="72" type="curve" smooth="yes"/>
    </contour>
  </outline>
</glyph>
<glyph name="gheupturn-cy" format="2">
  <advance width="427"/>
  <unicode hex="0491"/>
  <anchor x="260" y="527" name="top"/>
  <anchor x="197" y="0" name="bottomright"/>
  <anchor x="141" y="0" name="bottom"/>
  <outline>
    <contour>
      <point x="332" y="517" type="line"/>
      <point x="424" y="527" type="line"/>
      <point x="424" y="662" type="line"/>
      <point x="332" y="662" type="line"/>
    </contour>
    <component base="ge-cy"/>
  </outline>
</glyph>
<glyph name="ghestroke-cy" format="2">
  <advance width="441"/>
  <unicode hex="0493"/>
  <anchor x="272" y="527" name="top"/>
  <anchor x="209" y="0" name="bottomright"/>
  <anchor x="153" y="0" name="bottom"/>
  <outline>
    <contour>
      <point x="313" y="303" type="line"/>
      <point x="107" y="303" type="line"/>
      <point x="25" y="303" type="line"/>
      <point x="25" y="233" type="line"/>
      <point x="313" y="233" type="line"/>
    </contour>
    <component base="ge-cy" xOffset="12"/>
  </outline>
</glyph>
<glyph name="kaverticalstroke-cy" format="2">
  <advance width="532"/>
  <unicode hex="049D"/>
  <anchor x="266" y="0" name="bottom"/>
  <anchor x="266" y="527" name="top"/>
  <outline>
    <contour>
      <point x="493" y="527" type="line"/>
      <point x="396" y="527" type="line"/>
      <point x="292" y="315" type="line"/>
      <point x="187" y="315" type="line"/>
      <point x="187" y="527" type="line"/>
      <point x="95" y="527" type="line"/>
      <point x="95" y="0" type="line"/>
      <point x="187" y="0" type="line"/>
      <point x="187" y="243" type="line"/>
      <point x="291" y="243" type="line"/>
      <point x="410" y="0" type="line"/>
      <point x="512" y="0" type="line"/>
      <point x="369" y="284" type="line"/>
    </contour>
    <contour>
      <point x="270" y="430" type="line"/>
      <point x="223" y="430" type="line"/>
      <point x="223" y="120" type="line"/>
      <point x="270" y="120" type="line"/>
    </contour>
  </outline>
</glyph>
<glyph name="Kastroke-cy" format="2">
  <advance width="593"/>
  <unicode hex="049E"/>
  <anchor x="296" y="689" name="top"/>
  <anchor x="532" y="0" name="bottomright"/>
  <anchor x="298.5" y="0.0" name="bottom"/>
  <outline>
    <contour>
      <point x="20" y="524" type="line"/>
      <point x="299" y="524" type="line"/>
      <point x="299" y="597" type="line"/>
      <point x="104" y="597" type="line"/>
      <point x="20" y="597" type="line"/>
    </contour>
    <component base="Ka-cy" xOffset="4"/>
  </outline>
</glyph>
<glyph name="Kabashkir-cy" format="2">
  <advance width="657"/>
  <unicode hex="04A0"/>
  <anchor x="360" y="689" name="top"/>
  <anchor x="596" y="0" name="bottomright"/>
  <anchor x="362.5" y="0.0" name="bottom"/>
  <outline>
    <contour>
      <point x="243" y="689" type="line"/>
      <point x="0" y="689" type="line"/>
      <point x="0" y="608" type="line"/>
      <point x="188" y="608" type="line"/>
    </contour>
    <component base="Ka-cy" xOffset="68"/>
  </outline>
</glyph>
<glyph name="kabashkir-cy" format="2">
  <advance width="572"/>
  <unicode hex="04A1"/>
  <anchor x="333" y="527" name="top"/>
  <anchor x="509" y="0" name="bottomright"/>
  <anchor x="312.5" y="0.0" name="bottom"/>
  <outline>
    <contour>
      <point x="148" y="457" type="line"/>
      <point x="240" y="527" type="line"/>
      <point x="0" y="527" type="line"/>
      <point x="0" y="457" type="line"/>
    </contour>
    <component base="ka-cy" xOffset="53"/>
  </outline>
</glyph>
<glyph name="enghe-cy" format="2">
  <advance width="651"/>
  <unicode hex="04A5"/>
  <anchor x="297" y="527" name="top"/>
  <anchor x="508" y="0" name="bottomright"/>
  <anchor x="297" y="0" name="bottom"/>
  <outline>
    <contour>
      <point x="498" y="457" type="line"/>
      <point x="641" y="457" type="line"/>
      <point x="651" y="527" type="line"/>
      <point x="406" y="527" type="line"/>
    </contour>
    <component base="en-cy"/>
  </outline>
</glyph>
<glyph name="Ustraitstroke-cy" format="2">
  <advance width="550"/>
  <unicode hex="04B0"/>
  <anchor x="5" y="689" name="topleft"/>
  <anchor x="275" y="689" name="top"/>
  <anchor x="275" y="0" name="bottom"/>
  <outline>
    <contour>
      <point x="443" y="306" type="line"/>
      <point x="323" y="306" type="line"/>
      <point x="107" y="306" type="line"/>
      <point x="107" y="236" type="line"/>
      <point x="227" y="236" type="line"/>
      <point x="443" y="236" type="line"/>
    </contour>
    <component base="Y"/>
  </outline>
</glyph>
<glyph name="ustraitstroke-cy" format="2">
  <advance width="492"/>
  <unicode hex="04B1"/>
  <anchor x="246" y="527" name="top"/>
  <anchor x="246" y="-202" name="bottom"/>
  <outline>
    <contour>
      <point x="201" y="2" type="line"/>
      <point x="291" y="2" type="line"/>
      <point x="395" y="2" type="line"/>
      <point x="395" y="72" type="line"/>
      <point x="97" y="72" type="line"/>
      <point x="97" y="2" type="line"/>
    </contour>
    <component base="ustrait-cy"/>
  </outline>
</glyph>
<glyph name="Tetse-cy" format="2">
  <advance width="786"/>
  <unicode hex="04B4"/>
  <anchor x="393" y="-202" name="bottom"/>
  <anchor x="393" y="689" name="top"/>
  <anchor x="686" y="0" name="bottomright"/>
  <outline>
    <contour>
      <point x="487" y="689" type="line"/>
      <point x="15" y="689" type="line"/>
      <point x="15" y="608" type="line"/>
      <point x="211" y="608" type="line"/>
      <point x="306" y="608" type="line"/>
      <point x="477" y="608" type="line"/>
    </contour>
    <component base="Tse-cy" xOffset="111"/>
  </outline>
</glyph>
<glyph name="tetse-cy" format="2">
  <advance width="679"/>
  <unicode hex="04B5"/>
  <anchor x="339.5" y="-202" name="bottom"/>
  <anchor x="339.5" y="527" name="top"/>
  <anchor x="584" y="0" name="bottomright"/>
  <outline>
    <contour>
      <point x="401" y="527" type="line"/>
      <point x="5" y="527" type="line"/>
      <point x="5" y="457" type="line"/>
      <point x="179" y="457" type="line"/>
      <point x="271" y="457" type="line"/>
      <point x="390" y="457" type="line"/>
    </contour>
    <component base="tse-cy" xOffset="84"/>
  </outline>
</glyph>
<glyph name="Cheverticalstroke-cy" format="2">
  <advance width="612"/>
  <unicode hex="04B8"/>
  <anchor x="276" y="689" name="top"/>
  <anchor x="397" y="0" name="bottomleft"/>
  <anchor x="522" y="0" name="bottomright"/>
  <anchor x="306" y="0" name="bottom"/>
  <outline>
    <contour>
      <point x="310" y="540" type="line"/>
      <point x="251" y="540" type="line"/>
      <point x="251" y="120" type="line"/>
      <point x="310" y="120" type="line"/>
    </contour>
    <component base="Che-cy"/>
  </outline>
</glyph>
<glyph name="cheverticalstroke-cy" format="2">
  <advance width="552"/>
  <unicode hex="04B9"/>
  <anchor x="256" y="527" name="top"/>
  <anchor x="355" y="0" name="bottomleft"/>
  <anchor x="467" y="0" name="bottomright"/>
  <anchor x="276" y="0" name="bottom"/>
  <outline>
    <contour>
      <point x="280" y="390" type="line"/>
      <point x="225" y="390" type="line"/>
      <point x="225" y="90" type="line"/>
      <point x="280" y="90" type="line"/>
    </contour>
    <component base="che-cy"/>
  </outline>
</glyph>
<glyph name="Shha-cy" format="2">
  <advance width="606"/>
  <unicode hex="04BA"/>
  <anchor x="303" y="0" name="bottom"/>
  <anchor x="581" y="0" name="bottomright"/>
  <anchor x="303" y="689" name="top"/>
  <outline>
    <contour>
      <point x="367" y="452" type="curve" smooth="yes"/>
      <point x="282" y="452"/>
      <point x="226" y="421"/>
      <point x="185" y="372" type="curve"/>
      <point x="185" y="284" type="line"/>
      <point x="224" y="338"/>
      <point x="270" y="371"/>
      <point x="345" y="371" type="curve" smooth="yes"/>
      <point x="436" y="371"/>
      <point x="476" y="323"/>
      <point x="476" y="234" type="curve" smooth="yes"/>
      <point x="476" y="0" type="line"/>
      <point x="571" y="0" type="line"/>
      <point x="571" y="235" type="line" smooth="yes"/>
      <point x="571" y="371"/>
      <point x="497" y="452"/>
    </contour>
    <contour>
      <point x="195" y="689" type="line"/>
      <point x="100" y="689" type="line"/>
      <point x="100" y="0" type="line"/>
      <point x="195" y="0" type="line"/>
    </contour>
  </outline>
</glyph>
<glyph name="Chekhakassian-cy" format="2">
  <advance width="612"/>
  <unicode hex="04CB"/>
  <anchor x="306" y="0" name="bottom"/>
  <anchor x="397" y="0" name="bottomleft"/>
  <anchor x="522" y="0" name="bottomright"/>
  <anchor x="276" y="689" name="top"/>
  <outline>
    <contour>
      <point x="352" y="78" type="line"/>
      <point x="352" y="-150" type="line"/>
      <point x="427" y="-150" type="line"/>
      <point x="442" y="0" type="line"/>
      <point x="481" y="0" type="line"/>
      <point x="481" y="78" type="line"/>
    </contour>
    <contour>
      <point x="135" y="689" type="line"/>
      <point x="40" y="689" type="line"/>
      <point x="40" y="424" type="line" smooth="yes"/>
      <point x="40" y="297"/>
      <point x="120" y="217"/>
      <point x="242" y="217" type="curve" smooth="yes"/>
      <point x="321" y="217"/>
      <point x="370" y="240"/>
      <point x="436" y="292" type="curve"/>
      <point x="426" y="365" type="line"/>
      <point x="393" y="329"/>
      <point x="343" y="298"/>
      <point x="266" y="298" type="curve" smooth="yes"/>
      <point x="182" y="298"/>
      <point x="135" y="339"/>
      <point x="135" y="431" type="curve" smooth="yes"/>
    </contour>
    <contour>
      <point x="512" y="689" type="line"/>
      <point x="417" y="689" type="line"/>
      <point x="417" y="0" type="line"/>
      <point x="512" y="0" type="line"/>
    </contour>
  </outline>
</glyph>
<glyph name="chekhakassian-cy" format="2">
  <advance width="552"/>
  <unicode hex="04CC"/>
  <anchor x="276" y="-202" name="bottom"/>
  <anchor x="276" y="527" name="top"/>
  <outline>
    <contour>
      <point x="375" y="240" type="curve"/>
      <point x="374" y="313" type="line"/>
      <point x="348" y="271"/>
      <point x="281" y="244"/>
      <point x="231" y="244" type="curve" smooth="yes"/>
      <point x="174" y="244"/>
      <point x="147" y="271"/>
      <point x="147" y="339" type="curve" smooth="yes"/>
      <point x="147" y="527" type="line"/>
      <point x="55" y="527" type="line"/>
      <point x="55" y="328" type="line" smooth="yes"/>
      <point x="55" y="230"/>
      <point x="105" y="172"/>
      <point x="206" y="172" type="curve" smooth="yes"/>
      <point x="273" y="172"/>
      <point x="338" y="199"/>
    </contour>
    <contour>
      <point x="365" y="527" type="line"/>
      <point x="365" y="0" type="line"/>
      <point x="457" y="0" type="line"/>
      <point x="457" y="527" type="line"/>
    </contour>
    <contour>
      <point x="282" y="74" type="line"/>
      <point x="282" y="-150" type="line"/>
      <point x="357" y="-150" type="line"/>
      <point x="372" y="0" type="line"/>
      <point x="408" y="0" type="line"/>
      <point x="408" y="74" type="line"/>
    </contour>
  </outline>
</glyph>
<glyph name="obarred-cy" format="2">
  <advance width="584"/>
  <unicode hex="04E9"/>
  <anchor x="292" y="0" name="bottom"/>
  <anchor x="291" y="527" name="top"/>
  <outline>
    <contour>
      <point x="293" y="539" type="curve" smooth="yes"/>
      <point x="143" y="539"/>
      <point x="57" y="426"/>
      <point x="57" y="263" type="curve" smooth="yes"/>
      <point x="57" y="96"/>
      <point x="142" y="-12"/>
      <point x="292" y="-12" type="curve" smooth="yes"/>
      <point x="441" y="-12"/>
      <point x="527" y="101"/>
      <point x="527" y="264" type="curve" smooth="yes"/>
      <point x="527" y="431"/>
      <point x="443" y="539"/>
    </contour>
    <contour>
      <point x="293" y="465" type="curve" smooth="yes"/>
      <point x="381" y="465"/>
      <point x="429" y="401"/>
      <point x="429" y="264" type="curve" smooth="yes"/>
      <point x="429" y="126"/>
      <point x="381" y="62"/>
      <point x="292" y="62" type="curve" smooth="yes"/>
      <point x="203" y="62"/>
      <point x="155" y="126"/>
      <point x="155" y="263" type="curve" smooth="yes"/>
      <point x="155" y="401"/>
      <point x="204" y="465"/>
    </contour>
    <contour>
      <point x="443" y="303" type="line"/>
      <point x="141" y="303" type="line"/>
      <point x="141" y="233" type="line"/>
      <point x="442" y="233" type="line"/>
    </contour>
  </outline>
</glyph>
<glyph name="Gestrokehook-cy" format="2">
  <advance width="516"/>
  <unicode hex="04FA"/>
  <anchor x="324" y="689" name="top"/>
  <anchor x="213" y="0" name="bottomright"/>
  <anchor x="156" y="0" name="bottom"/>
  <outline>
    <contour>
      <point x="118" y="78" type="line"/>
      <point x="118" y="0" type="line"/>
      <point x="297" y="0" type="line"/>
      <point x="297" y="78" type="line"/>
    </contour>
    <component base="Ghestroke-cy"/>
    <component base="hookHELPER.case" xOffset="1"/>
  </outline>
</glyph>
<glyph name="gestrokehook-cy" format="2">
  <advance width="441"/>
  <unicode hex="04FB"/>
  <anchor x="220.5" y="-202" name="bottom"/>
  <anchor x="220.5" y="527" name="top"/>
  <anchor x="209" y="0" name="bottomright"/>
  <outline>
    <contour>
      <point x="195" y="74" type="line"/>
      <point x="195" y="0" type="line"/>
      <point x="291" y="0" type="line"/>
      <point x="291" y="74" type="line"/>
    </contour>
    <component base="ghestroke-cy"/>
    <component base="hookHELPER" xOffset="-5"/>
  </outline>
</glyph>
<glyph name="Hastroke-cy" format="2">
  <advance width="540"/>
  <unicode hex="04FE"/>
  <anchor x="270" y="0" name="bottom"/>
  <anchor x="270" y="689" name="top"/>
  <outline>
    <contour>
      <point x="131" y="689" type="line"/>
      <point x="23" y="689" type="line"/>
      <point x="212" y="367" type="line"/>
      <point x="268" y="310" type="line"/>
      <point x="427" y="0" type="line"/>
      <point x="535" y="0" type="line"/>
      <point x="325" y="372" type="line"/>
      <point x="270" y="425" type="line"/>
    </contour>
    <contour>
      <point x="512" y="689" type="line"/>
      <point x="410" y="689" type="line"/>
      <point x="270" y="425" type="line"/>
      <point x="212" y="367" type="line"/>
      <point x="5" y="0" type="line"/>
      <point x="107" y="0" type="line"/>
      <point x="268" y="310" type="line"/>
      <point x="325" y="372" type="line"/>
    </contour>
    <component base="hyphen" xScale="1.5" yScale="0.9" xOffset="-32" yOffset="86"/>
  </outline>
</glyph>
<glyph name="Lha-cy" format="2">
  <advance width="820"/>
  <unicode hex="0514"/>
  <anchor x="410" y="0" name="bottom"/>
  <anchor x="410" y="689" name="top"/>
  <anchor x="766" y="0" name="bottomright"/>
  <outline>
    <contour>
      <point x="37" y="-12" type="line"/>
      <point x="148" y="24"/>
      <point x="196" y="60"/>
      <point x="215" y="312" type="curve" smooth="yes"/>
      <point x="237" y="609" type="line"/>
      <point x="152" y="689" type="line"/>
      <point x="120" y="305" type="line" smooth="yes"/>
      <point x="105" y="126"/>
      <point x="89" y="90"/>
      <point x="14" y="62" type="curve"/>
    </contour>
    <contour>
      <point x="219" y="610" type="line"/>
      <point x="409" y="610" type="line"/>
      <point x="409" y="689" type="line"/>
      <point x="152" y="689" type="line"/>
    </contour>
    <component base="X" xOffset="280"/>
  </outline>
</glyph>
<glyph name="lha-cy" format="2">
  <advance width="712"/>
  <unicode hex="0515"/>
  <anchor x="356" y="0" name="bottom"/>
  <anchor x="356" y="527" name="top"/>
  <anchor x="663" y="0" name="bottomright"/>
  <outline>
    <contour>
      <point x="135" y="527" type="line"/>
      <point x="202" y="454" type="line"/>
      <point x="329" y="454" type="line"/>
      <point x="329" y="527" type="line"/>
    </contour>
    <contour>
      <point x="219" y="454" type="line"/>
      <point x="135" y="527" type="line"/>
      <point x="121" y="286" type="line" smooth="yes"/>
      <point x="111" y="112"/>
      <point x="102" y="85"/>
      <point x="37" y="61" type="curve"/>
      <point x="60" y="-12" type="line"/>
      <point x="174" y="23"/>
      <point x="202" y="75"/>
      <point x="211" y="276" type="curve" smooth="yes"/>
    </contour>
    <component base="x" xOffset="227"/>
  </outline>
</glyph>
<glyph name="Aleutka-cy" format="2">
  <advance width="589"/>
  <unicode hex="051E"/>
  <anchor x="292" y="689" name="top"/>
  <anchor x="528" y="0" name="bottomright"/>
  <anchor x="294.5" y="0.0" name="bottom"/>
  <outline>
    <contour>
      <point x="242" y="577" type="line"/>
      <point x="540" y="390" type="line"/>
      <point x="578" y="449" type="line"/>
      <point x="280" y="636" type="line"/>
    </contour>
    <component base="Ka-cy"/>
  </outline>
</glyph>
<glyph name="aleutka-cy" format="2">
  <advance width="519"/>
  <unicode hex="051F"/>
  <anchor x="259.5" y="0" name="bottom"/>
  <anchor x="259.5" y="527" name="top"/>
  <anchor x="456" y="0" name="bottomright"/>
  <outline>
    <contour>
      <point x="222" y="440" type="line"/>
      <point x="464" y="288" type="line"/>
      <point x="500" y="344" type="line"/>
      <point x="258" y="496" type="line"/>
    </contour>
    <component base="ka-cy"/>
  </outline>
</glyph>
<glyph name="elmiddlehook-cy" format="2">
  <advance width="840"/>
  <unicode hex="0521"/>
  <anchor x="420" y="-202" name="bottom"/>
  <anchor x="420" y="527" name="top"/>
  <anchor x="491" y="0" name="bottomright"/>
  <outline>
    <contour>
      <point x="698" y="0" type="line"/>
      <point x="790" y="0" type="line"/>
      <point x="790" y="183" type="line" smooth="yes"/>
      <point x="790" y="292"/>
      <point x="727" y="349"/>
      <point x="638" y="349" type="curve" smooth="yes"/>
      <point x="560" y="349"/>
      <point x="500" y="305"/>
      <point x="465" y="252" type="curve"/>
      <point x="480" y="195" type="line"/>
      <point x="516" y="240"/>
      <point x="556" y="277"/>
      <point x="617" y="277" type="curve" smooth="yes"/>
      <point x="666" y="277"/>
      <point x="698" y="251"/>
      <point x="698" y="175" type="curve" smooth="yes"/>
    </contour>
    <component base="el-cy"/>
    <component base="hookHELPER" xOffset="494"/>
  </outline>
</glyph>
<glyph name="Enmiddlehook-cy" format="2">
  <advance width="988"/>
  <unicode hex="0522"/>
  <anchor x="494" y="-202" name="bottom"/>
  <anchor x="494" y="689" name="top"/>
  <anchor x="90" y="689" name="topleft"/>
  <anchor x="340" y="345" name="center"/>
  <anchor x="590" y="0" name="bottomright"/>
  <outline>
    <contour>
      <point x="749" y="452" type="curve" smooth="yes"/>
      <point x="664" y="452"/>
      <point x="608" y="421"/>
      <point x="567" y="372" type="curve"/>
      <point x="567" y="284" type="line"/>
      <point x="606" y="338"/>
      <point x="652" y="371"/>
      <point x="727" y="371" type="curve" smooth="yes"/>
      <point x="818" y="371"/>
      <point x="858" y="323"/>
      <point x="858" y="234" type="curve" smooth="yes"/>
      <point x="858" y="0" type="line"/>
      <point x="953" y="0" type="line"/>
      <point x="953" y="235" type="line" smooth="yes"/>
      <point x="953" y="371"/>
      <point x="879" y="452"/>
    </contour>
    <component base="H"/>
    <component base="hookHELPER.case" xOffset="657"/>
  </outline>
</glyph>
<glyph name="uni1D6D" format="2">
  <advance width="686"/>
  <unicode hex="1D6D"/>
  <anchor x="296" y="739" name="top"/>
  <anchor x="298" y="264" name="center"/>
  <anchor x="508" y="739" name="topright"/>
  <anchor x="303" y="0" name="bottom"/>
  <outline>
    <contour>
      <point x="527" y="563" type="curve" smooth="yes"/>
      <point x="600" y="563"/>
      <point x="640" y="613"/>
      <point x="661" y="654" type="curve"/>
      <point x="606" y="684" type="line"/>
      <point x="590" y="658"/>
      <point x="566" y="636"/>
      <point x="533" y="636" type="curve" smooth="yes"/>
      <point x="491" y="636"/>
      <point x="457" y="697"/>
      <point x="380" y="697" type="curve" smooth="yes"/>
      <point x="305" y="697"/>
      <point x="264" y="641"/>
      <point x="243" y="600" type="curve"/>
      <point x="299" y="571" type="line"/>
      <point x="315" y="597"/>
      <point x="338" y="625"/>
      <point x="374" y="625" type="curve" smooth="yes"/>
      <point x="413" y="625"/>
      <point x="447" y="563"/>
    </contour>
    <component base="d" xOffset="-5"/>
  </outline>
</glyph>
<glyph name="acutegraveacute" format="2">
  <advance width="471"/>
  <unicode hex="1DC9"/>
  <anchor x="236" y="527" name="_top"/>
  <anchor x="238" y="795" name="top"/>
  <outline>
    <contour>
      <point x="283" y="653" type="line"/>
      <point x="441" y="738" type="line"/>
      <point x="400" y="795" type="line"/>
      <point x="283" y="717" type="line"/>
      <point x="165" y="795" type="line"/>
      <point x="30" y="698" type="line"/>
      <point x="58" y="653" type="line"/>
      <point x="166" y="715" type="line"/>
    </contour>
  </outline>
</glyph>
<glyph name="dasiavaria" format="2">
  <advance width="342"/>
  <unicode hex="1FDD"/>
  <anchor x="188" y="527" name="_top"/>
  <outline>
    <contour>
      <point x="251" y="799" type="line"/>
      <point x="168" y="778" type="line"/>
      <point x="238" y="577" type="line"/>
      <point x="298" y="593" type="line"/>
    </contour>
    <component base="dasia"/>
  </outline>
</glyph>
<glyph name="dasiaoxia" format="2">
  <advance width="343"/>
  <unicode hex="1FDE"/>
  <anchor x="156" y="527" name="_top"/>
  <outline>
    <contour>
      <point x="210" y="799" type="line"/>
      <point x="163" y="593" type="line"/>
      <point x="223" y="577" type="line"/>
      <point x="293" y="778" type="line"/>
    </contour>
    <component base="dasia"/>
  </outline>
</glyph>
<glyph name="dasiaperispomeni" format="2">
  <advance width="394"/>
  <unicode hex="1FDF"/>
  <anchor x="197" y="527" name="_top"/>
  <anchor x="369" y="860" name="_topleft"/>
  <anchor x="199" y="870" name="top"/>
  <outline>
    <contour>
      <point x="242" y="578" type="line"/>
      <point x="223" y="640" type="line"/>
      <point x="245" y="653"/>
      <point x="255" y="669"/>
      <point x="255" y="691" type="curve" smooth="yes"/>
      <point x="255" y="723"/>
      <point x="230" y="747"/>
      <point x="197" y="747" type="curve" smooth="yes"/>
      <point x="164" y="747"/>
      <point x="140" y="723"/>
      <point x="140" y="691" type="curve" smooth="yes"/>
      <point x="140" y="674"/>
      <point x="145" y="657"/>
      <point x="169" y="614" type="curve" smooth="yes"/>
      <point x="189" y="578" type="line"/>
    </contour>
    <component base="perispomeni" yOffset="96"/>
  </outline>
</glyph>
<glyph name="zerowidthnonjoiner" format="2">
  <unicode hex="200C"/>
  <outline>
    <contour>
      <point x="8" y="750" type="line"/>
      <point x="-8" y="750" type="line"/>
      <point x="-8" y="-150" type="line"/>
      <point x="8" y="-150" type="line"/>
    </contour>
  </outline>
</glyph>
<glyph name="emdash" format="2">
  <advance width="790"/>
  <unicode hex="2014"/>
  <outline>
    <contour>
      <point x="32" y="274" type="line"/>
      <point x="758" y="274" type="line"/>
      <point x="758" y="352" type="line"/>
      <point x="32" y="352" type="line"/>
    </contour>
  </outline>
</glyph>
<glyph name="nmod" format="2">
  <advance width="299"/>
  <unicode hex="207F"/>
  <outline>
    <contour>
      <point x="192" y="400" type="line"/>
      <point x="269" y="400" type="line"/>
      <point x="269" y="593" type="line" smooth="yes"/>
      <point x="269" y="645"/>
      <point x="237" y="673"/>
      <point x="187" y="673" type="curve" smooth="yes"/>
      <point x="144" y="673"/>
      <point x="113" y="656"/>
      <point x="84" y="618" type="curve"/>
      <point x="97" y="582" type="line"/>
      <point x="108" y="599"/>
      <point x="136" y="614"/>
      <point x="163" y="614" type="curve" smooth="yes"/>
      <point x="180" y="614"/>
      <point x="192" y="607"/>
      <point x="192" y="579" type="curve" smooth="yes"/>
    </contour>
    <contour>
      <point x="30" y="400" type="line"/>
      <point x="107" y="400" type="line"/>
      <point x="107" y="609" type="line"/>
      <point x="97" y="665" type="line"/>
      <point x="30" y="665" type="line"/>
    </contour>
  </outline>
</glyph>
<glyph name="arrowdownwhite" format="2">
  <advance width="720"/>
  <unicode hex="21E9"/>
  <outline>
    <contour>
      <point x="441" y="750" type="curve"/>
      <point x="279" y="750" type="line"/>
      <point x="249" y="750"/>
      <point x="229" y="730"/>
      <point x="229" y="700" type="curve" smooth="yes"/>
      <point x="229" y="204" type="line"/>
      <point x="60" y="204" type="line"/>
      <point x="360" y="-94" type="line"/>
      <point x="660" y="204" type="line"/>
      <point x="491" y="204" type="line"/>
      <point x="491" y="700" type="line" smooth="yes"/>
      <point x="491" y="730"/>
      <point x="471" y="750"/>
    </contour>
    <contour>
      <point x="276" y="706" type="line"/>
      <point x="444" y="706" type="line"/>
      <point x="444" y="159" type="line"/>
      <point x="551" y="159" type="line"/>
      <point x="360" y="-30" type="line"/>
      <point x="169" y="159" type="line"/>
      <point x="276" y="159" type="line"/>
    </contour>
  </outline>
</glyph>
<glyph name="emptyset" format="2">
  <advance width="900"/>
  <unicode hex="2205"/>
  <outline>
    <contour>
      <point x="451" y="716" type="curve" smooth="yes"/>
      <point x="248" y="716"/>
      <point x="84" y="554"/>
      <point x="84" y="349" type="curve" smooth="yes"/>
      <point x="84" y="144"/>
      <point x="248" y="-16"/>
      <point x="451" y="-16" type="curve" smooth="yes"/>
      <point x="654" y="-16"/>
      <point x="816" y="144"/>
      <point x="816" y="349" type="curve" smooth="yes"/>
      <point x="816" y="554"/>
      <point x="654" y="716"/>
    </contour>
    <contour>
      <point x="742" y="712" type="line"/>
      <point x="671" y="712" type="line"/>
      <point x="138" y="-12" type="line"/>
      <point x="209" y="-12" type="line"/>
    </contour>
    <contour>
      <point x="451" y="657" type="curve" smooth="yes"/>
      <point x="621" y="657"/>
      <point x="753" y="519"/>
      <point x="753" y="349" type="curve" smooth="yes"/>
      <point x="753" y="179"/>
      <point x="621" y="43"/>
      <point x="451" y="43" type="curve" smooth="yes"/>
      <point x="281" y="43"/>
      <point x="147" y="179"/>
      <point x="147" y="349" type="curve" smooth="yes"/>
      <point x="147" y="519"/>
      <point x="281" y="657"/>
    </contour>
  </outline>
</glyph>
<glyph name="summation" format="2">
  <advance width="503"/>
  <unicode hex="2211"/>
  <outline>
    <contour>
      <point x="453" y="669" type="line"/>
      <point x="50" y="669" type="line"/>
      <point x="50" y="591" type="line"/>
      <point x="254" y="334" type="line"/>
      <point x="50" y="78" type="line"/>
      <point x="50" y="0" type="line"/>
      <point x="453" y="0" type="line"/>
      <point x="453" y="78" type="line"/>
      <point x="157" y="78" type="line"/>
      <point x="341" y="315" type="line"/>
      <point x="341" y="357" type="line"/>
      <point x="157" y="591" type="line"/>
      <point x="453" y="591" type="line"/>
    </contour>
  </outline>
</glyph>
<glyph name="rightBlackTriangle" format="2">
  <advance width="878"/>
  <unicode hex="25B6"/>
  <outline>
    <contour>
      <point x="132" y="-22" type="line"/>
      <point x="781" y="347" type="line"/>
      <point x="132" y="716" type="line"/>
    </contour>
  </outline>
</glyph>
<glyph name="downBlackTriangle" format="2">
  <advance width="878"/>
  <unicode hex="25BC"/>
  <outline>
    <contour>
      <point x="439" y="17" type="line"/>
      <point x="808" y="666" type="line"/>
      <point x="70" y="666" type="line"/>
    </contour>
  </outline>
</glyph>
<glyph name="zNotationSpot" format="2">
  <advance width="627"/>
  <unicode hex="2981"/>
  <outline>
    <contour>
      <point x="314" y="85" type="curve" smooth="yes"/>
      <point x="439" y="85"/>
      <point x="541" y="187"/>
      <point x="541" y="312" type="curve" smooth="yes"/>
      <point x="541" y="437"/>
      <point x="439" y="539"/>
      <point x="314" y="539" type="curve" smooth="yes"/>
      <point x="189" y="539"/>
      <point x="87" y="437"/>
      <point x="87" y="312" type="curve" smooth="yes"/>
      <point x="87" y="187"/>
      <point x="189" y="85"/>
    </contour>
  </outline>
</glyph>
<glyph name="saltillo" format="2">
  <advance width="219"/>
  <unicode hex="A78C"/>
  <outline>
    <contour>
      <point x="74" y="387" type="line"/>
      <point x="145" y="387" type="line"/>
      <point x="159" y="689" type="line"/>
      <point x="60" y="689" type="line"/>
    </contour>
  </outline>
</glyph>
<glyph name="Hturned.sc.ss02" format="2">
  <advance width="541"/>
  <anchor x="270.5" y="0" name="bottom"/>
  <anchor x="270.5" y="564" name="top"/>
  <outline>
    <contour>
      <point x="348" y="0" type="line"/>
      <point x="441" y="0" type="line"/>
      <point x="441" y="564" type="line"/>
      <point x="348" y="564" type="line"/>
      <point x="347" y="288" type="line"/>
      <point x="139" y="288" type="line"/>
      <point x="139" y="564" type="line"/>
      <point x="48" y="564" type="line"/>
      <point x="48" y="213" type="line"/>
      <point x="348" y="213" type="line"/>
    </contour>
  </outline>
</glyph>
<glyph name="Iotaafrican.sc" format="2">
  <advance width="366"/>
  <anchor x="183" y="0" name="bottom"/>
  <anchor x="136" y="564" name="top"/>
  <outline>
    <contour>
      <point x="182" y="564" type="line"/>
      <point x="90" y="564" type="line"/>
      <point x="90" y="202" type="line"/>
      <point x="182" y="202" type="line"/>
    </contour>
    <component base="hookHELPER" xScale="-1" xOffset="386" yOffset="202"/>
  </outline>
</glyph>
<glyph name="Nhookleft.ss01" format="2">
  <advance width="672"/>
  <anchor x="336" y="-202" name="bottom"/>
  <anchor x="336" y="689" name="top"/>
  <outline>
    <contour>
      <point x="394" y="701" type="curve" smooth="yes"/>
      <point x="300" y="701"/>
      <point x="235" y="657"/>
      <point x="179" y="594" type="curve"/>
      <point x="195" y="530" type="line"/>
      <point x="250" y="586"/>
      <point x="295" y="623"/>
      <point x="374" y="623" type="curve" smooth="yes"/>
      <point x="452" y="623"/>
      <point x="484" y="577"/>
      <point x="484" y="488" type="curve" smooth="yes"/>
      <point x="484" y="0" type="line"/>
      <point x="579" y="0" type="line"/>
      <point x="579" y="507" type="line" smooth="yes"/>
      <point x="579" y="617"/>
      <point x="522" y="701"/>
    </contour>
    <contour>
      <point x="182" y="689" type="line"/>
      <point x="100" y="689" type="line"/>
      <point x="100" y="0" type="line"/>
      <point x="195" y="0" type="line"/>
      <point x="195" y="560" type="line"/>
    </contour>
    <component base="hookHELPER.case" xOffset="-101"/>
  </outline>
</glyph>
<glyph name="TseHelper-cy" format="2">
  <advance width="665"/>
  <anchor x="327" y="0" name="bottom"/>
  <anchor x="575" y="0" name="bottomright"/>
  <outline>
    <contour>
      <point x="565" y="0" type="line"/>
      <point x="565" y="689" type="line"/>
      <point x="470" y="689" type="line"/>
      <point x="470" y="78" type="line"/>
      <point x="195" y="78" type="line"/>
      <point x="195" y="689" type="line"/>
      <point x="100" y="689" type="line"/>
      <point x="100" y="0" type="line"/>
    </contour>
  </outline>
</glyph>
<glyph name="a.sc" format="2">
  <advance width="505"/>
  <anchor x="251" y="0" name="bottom"/>
  <anchor x="479" y="0" name="ogonek"/>
  <anchor x="253" y="564" name="top"/>
  <outline>
    <contour>
      <point x="310" y="564" type="line"/>
      <point x="196" y="564" type="line"/>
      <point x="6" y="0" type="line"/>
      <point x="100" y="0" type="line"/>
      <point x="251" y="490" type="line"/>
      <point x="402" y="0" type="line"/>
      <point x="499" y="0" type="line"/>
    </contour>
    <contour>
      <point x="364" y="209" type="line"/>
      <point x="140" y="209" type="line"/>
      <point x="119" y="137" type="line"/>
      <point x="385" y="137" type="line"/>
    </contour>
  </outline>
</glyph>
<glyph name="acute.case.loclPLK" format="2">
  <advance width="296"/>
  <anchor x="148" y="689" name="_top"/>
  <outline>
    <contour>
      <point x="200" y="926" type="line"/>
      <point x="95" y="762" type="line"/>
      <point x="140" y="734" type="line"/>
      <point x="272" y="879" type="line"/>
    </contour>
  </outline>
</glyph>
<glyph name="acute.sc.loclPLK" format="2">
  <advance width="296"/>
  <anchor x="148" y="564" name="_top"/>
  <outline>
    <contour>
      <point x="199" y="819" type="line"/>
      <point x="95" y="647" type="line"/>
      <point x="140" y="619" type="line"/>
      <point x="271" y="772" type="line"/>
    </contour>
  </outline>
</glyph>
<glyph name="acutedbl" format="2">
  <advance width="248"/>
  <anchor x="70" y="527" name="_top"/>
  <anchor x="50" y="527" name="_topright"/>
  <outline>
    <contour>
      <point x="148" y="803" type="line"/>
      <point x="30" y="658" type="line"/>
      <point x="68" y="623" type="line"/>
      <point x="204" y="749" type="line"/>
    </contour>
  </outline>
</glyph>
<glyph name="ae.sc" format="2">
  <advance width="720"/>
  <anchor x="360" y="0" name="bottom"/>
  <anchor x="403" y="564" name="top"/>
  <outline>
    <contour>
      <point x="631" y="564" type="line"/>
      <point x="225" y="564" type="line"/>
      <point x="-12" y="0" type="line"/>
      <point x="84" y="0" type="line"/>
      <point x="278" y="492" type="line"/>
      <point x="394" y="0" type="line"/>
      <point x="666" y="0" type="line"/>
      <point x="666" y="71" type="line"/>
      <point x="465" y="71" type="line"/>
      <point x="365" y="493" type="line"/>
      <point x="621" y="493" type="line"/>
    </contour>
    <contour>
      <point x="359" y="209" type="line"/>
      <point x="149" y="209" type="line"/>
      <point x="123" y="137" type="line"/>
      <point x="375" y="137" type="line"/>
    </contour>
    <contour>
      <point x="624" y="322" type="line"/>
      <point x="391" y="322" type="line"/>
      <point x="408" y="251" type="line"/>
      <point x="624" y="251" type="line"/>
    </contour>
  </outline>
</glyph>
<glyph name="aleutka-cy.sc" format="2">
  <advance width="564"/>
  <anchor x="316" y="564" name="top"/>
  <anchor x="503" y="0" name="bottomright"/>
  <anchor x="282" y="0" name="bottom"/>
  <outline>
    <contour>
      <point x="227" y="466" type="line"/>
      <point x="481" y="317" type="line"/>
      <point x="513" y="367" type="line"/>
      <point x="259" y="517" type="line"/>
    </contour>
    <component base="ka-cy.sc"/>
  </outline>
</glyph>
<glyph name="caron.alt" format="2">
  <advance width="164"/>
  <anchor x="30" y="689" name="_topright"/>
  <outline>
    <contour>
      <point x="85" y="699" type="line"/>
      <point x="65" y="513" type="line"/>
      <point x="118" y="505" type="line"/>
      <point x="168" y="689" type="line"/>
    </contour>
  </outline>
</glyph>
<glyph name="caroncomb.case" format="2">
  <anchor x="196" y="689" name="_top"/>
  <anchor x="198" y="909" name="top"/>
  <outline>
    <contour>
      <point x="323" y="909" type="line"/>
      <point x="196" y="828" type="line"/>
      <point x="70" y="909" type="line"/>
      <point x="30" y="864" type="line"/>
      <point x="166" y="754" type="line"/>
      <point x="227" y="754" type="line"/>
      <point x="362" y="864" type="line"/>
    </contour>
  </outline>
</glyph>
<glyph name="che-cy.sc" format="2">
  <advance width="557"/>
  <anchor x="278.5" y="0" name="bottom"/>
  <anchor x="355" y="0" name="bottomleft"/>
  <anchor x="467" y="0" name="bottomright"/>
  <anchor x="249" y="564" name="top"/>
  <outline>
    <contour>
      <point x="132" y="564" type="line"/>
      <point x="40" y="564" type="line"/>
      <point x="40" y="351" type="line" smooth="yes"/>
      <point x="40" y="243"/>
      <point x="109" y="175"/>
      <point x="217" y="175" type="curve" smooth="yes"/>
      <point x="284" y="175"/>
      <point x="326" y="194"/>
      <point x="380" y="235" type="curve"/>
      <point x="373" y="301" type="line"/>
      <point x="346" y="273"/>
      <point x="304" y="250"/>
      <point x="240" y="250" type="curve" smooth="yes"/>
      <point x="170" y="250"/>
      <point x="132" y="282"/>
      <point x="132" y="356" type="curve" smooth="yes"/>
    </contour>
    <contour>
      <point x="457" y="564" type="line"/>
      <point x="365" y="564" type="line"/>
      <point x="365" y="0" type="line"/>
      <point x="457" y="0" type="line"/>
    </contour>
  </outline>
</glyph>
<glyph name="cheverticalstroke-cy.sc" format="2">
  <advance width="571"/>
  <anchor x="249" y="564" name="top"/>
  <anchor x="355" y="0" name="bottomleft"/>
  <anchor x="467" y="0" name="bottomright"/>
  <anchor x="278.5" y="0.0" name="bottom"/>
  <outline>
    <contour>
      <point x="273" y="427" type="line"/>
      <point x="218" y="427" type="line"/>
      <point x="218" y="92" type="line"/>
      <point x="273" y="92" type="line"/>
    </contour>
    <component base="che-cy.sc"/>
  </outline>
</glyph>
<glyph name="circumflex.case" format="2">
  <advance width="392"/>
  <outline>
    <contour>
      <point x="323" y="759" type="line"/>
      <point x="362" y="804" type="line"/>
      <point x="227" y="914" type="line"/>
      <point x="166" y="914" type="line"/>
      <point x="30" y="804" type="line"/>
      <point x="70" y="759" type="line"/>
      <point x="196" y="840" type="line"/>
    </contour>
  </outline>
</glyph>
<glyph name="circumflexcomb.case" format="2">
  <advance width="392"/>
  <anchor x="197" y="689" name="_top"/>
  <anchor x="197" y="914" name="top"/>
  <anchor x="85" y="786" name="topleft"/>
  <anchor x="309" y="786" name="topright"/>
  <outline>
    <contour>
      <point x="323" y="759" type="line"/>
      <point x="362" y="804" type="line"/>
      <point x="227" y="914" type="line"/>
      <point x="166" y="914" type="line"/>
      <point x="30" y="804" type="line"/>
      <point x="70" y="759" type="line"/>
      <point x="196" y="840" type="line"/>
    </contour>
  </outline>
</glyph>
<glyph name="cstroke.sc" format="2">
  <advance width="502"/>
  <anchor x="311" y="564" name="top"/>
  <anchor x="310" y="0" name="bottom"/>
  <outline>
    <contour>
      <point x="359" y="618" type="line"/>
      <point x="173" y="-52" type="line"/>
      <point x="216" y="-62" type="line"/>
      <point x="401" y="608" type="line"/>
    </contour>
    <component base="c.sc"/>
  </outline>
</glyph>
<glyph name="d.sc" format="2">
  <advance width="587"/>
  <anchor x="289" y="0" name="bottom"/>
  <anchor x="298" y="283" name="center"/>
  <anchor x="279" y="564" name="top"/>
  <outline>
    <contour>
      <point x="232" y="564" type="curve" smooth="yes"/>
      <point x="100" y="564" type="line"/>
      <point x="100" y="0" type="line"/>
      <point x="249" y="0" type="line" smooth="yes"/>
      <point x="381" y="0"/>
      <point x="532" y="56"/>
      <point x="532" y="286" type="curve" smooth="yes"/>
      <point x="532" y="518"/>
      <point x="385" y="564"/>
    </contour>
    <contour>
      <point x="250" y="493" type="line" smooth="yes"/>
      <point x="344" y="493"/>
      <point x="435" y="465"/>
      <point x="435" y="286" type="curve" smooth="yes"/>
      <point x="435" y="108"/>
      <point x="348" y="70"/>
      <point x="256" y="70" type="curve" smooth="yes"/>
      <point x="192" y="70" type="line"/>
      <point x="192" y="493" type="line"/>
    </contour>
  </outline>
</glyph>
<glyph name="daggerdbl.tf" format="2">
  <advance width="560"/>
  <outline>
    <contour>
      <point x="503" y="269" type="line"/>
      <point x="57" y="269" type="line"/>
      <point x="57" y="192" type="line"/>
      <point x="503" y="192" type="line"/>
    </contour>
    <component base="dagger.tf"/>
  </outline>
</glyph>
<glyph name="dasia.case" format="2">
  <advance width="100"/>
  <anchor x="192" y="689" name="_topleft"/>
  <anchor x="92" y="699" name="top"/>
  <outline>
    <contour>
      <point x="87" y="699" type="curve" smooth="yes"/>
      <point x="55" y="699"/>
      <point x="30" y="675"/>
      <point x="30" y="643" type="curve" smooth="yes"/>
      <point x="30" y="626"/>
      <point x="35" y="610"/>
      <point x="56" y="566" type="curve" smooth="yes"/>
      <point x="97" y="480" type="line"/>
      <point x="150" y="480" type="line"/>
      <point x="121" y="596" type="line"/>
      <point x="135" y="608"/>
      <point x="145" y="624"/>
      <point x="145" y="643" type="curve" smooth="yes"/>
      <point x="145" y="675"/>
      <point x="119" y="699"/>
    </contour>
  </outline>
</glyph>
<glyph name="dasiaoxia.case" format="2">
  <advance width="236"/>
  <anchor x="331" y="689" name="_topleft"/>
  <anchor x="166" y="693" name="top"/>
  <outline>
    <contour>
      <point x="213" y="690" type="line"/>
      <point x="166" y="484" type="line"/>
      <point x="226" y="468" type="line"/>
      <point x="296" y="669" type="line"/>
    </contour>
    <contour>
      <point x="87" y="693" type="curve" smooth="yes"/>
      <point x="55" y="693"/>
      <point x="30" y="669"/>
      <point x="30" y="637" type="curve" smooth="yes"/>
      <point x="30" y="620"/>
      <point x="35" y="604"/>
      <point x="56" y="560" type="curve" smooth="yes"/>
      <point x="97" y="474" type="line"/>
      <point x="150" y="474" type="line"/>
      <point x="121" y="590" type="line"/>
      <point x="135" y="602"/>
      <point x="145" y="618"/>
      <point x="145" y="637" type="curve" smooth="yes"/>
      <point x="145" y="669"/>
      <point x="119" y="693"/>
    </contour>
  </outline>
</glyph>
<glyph name="dasiaperispomeni.case" format="2">
  <advance width="241"/>
  <anchor x="316" y="689" name="_topleft"/>
  <anchor x="146" y="699" name="top"/>
  <outline>
    <contour>
      <point x="189" y="407" type="line"/>
      <point x="170" y="469" type="line"/>
      <point x="192" y="482"/>
      <point x="202" y="498"/>
      <point x="202" y="520" type="curve" smooth="yes"/>
      <point x="202" y="552"/>
      <point x="177" y="576"/>
      <point x="144" y="576" type="curve" smooth="yes"/>
      <point x="111" y="576"/>
      <point x="87" y="552"/>
      <point x="87" y="520" type="curve" smooth="yes"/>
      <point x="87" y="503"/>
      <point x="92" y="486"/>
      <point x="116" y="443" type="curve" smooth="yes"/>
      <point x="136" y="407" type="line"/>
    </contour>
    <component base="perispomeni" xOffset="-53" yOffset="-75"/>
  </outline>
</glyph>
<glyph name="descRound-cy" format="2">
  <advance width="286"/>
  <anchor x="146" y="0" name="_bottom"/>
  <outline>
    <contour>
      <point x="105" y="25" type="curve"/>
      <point x="88" y="0" type="line"/>
      <point x="151" y="-35"/>
      <point x="179" y="-80"/>
      <point x="179" y="-124" type="curve" smooth="yes"/>
      <point x="179" y="-158"/>
      <point x="160" y="-180"/>
      <point x="122" y="-180" type="curve" smooth="yes"/>
      <point x="89" y="-180"/>
      <point x="69" y="-170"/>
      <point x="53" y="-162" type="curve"/>
      <point x="30" y="-216" type="line"/>
      <point x="52" y="-229"/>
      <point x="83" y="-241"/>
      <point x="128" y="-241" type="curve" smooth="yes"/>
      <point x="207" y="-241"/>
      <point x="256" y="-196"/>
      <point x="256" y="-129" type="curve" smooth="yes"/>
      <point x="256" y="-57"/>
      <point x="195" y="-5"/>
    </contour>
  </outline>
</glyph>
<glyph name="descStraight-cy" format="2">
  <advance width="194"/>
  <anchor x="114" y="0" name="_bottom"/>
  <anchor x="86" y="0" name="_bottomleft"/>
  <anchor x="89" y="0" name="_bottomright"/>
  <outline>
    <contour>
      <point x="159" y="74" type="line"/>
      <point x="33" y="74" type="line"/>
      <point x="33" y="0" type="line"/>
      <point x="69" y="0" type="line"/>
      <point x="84" y="-150" type="line"/>
      <point x="159" y="-150" type="line"/>
    </contour>
  </outline>
</glyph>
<glyph name="descTail-cy.case" format="2">
  <advance width="194"/>
  <anchor x="114" y="0" name="_bottom"/>
  <anchor x="-11" y="0" name="_bottomleft"/>
  <anchor x="89" y="0" name="_bottomright"/>
  <outline>
    <contour>
      <point x="189" y="78" type="line"/>
      <point x="30" y="78" type="line"/>
      <point x="30" y="0" type="line"/>
      <point x="69" y="0" type="line"/>
      <point x="34" y="-150" type="line"/>
      <point x="109" y="-150" type="line"/>
    </contour>
  </outline>
</glyph>
<glyph name="dieresiscaroncomb" format="2">
  <anchor x="199" y="527" name="_top"/>
  <outline>
    <contour>
      <point x="303" y="738" type="curve" smooth="yes"/>
      <point x="271" y="738"/>
      <point x="246" y="713"/>
      <point x="246" y="681" type="curve" smooth="yes"/>
      <point x="246" y="649"/>
      <point x="271" y="624"/>
      <point x="303" y="624" type="curve" smooth="yes"/>
      <point x="336" y="624"/>
      <point x="361" y="649"/>
      <point x="361" y="681" type="curve" smooth="yes"/>
      <point x="361" y="713"/>
      <point x="336" y="738"/>
    </contour>
    <contour>
      <point x="94" y="738" type="curve" smooth="yes"/>
      <point x="61" y="738"/>
      <point x="36" y="713"/>
      <point x="36" y="681" type="curve" smooth="yes"/>
      <point x="36" y="649"/>
      <point x="61" y="624"/>
      <point x="94" y="624" type="curve" smooth="yes"/>
      <point x="126" y="624"/>
      <point x="151" y="649"/>
      <point x="151" y="681" type="curve" smooth="yes"/>
      <point x="151" y="713"/>
      <point x="126" y="738"/>
    </contour>
    <component base="caroncomb.case" yOffset="-10"/>
  </outline>
</glyph>
<glyph name="dieresisgravecomb.case" format="2">
  <anchor x="193" y="689" name="_top"/>
  <outline>
    <contour>
      <point x="297" y="860" type="curve" smooth="yes"/>
      <point x="265" y="860"/>
      <point x="240" y="835"/>
      <point x="240" y="803" type="curve" smooth="yes"/>
      <point x="240" y="771"/>
      <point x="265" y="746"/>
      <point x="297" y="746" type="curve" smooth="yes"/>
      <point x="330" y="746"/>
      <point x="355" y="771"/>
      <point x="355" y="803" type="curve" smooth="yes"/>
      <point x="355" y="835"/>
      <point x="330" y="860"/>
    </contour>
    <contour>
      <point x="88" y="860" type="curve" smooth="yes"/>
      <point x="55" y="860"/>
      <point x="30" y="835"/>
      <point x="30" y="803" type="curve" smooth="yes"/>
      <point x="30" y="771"/>
      <point x="55" y="746"/>
      <point x="88" y="746" type="curve" smooth="yes"/>
      <point x="120" y="746"/>
      <point x="145" y="771"/>
      <point x="145" y="803" type="curve" smooth="yes"/>
      <point x="145" y="835"/>
      <point x="120" y="860"/>
    </contour>
    <component base="gravedbl" xOffset="13" yOffset="212"/>
  </outline>
</glyph>
<glyph name="digamma.sc" format="2">
  <advance width="460"/>
  <anchor x="273" y="564" name="top"/>
  <anchor x="200" y="0" name="bottomright"/>
  <anchor x="146" y="0" name="bottom"/>
  <outline>
    <contour>
      <point x="372" y="229" type="curve"/>
      <point x="395" y="296" type="line"/>
      <point x="366" y="311"/>
      <point x="340" y="318"/>
      <point x="291" y="318" type="curve" smooth="yes"/>
      <point x="103" y="318" type="line"/>
      <point x="103" y="243" type="line"/>
      <point x="283" y="243" type="line" smooth="yes"/>
      <point x="326" y="243"/>
      <point x="349" y="237"/>
    </contour>
    <component base="gamma.sc"/>
  </outline>
</glyph>
<glyph name="dje-cy.sc" format="2">
  <advance width="625"/>
  <anchor x="312.5" y="0" name="bottom"/>
  <anchor x="312.5" y="564" name="top"/>
  <outline>
    <contour>
      <point x="265" y="555" type="line"/>
      <point x="173" y="555" type="line"/>
      <point x="173" y="0" type="line"/>
      <point x="265" y="0" type="line"/>
    </contour>
    <contour>
      <point x="590" y="156" type="line"/>
      <point x="498" y="156" type="line"/>
      <point x="498" y="84" type="line" smooth="yes"/>
      <point x="498" y="11"/>
      <point x="482" y="-23"/>
      <point x="404" y="-53" type="curve"/>
      <point x="428" y="-119" type="line"/>
      <point x="525" y="-90"/>
      <point x="590" y="-44"/>
      <point x="590" y="81" type="curve" smooth="yes"/>
    </contour>
    <contour>
      <point x="411" y="374" type="curve" smooth="yes"/>
      <point x="339" y="374"/>
      <point x="292" y="350"/>
      <point x="256" y="312" type="curve"/>
      <point x="257" y="235" type="line"/>
      <point x="289" y="275"/>
      <point x="327" y="300"/>
      <point x="389" y="300" type="curve" smooth="yes"/>
      <point x="464" y="300"/>
      <point x="498" y="262"/>
      <point x="498" y="191" type="curve" smooth="yes"/>
      <point x="498" y="131" type="line"/>
      <point x="590" y="131" type="line"/>
      <point x="590" y="191" type="line" smooth="yes"/>
      <point x="590" y="306"/>
      <point x="526" y="374"/>
    </contour>
    <contour>
      <point x="431" y="564" type="line"/>
      <point x="15" y="564" type="line"/>
      <point x="15" y="492" type="line"/>
      <point x="419" y="492" type="line"/>
    </contour>
  </outline>
</glyph>
<glyph name="e.sc" format="2">
  <advance width="490"/>
  <anchor x="268" y="0" name="bottom"/>
  <anchor x="416" y="0" name="ogonek"/>
  <anchor x="268" y="564" name="top"/>
  <outline>
    <contour>
      <point x="431" y="564" type="line"/>
      <point x="100" y="564" type="line"/>
      <point x="100" y="0" type="line"/>
      <point x="436" y="0" type="line"/>
      <point x="436" y="71" type="line"/>
      <point x="192" y="71" type="line"/>
      <point x="192" y="252" type="line"/>
      <point x="391" y="252" type="line"/>
      <point x="391" y="323" type="line"/>
      <point x="192" y="323" type="line"/>
      <point x="192" y="493" type="line"/>
      <point x="421" y="493" type="line"/>
    </contour>
  </outline>
</glyph>
<glyph name="elmiddlehook-cy.sc" format="2">
  <advance width="829"/>
  <anchor x="414.5" y="-202" name="bottom"/>
  <anchor x="414.5" y="564" name="top"/>
  <anchor x="479" y="0" name="bottomright"/>
  <outline>
    <contour>
      <point x="615" y="374" type="curve" smooth="yes"/>
      <point x="543" y="374"/>
      <point x="496" y="350"/>
      <point x="460" y="312" type="curve"/>
      <point x="461" y="235" type="line"/>
      <point x="493" y="275"/>
      <point x="531" y="300"/>
      <point x="593" y="300" type="curve" smooth="yes"/>
      <point x="668" y="300"/>
      <point x="702" y="262"/>
      <point x="702" y="191" type="curve" smooth="yes"/>
      <point x="702" y="0" type="line"/>
      <point x="794" y="0" type="line"/>
      <point x="794" y="191" type="line" smooth="yes"/>
      <point x="794" y="306"/>
      <point x="730" y="374"/>
    </contour>
    <component base="el-cy.sc"/>
    <component base="hookHELPER" xOffset="498"/>
  </outline>
</glyph>
<glyph name="enmiddlehook-cy.sc" format="2">
  <advance width="885"/>
  <anchor x="442.5" y="-202" name="bottom"/>
  <anchor x="442.5" y="564" name="top"/>
  <anchor x="312" y="283" name="center"/>
  <anchor x="533" y="0" name="bottomright"/>
  <outline>
    <contour>
      <point x="671" y="374" type="curve" smooth="yes"/>
      <point x="599" y="374"/>
      <point x="552" y="350"/>
      <point x="516" y="312" type="curve"/>
      <point x="517" y="235" type="line"/>
      <point x="549" y="275"/>
      <point x="587" y="300"/>
      <point x="649" y="300" type="curve" smooth="yes"/>
      <point x="724" y="300"/>
      <point x="758" y="262"/>
      <point x="758" y="191" type="curve" smooth="yes"/>
      <point x="758" y="0" type="line"/>
      <point x="850" y="0" type="line"/>
      <point x="850" y="191" type="line" smooth="yes"/>
      <point x="850" y="306"/>
      <point x="786" y="374"/>
    </contour>
    <component base="h.sc"/>
    <component base="hookHELPER" xOffset="554"/>
  </outline>
</glyph>
<glyph name="estroke.sc" format="2">
  <advance width="490"/>
  <anchor x="268" y="564" name="top"/>
  <anchor x="416" y="0" name="ogonek"/>
  <anchor x="268" y="0" name="bottom"/>
  <outline>
    <contour>
      <point x="345" y="618" type="line"/>
      <point x="159" y="-52" type="line"/>
      <point x="202" y="-62" type="line"/>
      <point x="387" y="608" type="line"/>
    </contour>
    <component base="e.sc"/>
  </outline>
</glyph>
<glyph name="eth.sc" format="2">
  <advance width="587"/>
  <anchor x="279" y="564" name="top"/>
  <anchor x="298" y="283" name="center"/>
  <anchor x="289" y="0" name="bottom"/>
  <outline>
    <contour>
      <point x="40" y="256" type="line"/>
      <point x="303" y="256" type="line"/>
      <point x="303" y="325" type="line"/>
      <point x="100" y="325" type="line"/>
      <point x="40" y="325" type="line"/>
    </contour>
    <component base="d.sc"/>
  </outline>
</glyph>
<glyph name="f.sc" format="2">
  <advance width="449"/>
  <anchor x="224.5" y="0" name="bottom"/>
  <anchor x="224.5" y="564" name="top"/>
  <outline>
    <contour>
      <point x="424" y="564" type="line"/>
      <point x="100" y="564" type="line"/>
      <point x="100" y="0" type="line"/>
      <point x="192" y="0" type="line"/>
      <point x="192" y="243" type="line"/>
      <point x="383" y="243" type="line"/>
      <point x="383" y="313" type="line"/>
      <point x="192" y="313" type="line"/>
      <point x="192" y="493" type="line"/>
      <point x="413" y="493" type="line"/>
    </contour>
  </outline>
</glyph>
<glyph name="ge-cy.sc" format="2">
  <advance width="445"/>
  <anchor x="146" y="0" name="bottom"/>
  <anchor x="200" y="0" name="bottomright"/>
  <anchor x="273" y="564" name="top"/>
  <outline>
    <contour>
      <point x="100" y="564" type="line"/>
      <point x="100" y="0" type="line"/>
      <point x="192" y="0" type="line"/>
      <point x="192" y="504" type="line"/>
    </contour>
    <contour>
      <point x="435" y="564" type="line"/>
      <point x="100" y="564" type="line"/>
      <point x="179" y="487" type="line"/>
      <point x="422" y="487" type="line"/>
    </contour>
  </outline>
</glyph>
<glyph name="ghestroke-cy.sc" format="2">
  <advance width="442"/>
  <anchor x="270" y="564" name="top"/>
  <anchor x="197" y="0" name="bottomright"/>
  <anchor x="143" y="0" name="bottom"/>
  <outline>
    <contour>
      <point x="328" y="336" type="line"/>
      <point x="97" y="336" type="line"/>
      <point x="10" y="336" type="line"/>
      <point x="10" y="264" type="line"/>
      <point x="328" y="264" type="line"/>
    </contour>
    <component base="ge-cy.sc" xOffset="-3"/>
  </outline>
</glyph>
<glyph name="gheupturn-cy.sc" format="2">
  <advance width="445"/>
  <anchor x="273" y="564" name="top"/>
  <anchor x="200" y="0" name="bottomright"/>
  <anchor x="146" y="0" name="bottom"/>
  <outline>
    <contour>
      <point x="348" y="554" type="line"/>
      <point x="435" y="564" type="line"/>
      <point x="435" y="689" type="line"/>
      <point x="348" y="689" type="line"/>
    </contour>
    <component base="ge-cy.sc"/>
  </outline>
</glyph>
<glyph name="gravecomb.case" format="2">
  <anchor x="160" y="689" name="_top"/>
  <anchor x="160" y="911" name="top"/>
  <outline>
    <contour>
      <point x="69" y="911" type="line"/>
      <point x="30" y="834" type="line"/>
      <point x="246" y="755" type="line"/>
      <point x="270" y="804" type="line"/>
    </contour>
  </outline>
</glyph>
<glyph name="gravedbl" format="2">
  <advance width="248"/>
  <anchor x="179" y="527" name="_top"/>
  <anchor x="199" y="527" name="_topleft"/>
  <outline>
    <contour>
      <point x="100" y="803" type="line"/>
      <point x="44" y="749" type="line"/>
      <point x="180" y="623" type="line"/>
      <point x="218" y="658" type="line"/>
    </contour>
  </outline>
</glyph>
<glyph name="h.sc" format="2">
  <advance width="625"/>
  <anchor x="312" y="0" name="bottom"/>
  <anchor x="533" y="0" name="bottomright"/>
  <anchor x="312" y="283" name="center"/>
  <anchor x="312" y="564" name="top"/>
  <outline>
    <contour>
      <point x="525" y="564" type="line"/>
      <point x="433" y="564" type="line"/>
      <point x="433" y="334" type="line"/>
      <point x="192" y="334" type="line"/>
      <point x="192" y="564" type="line"/>
      <point x="100" y="564" type="line"/>
      <point x="100" y="0" type="line"/>
      <point x="192" y="0" type="line"/>
      <point x="192" y="259" type="line"/>
      <point x="433" y="259" type="line"/>
      <point x="433" y="0" type="line"/>
      <point x="525" y="0" type="line"/>
    </contour>
  </outline>
</glyph>
<glyph name="hastroke-cy.sc" format="2">
  <advance width="477"/>
  <anchor x="238.5" y="0" name="bottom"/>
  <anchor x="238.5" y="564" name="top"/>
  <outline>
    <contour>
      <point x="124" y="564" type="line"/>
      <point x="21" y="564" type="line"/>
      <point x="187" y="301" type="line"/>
      <point x="237" y="247" type="line"/>
      <point x="368" y="0" type="line"/>
      <point x="472" y="0" type="line"/>
      <point x="287" y="305" type="line"/>
      <point x="238" y="356" type="line"/>
    </contour>
    <contour>
      <point x="453" y="564" type="line"/>
      <point x="354" y="564" type="line"/>
      <point x="238" y="356" type="line"/>
      <point x="187" y="301" type="line"/>
      <point x="5" y="0" type="line"/>
      <point x="104" y="0" type="line"/>
      <point x="237" y="247" type="line"/>
      <point x="287" y="305" type="line"/>
    </contour>
    <component base="hyphen" xScale="1.3" yScale="0.9" xOffset="-24" yOffset="20"/>
  </outline>
</glyph>
<glyph name="hbar.sc" format="2">
  <advance width="612"/>
  <anchor x="306" y="564" name="top"/>
  <anchor x="306" y="283" name="center"/>
  <anchor x="527" y="0" name="bottomright"/>
  <anchor x="306" y="0" name="bottom"/>
  <outline>
    <contour>
      <point x="577" y="490" type="line"/>
      <point x="518" y="490" type="line"/>
      <point x="35" y="490" type="line"/>
      <point x="35" y="422" type="line"/>
      <point x="94" y="422" type="line"/>
      <point x="577" y="422" type="line"/>
    </contour>
    <component base="h.sc" xOffset="-6"/>
  </outline>
</glyph>
<glyph name="hookabovecomb.case" format="2">
  <anchor x="121" y="689" name="_top"/>
  <anchor x="80" y="689" name="_topright"/>
  <anchor x="133" y="987" name="top"/>
  <outline>
    <contour>
      <point x="82" y="763" type="line"/>
      <point x="151" y="763" type="line"/>
      <point x="151" y="811" type="line"/>
      <point x="201" y="819"/>
      <point x="232" y="847"/>
      <point x="232" y="897" type="curve" smooth="yes"/>
      <point x="232" y="953"/>
      <point x="193" y="988"/>
      <point x="124" y="988" type="curve" smooth="yes"/>
      <point x="83" y="988"/>
      <point x="54" y="978"/>
      <point x="30" y="964" type="curve"/>
      <point x="52" y="911" type="line"/>
      <point x="70" y="921"/>
      <point x="87" y="926"/>
      <point x="109" y="926" type="curve" smooth="yes"/>
      <point x="135" y="926"/>
      <point x="153" y="915"/>
      <point x="153" y="890" type="curve" smooth="yes"/>
      <point x="153" y="859"/>
      <point x="127" y="853"/>
      <point x="82" y="847" type="curve"/>
    </contour>
  </outline>
</glyph>
<glyph name="ia-cy.sc" format="2">
  <advance width="541"/>
  <anchor x="270.5" y="0" name="bottom"/>
  <anchor x="270.5" y="564" name="top"/>
  <outline>
    <contour>
      <point x="242" y="229" type="line"/>
      <point x="157" y="248" type="line"/>
      <point x="20" y="0" type="line"/>
      <point x="124" y="0" type="line"/>
    </contour>
    <contour>
      <point x="155" y="232" type="curve"/>
      <point x="212" y="218" type="line"/>
      <point x="363" y="218" type="line"/>
      <point x="363" y="287" type="line"/>
      <point x="249" y="287" type="line" smooth="yes"/>
      <point x="182" y="287"/>
      <point x="134" y="320"/>
      <point x="134" y="389" type="curve" smooth="yes"/>
      <point x="134" y="458"/>
      <point x="174" y="495"/>
      <point x="273" y="495" type="curve" smooth="yes"/>
      <point x="349" y="495" type="line"/>
      <point x="349" y="0" type="line"/>
      <point x="441" y="0" type="line"/>
      <point x="441" y="564" type="line"/>
      <point x="267" y="564" type="line" smooth="yes"/>
      <point x="114" y="564"/>
      <point x="37" y="499"/>
      <point x="37" y="389" type="curve" smooth="yes"/>
      <point x="37" y="315"/>
      <point x="76" y="259"/>
    </contour>
  </outline>
</glyph>
<glyph name="ii-cy.sc" format="2">
  <advance width="625"/>
  <anchor x="312.5" y="0" name="bottom"/>
  <anchor x="535" y="0" name="bottomright"/>
  <anchor x="313" y="564" name="top"/>
  <outline>
    <contour>
      <point x="525" y="564" type="line"/>
      <point x="412" y="564" type="line"/>
      <point x="179" y="96" type="line"/>
      <point x="185" y="147"/>
      <point x="192" y="203"/>
      <point x="192" y="305" type="curve" smooth="yes"/>
      <point x="192" y="564" type="line"/>
      <point x="100" y="564" type="line"/>
      <point x="100" y="0" type="line"/>
      <point x="216" y="0" type="line"/>
      <point x="446" y="467" type="line"/>
      <point x="441" y="420"/>
      <point x="433" y="351"/>
      <point x="433" y="260" type="curve" smooth="yes"/>
      <point x="433" y="0" type="line"/>
      <point x="525" y="0" type="line"/>
    </contour>
  </outline>
</glyph>
<glyph name="ka-cy.sc" format="2">
  <advance width="564"/>
  <anchor x="282" y="0" name="bottom"/>
  <anchor x="503" y="0" name="bottomright"/>
  <anchor x="316" y="564" name="top"/>
  <outline>
    <contour>
      <point x="537" y="564" type="line"/>
      <point x="438" y="564" type="line"/>
      <point x="251" y="332" type="line"/>
      <point x="192" y="332" type="line"/>
      <point x="192" y="564" type="line"/>
      <point x="100" y="564" type="line"/>
      <point x="100" y="0" type="line"/>
      <point x="192" y="0" type="line"/>
      <point x="192" y="262" type="line"/>
      <point x="249" y="262" type="line"/>
      <point x="447" y="0" type="line"/>
      <point x="554" y="0" type="line"/>
      <point x="325" y="299" type="line"/>
    </contour>
  </outline>
</glyph>
<glyph name="kabashkir-cy.sc" format="2">
  <advance width="605"/>
  <anchor x="357" y="564" name="top"/>
  <anchor x="544" y="0" name="bottomright"/>
  <anchor x="323" y="0" name="bottom"/>
  <outline>
    <contour>
      <point x="146" y="492" type="line"/>
      <point x="238" y="564" type="line"/>
      <point x="0" y="564" type="line"/>
      <point x="0" y="492" type="line"/>
    </contour>
    <component base="ka-cy.sc" xOffset="41"/>
  </outline>
</glyph>
<glyph name="kaverticalstroke-cy.sc" format="2">
  <advance width="537"/>
  <anchor x="268.5" y="0" name="bottom"/>
  <anchor x="268.5" y="564" name="top"/>
  <outline>
    <contour>
      <point x="512" y="564" type="line"/>
      <point x="416" y="564" type="line"/>
      <point x="289" y="331" type="line"/>
      <point x="190" y="331" type="line"/>
      <point x="190" y="564" type="line"/>
      <point x="100" y="564" type="line"/>
      <point x="100" y="0" type="line"/>
      <point x="190" y="0" type="line"/>
      <point x="190" y="262" type="line"/>
      <point x="289" y="262" type="line"/>
      <point x="424" y="0" type="line"/>
      <point x="527" y="0" type="line"/>
      <point x="360" y="303" type="line"/>
    </contour>
    <contour>
      <point x="273" y="468" type="line"/>
      <point x="224" y="468" type="line"/>
      <point x="224" y="122" type="line"/>
      <point x="273" y="122" type="line"/>
    </contour>
  </outline>
</glyph>
<glyph name="koppaArchaic.sc" format="2">
  <advance width="619"/>
  <anchor x="309.5" y="-202" name="bottom"/>
  <anchor x="107" y="564" name="topleft"/>
  <anchor x="310" y="564" name="top"/>
  <anchor x="398" y="0" name="ogonek"/>
  <anchor x="501" y="564" name="topright"/>
  <outline>
    <contour>
      <point x="263" y="-202" type="line"/>
      <point x="355" y="-202" type="line"/>
      <point x="356" y="0" type="line"/>
      <point x="263" y="0" type="line"/>
    </contour>
    <component base="o.sc"/>
  </outline>
</glyph>
<glyph name="l.sc" format="2">
  <advance width="456"/>
  <anchor x="263" y="0" name="bottom"/>
  <anchor x="366" y="316" name="center"/>
  <anchor x="146" y="564" name="top"/>
  <anchor x="213" y="564" name="topright"/>
  <outline>
    <contour>
      <point x="192" y="564" type="line"/>
      <point x="100" y="564" type="line"/>
      <point x="100" y="0" type="line"/>
      <point x="425" y="0" type="line"/>
      <point x="436" y="78" type="line"/>
      <point x="192" y="78" type="line"/>
    </contour>
  </outline>
</glyph>
<glyph name="lambda.sc" format="2">
  <advance width="519"/>
  <anchor x="259.5" y="0" name="bottom"/>
  <anchor x="259.5" y="564" name="top"/>
  <outline>
    <contour>
      <point x="324" y="564" type="line"/>
      <point x="210" y="564" type="line"/>
      <point x="20" y="0" type="line"/>
      <point x="114" y="0" type="line"/>
      <point x="266" y="489" type="line"/>
      <point x="416" y="0" type="line"/>
      <point x="513" y="0" type="line"/>
    </contour>
  </outline>
</glyph>
<glyph name="lha-cy.sc" format="2">
  <advance width="724"/>
  <anchor x="362" y="0" name="bottom"/>
  <anchor x="362" y="564" name="top"/>
  <anchor x="675" y="0" name="bottomright"/>
  <outline>
    <contour>
      <point x="123" y="564" type="line"/>
      <point x="190" y="490" type="line"/>
      <point x="367" y="490" type="line"/>
      <point x="367" y="564" type="line"/>
    </contour>
    <contour>
      <point x="207" y="491" type="line"/>
      <point x="123" y="564" type="line"/>
      <point x="98" y="296" type="line" smooth="yes"/>
      <point x="82" y="125"/>
      <point x="79" y="88"/>
      <point x="14" y="61" type="curve"/>
      <point x="37" y="-12" type="line"/>
      <point x="151" y="26"/>
      <point x="169" y="88"/>
      <point x="188" y="286" type="curve" smooth="yes"/>
    </contour>
    <component base="x.sc" xOffset="247"/>
  </outline>
</glyph>
<glyph name="lozenge.tf" format="2">
  <advance width="560"/>
  <outline>
    <contour>
      <point x="334" y="689" type="line"/>
      <point x="227" y="689" type="line"/>
      <point x="40" y="346" type="line"/>
      <point x="227" y="0" type="line"/>
      <point x="334" y="0" type="line"/>
      <point x="521" y="347" type="line"/>
    </contour>
    <contour>
      <point x="280" y="622" type="line"/>
      <point x="425" y="346" type="line"/>
      <point x="280" y="68" type="line"/>
      <point x="135" y="347" type="line"/>
    </contour>
  </outline>
</glyph>
<glyph name="lslash.sc" format="2">
  <advance width="461"/>
  <anchor x="151" y="564" name="top"/>
  <anchor x="371" y="316" name="center"/>
  <anchor x="218" y="564" name="topright"/>
  <anchor x="268" y="0" name="bottom"/>
  <outline>
    <contour>
      <point x="339" y="414" type="line"/>
      <point x="107" y="271" type="line"/>
      <point x="22" y="218" type="line"/>
      <point x="57" y="162" type="line"/>
      <point x="374" y="358" type="line"/>
    </contour>
    <component base="l.sc" xOffset="5"/>
  </outline>
</glyph>
<glyph name="nhookleft.sc" format="2">
  <advance width="625"/>
  <anchor x="322" y="564" name="top"/>
  <anchor x="313" y="0" name="bottom"/>
  <outline>
    <contour>
      <point x="39" y="-213" type="curve" smooth="yes"/>
      <point x="126" y="-213"/>
      <point x="185" y="-161"/>
      <point x="185" y="-57" type="curve" smooth="yes"/>
      <point x="185" y="1" type="line"/>
      <point x="100" y="1" type="line"/>
      <point x="100" y="-69" type="line" smooth="yes"/>
      <point x="100" y="-122"/>
      <point x="73" y="-143"/>
      <point x="38" y="-143" type="curve" smooth="yes"/>
      <point x="5" y="-143"/>
      <point x="-15" y="-134"/>
      <point x="-38" y="-120" type="curve"/>
      <point x="-74" y="-175" type="line"/>
      <point x="-49" y="-194"/>
      <point x="-14" y="-213"/>
    </contour>
    <component base="n.sc"/>
  </outline>
</glyph>
<glyph name="nhookleft.sc.ss01" format="2">
  <advance width="609"/>
  <anchor x="304.5" y="-202" name="bottom"/>
  <anchor x="304.5" y="564" name="top"/>
  <outline>
    <contour>
      <point x="358" y="576" type="curve" smooth="yes"/>
      <point x="282" y="576"/>
      <point x="217" y="532"/>
      <point x="175" y="470" type="curve"/>
      <point x="188" y="411" type="line"/>
      <point x="232" y="467"/>
      <point x="277" y="504"/>
      <point x="339" y="504" type="curve" smooth="yes"/>
      <point x="391" y="504"/>
      <point x="424" y="479"/>
      <point x="424" y="395" type="curve" smooth="yes"/>
      <point x="424" y="0" type="line"/>
      <point x="516" y="0" type="line"/>
      <point x="516" y="408" type="line" smooth="yes"/>
      <point x="516" y="513"/>
      <point x="460" y="576"/>
    </contour>
    <contour>
      <point x="179" y="564" type="line"/>
      <point x="100" y="564" type="line"/>
      <point x="100" y="0" type="line"/>
      <point x="192" y="0" type="line"/>
      <point x="192" y="435" type="line"/>
    </contour>
    <component base="hookHELPER" xOffset="-104"/>
  </outline>
</glyph>
<glyph name="pe-cy.sc" format="2">
  <advance width="620"/>
  <anchor x="310" y="0" name="bottom"/>
  <anchor x="532" y="0" name="bottomright"/>
  <anchor x="310" y="564" name="top"/>
  <outline>
    <contour>
      <point x="520" y="564" type="line"/>
      <point x="100" y="564" type="line"/>
      <point x="100" y="0" type="line"/>
      <point x="192" y="0" type="line"/>
      <point x="192" y="488" type="line"/>
      <point x="428" y="488" type="line"/>
      <point x="428" y="0" type="line"/>
      <point x="520" y="0" type="line"/>
    </contour>
  </outline>
</glyph>
<glyph name="pemiddlehook-cy.sc" format="2">
  <advance width="880"/>
  <anchor x="440" y="-202" name="bottom"/>
  <anchor x="440" y="564" name="top"/>
  <anchor x="532" y="0" name="bottomright"/>
  <outline>
    <contour>
      <point x="666" y="374" type="curve" smooth="yes"/>
      <point x="594" y="374"/>
      <point x="547" y="350"/>
      <point x="511" y="312" type="curve"/>
      <point x="512" y="235" type="line"/>
      <point x="544" y="275"/>
      <point x="582" y="300"/>
      <point x="644" y="300" type="curve" smooth="yes"/>
      <point x="719" y="300"/>
      <point x="753" y="262"/>
      <point x="753" y="191" type="curve" smooth="yes"/>
      <point x="753" y="0" type="line"/>
      <point x="845" y="0" type="line"/>
      <point x="845" y="191" type="line" smooth="yes"/>
      <point x="845" y="306"/>
      <point x="781" y="374"/>
    </contour>
    <component base="pe-cy.sc"/>
    <component base="hookHELPER" xOffset="549"/>
  </outline>
</glyph>
<glyph name="plus.dnom" format="2">
  <advance width="401"/>
  <outline>
    <contour>
      <point x="236" y="325" type="line"/>
      <point x="165" y="325" type="line"/>
      <point x="165" y="236" type="line"/>
      <point x="74" y="236" type="line"/>
      <point x="74" y="171" type="line"/>
      <point x="165" y="171" type="line"/>
      <point x="165" y="84" type="line"/>
      <point x="236" y="84" type="line"/>
      <point x="236" y="171" type="line"/>
      <point x="327" y="171" type="line"/>
      <point x="327" y="236" type="line"/>
      <point x="236" y="236" type="line"/>
    </contour>
  </outline>
</glyph>
<glyph name="psi.sc" format="2">
  <advance width="620"/>
  <anchor x="310" y="0" name="bottom"/>
  <anchor x="310" y="564" name="top"/>
  <outline>
    <contour>
      <point x="283" y="154" type="curve"/>
      <point x="287" y="225" type="line"/>
      <point x="172" y="228"/>
      <point x="125" y="267"/>
      <point x="125" y="354" type="curve" smooth="yes"/>
      <point x="125" y="564" type="line"/>
      <point x="35" y="564" type="line"/>
      <point x="35" y="350" type="line" smooth="yes"/>
      <point x="35" y="230"/>
      <point x="116" y="163"/>
    </contour>
    <contour>
      <point x="331" y="225" type="curve"/>
      <point x="335" y="154" type="line"/>
      <point x="492" y="163"/>
      <point x="585" y="227"/>
      <point x="585" y="352" type="curve" smooth="yes"/>
      <point x="585" y="564" type="line"/>
      <point x="493" y="564" type="line"/>
      <point x="493" y="354" type="line" smooth="yes"/>
      <point x="493" y="267"/>
      <point x="442" y="229"/>
    </contour>
    <contour>
      <point x="356" y="169" type="line"/>
      <point x="353" y="213" type="line"/>
      <point x="353" y="564" type="line"/>
      <point x="266" y="564" type="line"/>
      <point x="266" y="213" type="line"/>
      <point x="263" y="169" type="line"/>
      <point x="263" y="0" type="line"/>
      <point x="356" y="0" type="line"/>
    </contour>
  </outline>
</glyph>
<glyph name="psilioxia.case" format="2">
  <advance width="236"/>
  <anchor x="331" y="689" name="_topleft"/>
  <anchor x="162" y="693" name="top"/>
  <outline>
    <contour>
      <point x="226" y="468" type="line"/>
      <point x="296" y="669" type="line"/>
      <point x="213" y="690" type="line"/>
      <point x="166" y="484" type="line"/>
    </contour>
    <contour>
      <point x="30" y="474" type="line"/>
      <point x="83" y="474" type="line"/>
      <point x="124" y="560" type="line" smooth="yes"/>
      <point x="145" y="604"/>
      <point x="150" y="620"/>
      <point x="150" y="637" type="curve" smooth="yes"/>
      <point x="150" y="669"/>
      <point x="125" y="693"/>
      <point x="93" y="693" type="curve" smooth="yes"/>
      <point x="61" y="693"/>
      <point x="35" y="669"/>
      <point x="35" y="637" type="curve" smooth="yes"/>
      <point x="35" y="618"/>
      <point x="45" y="602"/>
      <point x="59" y="590" type="curve"/>
    </contour>
  </outline>
</glyph>
<glyph name="psiliperispomeni.case" format="2">
  <advance width="241"/>
  <anchor x="316" y="689" name="_topleft"/>
  <anchor x="146" y="698" name="top"/>
  <outline>
    <contour>
      <point x="100" y="406" type="line"/>
      <point x="153" y="406" type="line"/>
      <point x="173" y="442" type="line" smooth="yes"/>
      <point x="197" y="485"/>
      <point x="202" y="502"/>
      <point x="202" y="519" type="curve" smooth="yes"/>
      <point x="202" y="551"/>
      <point x="178" y="575"/>
      <point x="145" y="575" type="curve" smooth="yes"/>
      <point x="112" y="575"/>
      <point x="87" y="551"/>
      <point x="87" y="519" type="curve" smooth="yes"/>
      <point x="87" y="497"/>
      <point x="97" y="481"/>
      <point x="119" y="468" type="curve"/>
    </contour>
    <component base="perispomeni" xOffset="-53" yOffset="-76"/>
  </outline>
</glyph>
<glyph name="r.sc" format="2">
  <advance width="552"/>
  <anchor x="286" y="0" name="bottom"/>
  <anchor x="279" y="564" name="top"/>
  <outline>
    <contour>
      <point x="263" y="564" type="curve" smooth="yes"/>
      <point x="100" y="564" type="line"/>
      <point x="100" y="0" type="line"/>
      <point x="192" y="0" type="line"/>
      <point x="192" y="495" type="line"/>
      <point x="262" y="495" type="line" smooth="yes"/>
      <point x="355" y="495"/>
      <point x="397" y="467"/>
      <point x="397" y="401" type="curve" smooth="yes"/>
      <point x="397" y="328"/>
      <point x="351" y="302"/>
      <point x="271" y="302" type="curve" smooth="yes"/>
      <point x="179" y="302" type="line"/>
      <point x="179" y="234" type="line"/>
      <point x="294" y="234" type="line"/>
      <point x="426" y="256"/>
      <point x="493" y="302"/>
      <point x="493" y="401" type="curve" smooth="yes"/>
      <point x="493" y="509"/>
      <point x="415" y="564"/>
    </contour>
    <contour>
      <point x="362" y="258" type="line"/>
      <point x="272" y="245" type="line"/>
      <point x="418" y="0" type="line"/>
      <point x="527" y="0" type="line"/>
    </contour>
  </outline>
</glyph>
<glyph name="rstroke.sc" format="2">
  <advance width="552"/>
  <anchor x="279" y="564" name="top"/>
  <anchor x="286" y="0" name="bottom"/>
  <outline>
    <contour>
      <point x="302" y="234" type="line"/>
      <point x="205" y="302" type="line"/>
      <point x="100" y="302" type="line"/>
      <point x="28" y="302" type="line"/>
      <point x="28" y="234" type="line"/>
    </contour>
    <component base="r.sc"/>
  </outline>
</glyph>
<glyph name="seven.osf" format="2">
  <advance width="449"/>
  <outline>
    <contour>
      <point x="414" y="564" type="line"/>
      <point x="15" y="564" type="line"/>
      <point x="15" y="489" type="line"/>
      <point x="321" y="489" type="line"/>
      <point x="85" y="-91" type="line"/>
      <point x="169" y="-119" type="line"/>
      <point x="414" y="495" type="line"/>
    </contour>
  </outline>
</glyph>
<glyph name="sha-cy.sc" format="2">
  <advance width="835"/>
  <anchor x="418" y="0" name="bottom"/>
  <anchor x="745" y="0" name="bottomright"/>
  <anchor x="417.5" y="564" name="top"/>
  <outline>
    <contour>
      <point x="735" y="564" type="line"/>
      <point x="645" y="564" type="line"/>
      <point x="645" y="74" type="line"/>
      <point x="460" y="74" type="line"/>
      <point x="460" y="564" type="line"/>
      <point x="374" y="564" type="line"/>
      <point x="374" y="74" type="line"/>
      <point x="190" y="74" type="line"/>
      <point x="190" y="564" type="line"/>
      <point x="100" y="564" type="line"/>
      <point x="100" y="0" type="line"/>
      <point x="735" y="0" type="line"/>
    </contour>
  </outline>
</glyph>
<glyph name="shha-cy.sc" format="2">
  <advance width="552"/>
  <anchor x="276" y="0" name="bottom"/>
  <anchor x="527" y="0" name="bottomright"/>
  <anchor x="276" y="564" name="top"/>
  <outline>
    <contour>
      <point x="192" y="564" type="line"/>
      <point x="100" y="564" type="line"/>
      <point x="100" y="0" type="line"/>
      <point x="192" y="0" type="line"/>
    </contour>
    <contour>
      <point x="338" y="374" type="curve" smooth="yes"/>
      <point x="266" y="374"/>
      <point x="219" y="350"/>
      <point x="183" y="312" type="curve"/>
      <point x="184" y="235" type="line"/>
      <point x="216" y="275"/>
      <point x="254" y="300"/>
      <point x="316" y="300" type="curve" smooth="yes"/>
      <point x="391" y="300"/>
      <point x="425" y="262"/>
      <point x="425" y="191" type="curve" smooth="yes"/>
      <point x="425" y="0" type="line"/>
      <point x="517" y="0" type="line"/>
      <point x="517" y="191" type="line" smooth="yes"/>
      <point x="517" y="306"/>
      <point x="453" y="374"/>
    </contour>
  </outline>
</glyph>
<glyph name="stigma.sc" format="2">
  <advance width="492"/>
  <anchor x="246" y="-202" name="bottom"/>
  <anchor x="246" y="564" name="top"/>
  <outline>
    <contour>
      <point x="290" y="-215" type="line"/>
      <point x="398" y="-168"/>
      <point x="448" y="-120"/>
      <point x="448" y="-45" type="curve" smooth="yes"/>
      <point x="448" y="34"/>
      <point x="387" y="60"/>
      <point x="297" y="95" type="curve" smooth="yes"/>
      <point x="182" y="140"/>
      <point x="153" y="171"/>
      <point x="153" y="277" type="curve" smooth="yes"/>
      <point x="153" y="412"/>
      <point x="225" y="486"/>
      <point x="349" y="486" type="curve" smooth="yes"/>
      <point x="459" y="486" type="line"/>
      <point x="472" y="564" type="line"/>
      <point x="349" y="564" type="line" smooth="yes"/>
      <point x="151" y="564"/>
      <point x="55" y="444"/>
      <point x="55" y="277" type="curve" smooth="yes"/>
      <point x="55" y="130"/>
      <point x="120" y="69"/>
      <point x="236" y="26" type="curve" smooth="yes"/>
      <point x="325" y="-7"/>
      <point x="349" y="-19"/>
      <point x="349" y="-55" type="curve" smooth="yes"/>
      <point x="349" y="-103"/>
      <point x="308" y="-128"/>
      <point x="252" y="-153" type="curve"/>
    </contour>
  </outline>
</glyph>
<glyph name="t.sc" format="2">
  <advance width="456"/>
  <anchor x="229" y="0" name="bottom"/>
  <anchor x="285" y="0" name="bottomright"/>
  <anchor x="229" y="283" name="center"/>
  <anchor x="229" y="564" name="top"/>
  <outline>
    <contour>
      <point x="446" y="564" type="line"/>
      <point x="15" y="564" type="line"/>
      <point x="15" y="488" type="line"/>
      <point x="183" y="488" type="line"/>
      <point x="183" y="0" type="line"/>
      <point x="275" y="0" type="line"/>
      <point x="275" y="488" type="line"/>
      <point x="437" y="488" type="line"/>
    </contour>
  </outline>
</glyph>
<glyph name="tbar.sc" format="2">
  <advance width="456"/>
  <anchor x="229" y="564" name="top"/>
  <anchor x="229" y="283" name="center"/>
  <anchor x="285" y="0" name="bottomright"/>
  <anchor x="229" y="0" name="bottom"/>
  <outline>
    <contour>
      <point x="395" y="283" type="line"/>
      <point x="395" y="347" type="line"/>
      <point x="67" y="347" type="line"/>
      <point x="67" y="283" type="line"/>
    </contour>
    <component base="t.sc"/>
  </outline>
</glyph>
<glyph name="tonos.case" format="2">
  <advance width="102"/>
  <anchor x="182" y="689" name="_topleft"/>
  <outline>
    <contour>
      <point x="67" y="707" type="line"/>
      <point x="30" y="501" type="line"/>
      <point x="99" y="490" type="line"/>
      <point x="172" y="689" type="line"/>
    </contour>
  </outline>
</glyph>
<glyph name="tsehelper-cy.sc" format="2">
  <advance width="622"/>
  <anchor x="311" y="0" name="bottom"/>
  <anchor x="532" y="0" name="bottomright"/>
  <outline>
    <contour>
      <point x="430" y="564" type="line"/>
      <point x="430" y="75" type="line"/>
      <point x="192" y="75" type="line"/>
      <point x="192" y="564" type="line"/>
      <point x="100" y="564" type="line"/>
      <point x="100" y="0" type="line"/>
      <point x="522" y="0" type="line"/>
      <point x="522" y="564" type="line"/>
    </contour>
  </outline>
</glyph>
<glyph name="u.sc" format="2">
  <advance width="605"/>
  <anchor x="302" y="0" name="bottom"/>
  <anchor x="393" y="0" name="ogonek"/>
  <anchor x="303" y="564" name="top"/>
  <anchor x="525" y="564" name="topright"/>
  <outline>
    <contour>
      <point x="515" y="564" type="line"/>
      <point x="423" y="564" type="line"/>
      <point x="423" y="189" type="line" smooth="yes"/>
      <point x="423" y="105"/>
      <point x="384" y="63"/>
      <point x="302" y="63" type="curve" smooth="yes"/>
      <point x="221" y="63"/>
      <point x="182" y="105"/>
      <point x="182" y="189" type="curve" smooth="yes"/>
      <point x="182" y="564" type="line"/>
      <point x="90" y="564" type="line"/>
      <point x="90" y="183" type="line" smooth="yes"/>
      <point x="90" y="69"/>
      <point x="163" y="-11"/>
      <point x="302" y="-11" type="curve" smooth="yes"/>
      <point x="440" y="-11"/>
      <point x="515" y="70"/>
      <point x="515" y="183" type="curve" smooth="yes"/>
    </contour>
  </outline>
</glyph>
<glyph name="ubar.sc" format="2">
  <advance width="611"/>
  <anchor x="306" y="564" name="top"/>
  <anchor x="396" y="0" name="ogonek"/>
  <anchor x="528" y="564" name="topright"/>
  <anchor x="305" y="0" name="bottom"/>
  <outline>
    <contour>
      <point x="576" y="444" type="line"/>
      <point x="518" y="444" type="line"/>
      <point x="35" y="444" type="line"/>
      <point x="35" y="375" type="line"/>
      <point x="93" y="375" type="line"/>
      <point x="576" y="375" type="line"/>
    </contour>
    <component base="u.sc" xOffset="3"/>
  </outline>
</glyph>
<glyph name="ustraitstroke-cy.sc" format="2">
  <advance width="488"/>
  <anchor x="246" y="564" name="top"/>
  <anchor x="244" y="0" name="bottom"/>
  <outline>
    <contour>
      <point x="399" y="252" type="line"/>
      <point x="88" y="252" type="line"/>
      <point x="88" y="182" type="line"/>
      <point x="399" y="182" type="line"/>
    </contour>
    <component base="y.sc"/>
  </outline>
</glyph>
<glyph name="varia.case" format="2">
  <advance width="102"/>
  <anchor x="172" y="689" name="_topleft"/>
  <outline>
    <contour>
      <point x="115" y="707" type="line"/>
      <point x="10" y="689" type="line"/>
      <point x="83" y="490" type="line"/>
      <point x="152" y="501" type="line"/>
    </contour>
  </outline>
</glyph>
<glyph name="vturned.sc" format="2">
  <advance width="490"/>
  <anchor x="245" y="0" name="bottom"/>
  <anchor x="244" y="564" name="top"/>
  <outline>
    <contour>
      <point x="6" y="0" type="line"/>
      <point x="99" y="0" type="line"/>
      <point x="240" y="475" type="line"/>
      <point x="386" y="0" type="line"/>
      <point x="484" y="0" type="line"/>
      <point x="295" y="564" type="line"/>
      <point x="193" y="564" type="line"/>
    </contour>
  </outline>
</glyph>
<glyph name="wynn.sc" format="2">
  <advance width="528"/>
  <anchor x="264" y="0" name="bottom"/>
  <anchor x="264" y="564" name="top"/>
  <outline>
    <contour>
      <point x="173" y="509" type="curve"/>
      <point x="176" y="447" type="line"/>
      <point x="211" y="481"/>
      <point x="254" y="503"/>
      <point x="311" y="503" type="curve" smooth="yes"/>
      <point x="365" y="503"/>
      <point x="400" y="477"/>
      <point x="400" y="417" type="curve" smooth="yes"/>
      <point x="400" y="334"/>
      <point x="338" y="292"/>
      <point x="258" y="262" type="curve" smooth="yes"/>
      <point x="179" y="232" type="line"/>
      <point x="179" y="161" type="line"/>
      <point x="266" y="192" type="line" smooth="yes"/>
      <point x="388" y="236"/>
      <point x="496" y="293"/>
      <point x="496" y="421" type="curve" smooth="yes"/>
      <point x="496" y="520"/>
      <point x="423" y="576"/>
      <point x="332" y="576" type="curve" smooth="yes"/>
      <point x="262" y="576"/>
      <point x="211" y="550"/>
    </contour>
    <contour>
      <point x="192" y="564" type="line"/>
      <point x="100" y="564" type="line"/>
      <point x="100" y="0" type="line"/>
      <point x="192" y="0" type="line"/>
    </contour>
  </outline>
</glyph>
<glyph name="x.sc" format="2">
  <advance width="477"/>
  <anchor x="238.5" y="0" name="bottom"/>
  <anchor x="428" y="0" name="bottomright"/>
  <anchor x="238.5" y="564" name="top"/>
  <outline>
    <contour>
      <point x="124" y="564" type="line"/>
      <point x="21" y="564" type="line"/>
      <point x="184" y="301" type="line"/>
      <point x="237" y="239" type="line"/>
      <point x="368" y="0" type="line"/>
      <point x="472" y="0" type="line"/>
      <point x="290" y="305" type="line"/>
      <point x="238" y="364" type="line"/>
    </contour>
    <contour>
      <point x="453" y="564" type="line"/>
      <point x="354" y="564" type="line"/>
      <point x="238" y="364" type="line"/>
      <point x="184" y="301" type="line"/>
      <point x="5" y="0" type="line"/>
      <point x="104" y="0" type="line"/>
      <point x="237" y="239" type="line"/>
      <point x="290" y="305" type="line"/>
    </contour>
  </outline>
</glyph>
<glyph name="y.sc" format="2">
  <advance width="488"/>
  <anchor x="244" y="0" name="bottom"/>
  <anchor x="246" y="564" name="top"/>
  <outline>
    <contour>
      <point x="483" y="564" type="line"/>
      <point x="386" y="564" type="line"/>
      <point x="245" y="289" type="line"/>
      <point x="106" y="564" type="line"/>
      <point x="5" y="564" type="line"/>
      <point x="197" y="215" type="line"/>
      <point x="197" y="0" type="line"/>
      <point x="290" y="0" type="line"/>
      <point x="290" y="216" type="line"/>
    </contour>
  </outline>
</glyph>
<glyph name="yuslittleiotified-cy.sc" format="2">
  <advance width="752"/>
  <anchor x="376" y="0" name="bottom"/>
  <anchor x="376" y="564" name="top"/>
  <outline>
    <contour>
      <point x="372" y="228" type="line"/>
      <point x="372" y="300" type="line"/>
      <point x="192" y="300" type="line"/>
      <point x="192" y="564" type="line"/>
      <point x="100" y="564" type="line"/>
      <point x="100" y="0" type="line"/>
      <point x="192" y="0" type="line"/>
      <point x="192" y="228" type="line"/>
    </contour>
    <component base="yuslittle-cy.sc" xOffset="230"/>
  </outline>
</glyph>
<glyph name="zero.dnom" format="2">
  <advance width="400"/>
  <outline>
    <contour>
      <point x="200" y="424" type="curve" smooth="yes"/>
      <point x="98" y="424"/>
      <point x="46" y="347"/>
      <point x="46" y="208" type="curve" smooth="yes"/>
      <point x="46" y="69"/>
      <point x="98" y="-9"/>
      <point x="200" y="-9" type="curve" smooth="yes"/>
      <point x="302" y="-9"/>
      <point x="354" y="69"/>
      <point x="354" y="208" type="curve" smooth="yes"/>
      <point x="354" y="347"/>
      <point x="302" y="424"/>
    </contour>
    <contour>
      <point x="200" y="365" type="curve" smooth="yes"/>
      <point x="249" y="365"/>
      <point x="274" y="326"/>
      <point x="274" y="208" type="curve" smooth="yes"/>
      <point x="274" y="90"/>
      <point x="249" y="50"/>
      <point x="200" y="50" type="curve" smooth="yes"/>
      <point x="151" y="50"/>
      <point x="127" y="91"/>
      <point x="127" y="208" type="curve" smooth="yes"/>
      <point x="127" y="324"/>
      <point x="151" y="365"/>
    </contour>
  </outline>
</glyph>
<glyph name="zhe-cy.sc" format="2">
  <advance width="761"/>
  <anchor x="380.5" y="0" name="bottom"/>
  <anchor x="709" y="0" name="bottomright"/>
  <anchor x="381" y="564" name="top"/>
  <outline>
    <contour>
      <point x="739" y="564" type="line"/>
      <point x="642" y="564" type="line"/>
      <point x="497" y="332" type="line"/>
      <point x="424" y="332" type="line"/>
      <point x="424" y="564" type="line"/>
      <point x="338" y="564" type="line"/>
      <point x="338" y="332" type="line"/>
      <point x="266" y="332" type="line"/>
      <point x="123" y="564" type="line"/>
      <point x="24" y="564" type="line"/>
      <point x="192" y="299" type="line"/>
      <point x="5" y="0" type="line"/>
      <point x="108" y="0" type="line"/>
      <point x="266" y="262" type="line"/>
      <point x="338" y="262" type="line"/>
      <point x="338" y="0" type="line"/>
      <point x="424" y="0" type="line"/>
      <point x="424" y="262" type="line"/>
      <point x="496" y="262" type="line"/>
      <point x="653" y="0" type="line"/>
      <point x="756" y="0" type="line"/>
      <point x="571" y="299" type="line"/>
    </contour>
  </outline>
</glyph>
